<svg width="65" height="65" viewBox="0 0 65 65" fill="none" xmlns="http://www.w3.org/2000/svg">
<path d="M60.0638 4.78223C60.6865 4.5684 61.3567 4.53369 61.9982 4.68207C62.6397 4.83045 63.2266 5.15595 63.6922 5.62152C64.1578 6.08709 64.4833 6.67401 64.6316 7.31549C64.78 7.95696 64.7453 8.62721 64.5315 9.24993L64.0011 10.7638L63.1655 13.0009L62.6415 14.3347L62.0469 15.7875L61.388 17.3368L60.668 18.9599L60.2823 19.7892C58.1064 24.4658 55.1075 29.9331 51.5173 33.7065C48.0942 37.3064 42.9258 40.6266 38.7892 42.9826C39.334 45.595 39.2196 48.3019 38.4564 50.8591C37.6933 53.4162 36.3054 55.743 34.4179 57.6296C27.1218 64.9257 18.9674 64.9257 12.9023 63.1258C8.30605 61.7566 4.52941 59.2752 0.916684 56.2218C0.768181 56.0969 0.650338 55.9397 0.572246 55.7621C0.494155 55.5845 0.457904 55.3914 0.46629 55.1976C0.474676 55.0038 0.527475 54.8145 0.620613 54.6443C0.71375 54.4741 0.844737 54.3276 1.00347 54.2161L2.07057 53.4544C4.41048 51.7509 6.82432 49.6552 7.39966 46.7689C7.50894 46.2353 7.57644 45.6954 7.63429 45.1554L7.795 43.5258C7.85131 42.9827 7.93067 42.4422 8.03285 41.9059C8.47641 39.6913 9.41494 37.1778 11.6874 34.899C13.5739 33.0116 15.9007 31.6237 18.4579 30.8605C21.015 30.0973 23.7219 29.983 26.3343 30.5277C28.6903 26.3911 32.0073 21.2227 35.6104 17.7996C39.3838 14.2126 44.8511 11.2106 49.5277 9.03136L51.1766 8.28246L51.9802 7.9289L53.5294 7.27L55.6636 6.40217L57.5149 5.69506L59.4113 5.01044L60.0638 4.78223ZM34.6237 29.2742C33.7912 30.5438 33.0005 31.8391 32.2709 33.099C33.8067 34.1744 35.1425 35.5102 36.2179 37.046C37.4778 36.3164 38.7731 35.5257 40.0427 34.6933L39.9463 34.4779C39.418 33.366 38.7002 32.3545 37.825 31.4887C37.0516 30.7149 36.1664 30.0616 35.199 29.5506L34.6237 29.2742ZM56.1907 13.123C54.9597 13.6341 53.6226 14.2158 52.2437 14.8586C47.7117 16.9704 43.0287 19.6156 40.0395 22.4569C39.5137 22.9634 39.0097 23.4921 38.5289 24.0415C39.6924 24.6844 41.0423 25.6165 42.3698 26.9471C43.7005 28.2746 44.6326 29.6245 45.2754 30.7881C45.8248 30.3072 46.3535 29.8032 46.86 29.2774C49.7013 26.2882 52.3466 21.602 54.4583 17.0732C55.1011 15.6911 55.6797 14.354 56.1939 13.123M13.0534 0.015625C13.6547 0.0156237 14.2439 0.184298 14.7542 0.502479C15.2644 0.82066 15.6751 1.27559 15.9397 1.81556L16.094 2.19162L16.5118 3.40657C16.9528 4.69926 17.6634 5.88351 18.5965 6.8809C19.5296 7.8783 20.664 8.66607 21.9245 9.19207L22.5191 9.41706L23.7341 9.83169C24.3355 10.0373 24.8626 10.4167 25.2485 10.9218C25.6344 11.4269 25.8618 12.0351 25.9021 12.6695C25.9423 13.3039 25.7936 13.936 25.4746 14.4858C25.1556 15.0357 24.6808 15.4786 24.1101 15.7586L23.7341 15.9129L22.5191 16.3307C21.2264 16.7717 20.0422 17.4823 19.0448 18.4154C18.0474 19.3485 17.2596 20.4829 16.7336 21.7434L16.5086 22.338L16.094 23.553C15.8884 24.1545 15.509 24.6815 15.0039 25.0674C14.4987 25.4533 13.8905 25.6807 13.2561 25.721C12.6218 25.7612 11.9897 25.6125 11.4398 25.2935C10.89 24.9745 10.4471 24.4997 10.1671 23.929L10.0128 23.553L9.59493 22.338C9.15394 21.0453 8.44337 19.8611 7.51025 18.8637C6.57713 17.8663 5.44277 17.0785 4.18228 16.5525L3.58766 16.3275L2.3727 15.9129C1.77121 15.7073 1.2442 15.3279 0.8583 14.8228C0.4724 14.3177 0.244945 13.7094 0.204694 13.0751C0.164443 12.4407 0.313202 11.8086 0.632164 11.2587C0.951126 10.7089 1.42597 10.266 1.99664 9.98597L2.3727 9.83169L3.58766 9.41385C4.88034 8.97286 6.06459 8.26228 7.06199 7.32916C8.05938 6.39604 8.84716 5.26168 9.37316 4.00119L9.59815 3.40657L10.0128 2.19162C10.2293 1.5571 10.6389 1.00618 11.1841 0.615998C11.7293 0.225813 12.3829 0.0158925 13.0534 0.015625Z" fill="white"/>
</svg>
