<svg width="17" height="17" viewBox="0 0 17 17" fill="none" xmlns="http://www.w3.org/2000/svg">
<circle cx="8.5" cy="8.5" r="8.5" fill="#71A151"/>
<path d="M6.55727 3.40002C6.91549 3.40002 7.20489 3.66908 7.20489 4.00211V4.60419H9.79537V4.00211C9.79537 3.66908 10.0848 3.40002 10.443 3.40002C10.8012 3.40002 11.0906 3.66908 11.0906 4.00211V4.60419H12.062C12.5983 4.60419 13.0335 5.00872 13.0335 5.50732V6.41044H3.9668V5.50732C3.9668 5.00872 4.40192 4.60419 4.93823 4.60419H5.90965V4.00211C5.90965 3.66908 6.19906 3.40002 6.55727 3.40002ZM3.9668 7.01252H13.0335V12.1302C13.0335 12.6288 12.5983 13.0334 12.062 13.0334H4.93823C4.40192 13.0334 3.9668 12.6288 3.9668 12.1302V7.01252ZM5.26204 8.51773V9.11982C5.26204 9.28539 5.40775 9.42086 5.58584 9.42086H6.23346C6.41156 9.42086 6.55727 9.28539 6.55727 9.11982V8.51773C6.55727 8.35216 6.41156 8.21669 6.23346 8.21669H5.58584C5.40775 8.21669 5.26204 8.35216 5.26204 8.51773ZM7.85251 8.51773V9.11982C7.85251 9.28539 7.99823 9.42086 8.17632 9.42086H8.82394C9.00204 9.42086 9.14775 9.28539 9.14775 9.11982V8.51773C9.14775 8.35216 9.00204 8.21669 8.82394 8.21669H8.17632C7.99823 8.21669 7.85251 8.35216 7.85251 8.51773ZM10.7668 8.21669C10.5887 8.21669 10.443 8.35216 10.443 8.51773V9.11982C10.443 9.28539 10.5887 9.42086 10.7668 9.42086H11.4144C11.5925 9.42086 11.7382 9.28539 11.7382 9.11982V8.51773C11.7382 8.35216 11.5925 8.21669 11.4144 8.21669H10.7668ZM5.26204 10.9261V11.5281C5.26204 11.6937 5.40775 11.8292 5.58584 11.8292H6.23346C6.41156 11.8292 6.55727 11.6937 6.55727 11.5281V10.9261C6.55727 10.7605 6.41156 10.625 6.23346 10.625H5.58584C5.40775 10.625 5.26204 10.7605 5.26204 10.9261ZM8.17632 10.625C7.99823 10.625 7.85251 10.7605 7.85251 10.9261V11.5281C7.85251 11.6937 7.99823 11.8292 8.17632 11.8292H8.82394C9.00204 11.8292 9.14775 11.6937 9.14775 11.5281V10.9261C9.14775 10.7605 9.00204 10.625 8.82394 10.625H8.17632ZM10.443 10.9261V11.5281C10.443 11.6937 10.5887 11.8292 10.7668 11.8292H11.4144C11.5925 11.8292 11.7382 11.6937 11.7382 11.5281V10.9261C11.7382 10.7605 11.5925 10.625 11.4144 10.625H10.7668C10.5887 10.625 10.443 10.7605 10.443 10.9261Z" fill="white"/>
</svg>
