<svg width="34" height="34" viewBox="0 0 34 34" fill="none" xmlns="http://www.w3.org/2000/svg">
<path d="M27.4175 10.184V6.90012H24.3711V3.6162H27.4175V0.332275H30.4638V3.6162H33.5102V6.90012H30.4638V10.184H27.4175ZM15.2319 27.4246C17.1359 27.4246 18.7546 26.7065 20.0879 25.2704C21.4212 23.8342 22.0873 22.0893 22.0863 20.0358C22.0853 17.9823 21.4191 16.2379 20.0879 14.8029C18.7566 13.3678 17.1379 12.6492 15.2319 12.647C13.3259 12.6448 11.7078 13.3634 10.3775 14.8029C9.04726 16.2423 8.3806 17.9866 8.37756 20.0358C8.37451 22.085 9.04116 23.8298 10.3775 25.2704C11.7139 26.7109 13.332 27.429 15.2319 27.4246ZM15.2319 24.1407C14.1657 24.1407 13.2645 23.7439 12.5283 22.9503C11.792 22.1567 11.4239 21.1852 11.4239 20.0358C11.4239 18.8864 11.792 17.9149 12.5283 17.1213C13.2645 16.3277 14.1657 15.9309 15.2319 15.9309C16.2982 15.9309 17.1994 16.3277 17.9356 17.1213C18.6718 17.9149 19.0399 18.8864 19.0399 20.0358C19.0399 21.1852 18.6718 22.1567 17.9356 22.9503C17.1994 23.7439 16.2982 24.1407 15.2319 24.1407ZM3.04638 33.1715C2.20863 33.1715 1.49171 32.8502 0.895637 32.2077C0.299561 31.5651 0.00101546 30.7917 0 29.8876V10.184C0 9.28096 0.298546 8.50814 0.895637 7.86559C1.49273 7.22304 2.20964 6.90121 3.04638 6.90012H7.84444L10.6623 3.6162H21.3247V10.184H24.3711V13.468H30.4638V29.8876C30.4638 30.7906 30.1658 31.564 29.5697 32.2077C28.9737 32.8513 28.2562 33.1726 27.4175 33.1715H3.04638Z" fill="#F8F8F8"/>
</svg>
