<svg width="90" height="56" viewBox="0 0 90 56" fill="none" xmlns="http://www.w3.org/2000/svg">
<path d="M65.4825 31.5711C58.6155 29.8567 51.5899 29.0141 44.57 29.0433C37.5477 29.0725 30.5277 29.9738 23.6744 31.746C30.8575 30.8421 38.0794 30.3901 45.2975 30.3901C52.0341 30.3901 58.7739 30.7838 65.4825 31.5711ZM76.8032 32.4952C77.5515 32.5322 78.2817 32.5691 78.9083 32.6051C79.7077 32.651 80.4054 32.6988 80.8991 32.75C81.4995 32.8122 81.8638 32.8954 82.1116 33.0827L82.1129 33.0811C82.5447 33.4085 82.562 33.7649 82.3827 34.3016C82.3237 34.4782 82.2485 34.6582 82.1684 34.8498C82.0146 35.2178 81.8384 35.6394 81.8539 35.7509C81.876 35.9096 81.9689 35.6214 82.1954 35.6699C82.3944 35.7124 82.624 35.7616 82.9066 35.8407C83.4368 35.9891 84.067 36.2247 84.6863 36.5337C85.2184 36.7992 85.7532 37.1231 86.2273 37.4991C86.7369 37.9032 87.1716 38.3665 87.5106 38.8405C87.8762 39.3518 88.133 39.8814 88.2568 40.3715C88.381 40.8633 88.3742 41.3183 88.2742 41.7167C88.1574 42.1821 87.9124 42.5691 87.5966 42.8514C87.53 42.911 87.4618 42.9646 87.3931 43.0132C87.4933 43.0492 87.4487 43.0338 87.3985 43.0162C88.2103 43.3019 89.2667 43.6923 89.676 44.9102C89.8651 45.4729 89.8806 46.186 89.7843 46.9099C89.6785 47.7041 89.4372 48.5315 89.1475 49.1798C88.8662 49.8096 88.5413 50.2764 88.1947 50.6617C87.862 51.0314 87.5131 51.3194 87.1642 51.6071C86.8853 51.8365 86.4733 51.7963 86.244 51.5174C86.0146 51.2385 86.0548 50.8265 86.3337 50.5972C86.6368 50.3471 86.9401 50.0969 87.2207 49.785C87.4874 49.4886 87.7372 49.1298 87.953 48.6467C88.1958 48.1031 88.3983 47.4085 88.4872 46.7407C88.5596 46.1966 88.5566 45.6865 88.4353 45.3254C88.2227 44.6928 87.4812 44.4322 86.924 44.2363C86.7061 44.1597 87.2002 44.3371 86.7937 44.1922L86.794 44.1913C86.4112 44.0549 86.1062 43.928 85.8986 43.8076C85.3244 43.4744 85.1632 43.083 85.5106 42.6019C85.664 42.3894 85.8693 42.3055 86.1332 42.1977C86.3193 42.1216 86.5635 42.0218 86.7251 41.8773C86.8518 41.7641 86.952 41.6014 87.0028 41.3989C87.053 41.1989 87.0538 40.9601 86.9854 40.6893C86.9008 40.3542 86.7146 39.9773 86.4443 39.5993C86.1758 39.2239 85.8265 38.853 85.4122 38.5244C85.019 38.2126 84.5628 37.9376 84.1019 37.7077C83.5497 37.4322 83.0052 37.2269 82.558 37.1018C82.3375 37.0401 82.1159 36.9926 81.9237 36.9516C81.1372 36.7833 80.6613 36.6814 80.5569 35.9303C80.492 35.4638 80.741 34.8677 80.9585 34.3474C80.9972 34.2547 81.0348 34.1648 81.0671 34.0846C80.9863 34.0753 80.886 34.0646 80.7658 34.0521C80.2988 34.0037 79.6204 33.9575 78.8365 33.9124C78.1421 33.8725 77.4086 33.8355 76.6689 33.799L76.6006 34.3706C76.811 34.6897 77.0153 35.0116 77.2094 35.3381C77.458 35.7563 77.6997 36.1968 77.9264 36.6287L77.9253 36.6292L77.9264 36.6312C78.1653 37.0864 78.3676 37.4899 78.5423 37.8444L78.5653 37.8911C78.8222 38.4128 79.0232 38.8208 79.1784 38.8253C79.3461 38.8301 79.6722 38.6966 80.0031 38.5611C80.3748 38.4089 80.7512 38.2548 81.1247 38.2028C81.6597 38.1283 82.1154 38.2524 82.5129 38.6692C82.8235 38.9948 83.0685 39.5021 83.2603 40.2548C83.4076 40.833 83.5334 41.6003 83.6357 42.4049C83.7635 43.4112 83.8517 44.459 83.8977 45.2547C83.9097 45.4626 83.9208 45.7001 83.9307 45.9149C83.9622 46.5929 83.8609 46.8703 83.9191 46.8945C83.9435 46.9046 84.1063 46.8958 84.2781 46.8865C84.7646 46.8601 85.2887 46.8316 85.7227 47.2295C86.0618 47.5403 86.2157 48.0441 86.206 48.6772C86.198 49.208 86.0805 49.8585 85.869 50.5694C85.4722 51.9035 84.7481 53.468 84.0233 55.033C83.8806 55.359 83.5024 55.5121 83.1722 55.375C82.8381 55.2363 82.6797 54.853 82.8184 54.5189L82.8186 54.5184C82.8237 54.5062 82.8292 54.4942 82.8349 54.4824C83.5408 52.9583 84.2457 51.435 84.613 50.2003C84.793 49.5953 84.8926 49.0659 84.8987 48.6618C84.9027 48.4 84.8844 48.2332 84.8409 48.1933C84.8137 48.1684 84.5705 48.1816 84.3448 48.1938C84.0205 48.2114 83.7136 48.2281 83.4167 48.1044C82.7089 47.8095 82.681 47.2128 82.6234 45.9713C82.6152 45.7937 82.606 45.597 82.5904 45.3264C82.545 44.5423 82.46 43.5242 82.3386 42.569C82.2452 41.8337 82.1283 41.1251 81.9889 40.5778C81.8546 40.0509 81.7164 39.7307 81.5645 39.5715C81.4995 39.5033 81.4131 39.4847 81.3042 39.4998C81.0899 39.5297 80.7932 39.6511 80.5004 39.7711C80.0398 39.9596 79.586 40.1454 79.1424 40.1326C78.1965 40.1052 77.8431 39.3877 77.3913 38.4704L77.3683 38.4237C77.1778 38.0372 76.9705 37.6223 76.7689 37.2382L76.7678 37.2387C76.5536 36.8308 76.323 36.4108 76.0815 36.0046C75.8373 35.5938 75.5911 35.2116 75.3442 34.8439C75.1585 34.5674 74.9812 34.3106 74.8067 34.0601C65.0507 32.3635 55.1777 31.515 45.2975 31.515C35.2092 31.515 25.1283 32.3996 15.1718 34.1684C15.1239 34.3048 15.074 34.4446 15.0213 34.5896C14.8652 35.0197 14.6985 35.4527 14.5112 35.8914C14.1902 36.6429 13.8088 37.413 13.474 38.0892L13.2856 38.4704C12.8337 39.3877 12.4804 40.1052 11.5344 40.1326C11.0908 40.1454 10.637 39.9596 10.1765 39.7711C9.88367 39.6511 9.58702 39.5297 9.37269 39.4998C9.26383 39.4847 9.17737 39.5033 9.11238 39.5715C8.96048 39.7307 8.82222 40.0509 8.68801 40.5778C8.5486 41.1251 8.43172 41.8337 8.33827 42.569C8.21689 43.5242 8.13184 44.5423 8.08651 45.3264C8.07087 45.597 8.06169 45.7937 8.05348 45.9713C7.99588 47.2128 7.96797 47.8095 7.26016 48.1044C6.96329 48.2281 6.65634 48.2114 6.33209 48.1938C6.10636 48.1816 5.86323 48.1684 5.83601 48.1933C5.79247 48.2332 5.7742 48.4 5.77818 48.6618C5.78433 49.0659 5.88393 49.5953 6.06388 50.2003C6.43113 51.435 7.13609 52.9583 7.84195 54.4824C7.84769 54.4942 7.85316 54.5062 7.85826 54.5184L7.85845 54.5189C7.99715 54.853 7.8388 55.2363 7.50469 55.375C7.17449 55.5121 6.79624 55.359 6.65356 55.033C5.92873 53.468 5.20465 51.9035 4.80785 50.5694C4.59636 49.8585 4.47891 49.208 4.47085 48.6772C4.46121 48.0441 4.61511 47.5403 4.95421 47.2295C5.38817 46.8317 5.91227 46.8601 6.39877 46.8865C6.57066 46.8958 6.73345 46.9046 6.75778 46.8945C6.8159 46.8703 6.71469 46.5929 6.74615 45.9149C6.75609 45.7001 6.76718 45.4626 6.77918 45.2547C6.82515 44.459 6.91336 43.4112 7.04123 42.4049C7.14348 41.6003 7.26932 40.833 7.41662 40.2548C7.60838 39.5021 7.85339 38.9948 8.16398 38.6692C8.56142 38.2524 9.01713 38.1283 9.55215 38.2028C9.92559 38.2548 10.3021 38.4089 10.6738 38.5611C11.0047 38.6966 11.3308 38.8301 11.4985 38.8253C11.6537 38.8208 11.8546 38.4128 12.1116 37.8911L12.3 37.5099C12.6271 36.8492 12.9997 36.0969 13.3064 35.3787C13.4866 34.9569 13.6444 34.5471 13.791 34.1436C13.831 34.0334 13.8715 33.9197 13.9123 33.8037C13.205 33.8387 12.5047 33.8742 11.8404 33.9124C11.0565 33.9575 10.3781 34.0037 9.91109 34.0521C9.79087 34.0646 9.6906 34.0753 9.60976 34.0846C9.64208 34.1648 9.67964 34.2547 9.71841 34.3474C9.93583 34.8677 10.1849 35.4638 10.12 35.9303C10.0156 36.6814 9.53971 36.7833 8.75323 36.9516C8.56097 36.9926 8.33936 37.0401 8.11884 37.1018C7.67167 37.2269 7.12721 37.4322 6.57498 37.7077C6.11409 37.9376 5.65789 38.2126 5.26469 38.5244C4.85045 38.853 4.50112 39.2239 4.23264 39.5993C3.96231 39.9773 3.77609 40.3542 3.69149 40.6893C3.6231 40.9601 3.62392 41.1989 3.67409 41.3989C3.7249 41.6014 3.8251 41.7641 3.95177 41.8773C4.11335 42.0218 4.35757 42.1216 4.54363 42.1977C4.80754 42.3055 5.01282 42.3894 5.16633 42.6019C5.51345 43.083 5.35239 43.4745 4.77826 43.8076C4.5706 43.928 4.26563 44.0549 3.88285 44.1913L3.88314 44.1922C3.47629 44.3373 3.97068 44.1598 3.75293 44.2363C3.19567 44.4322 2.45415 44.6928 2.24157 45.3254C2.12023 45.6865 2.11727 46.1966 2.18968 46.7407C2.27858 47.4085 2.48102 48.1031 2.72386 48.6467C2.93966 49.1298 3.18947 49.4886 3.4562 49.785C3.73675 50.0969 4.04005 50.3471 4.34318 50.5972C4.62205 50.8265 4.66225 51.2385 4.43291 51.5174C4.20358 51.7963 3.79155 51.8365 3.51268 51.6071C3.1638 51.3194 2.81484 51.0315 2.48216 50.6617C2.13557 50.2764 1.8106 49.8095 1.52933 49.1798C1.23966 48.5315 0.998359 47.7041 0.892615 46.9099C0.796246 46.186 0.811818 45.4729 1.00092 44.9102C1.41126 43.6891 2.47215 43.2998 3.2848 43.0139C3.23197 43.0325 3.1789 43.0509 3.28378 43.0132C3.21512 42.9646 3.14692 42.911 3.08025 42.8514C2.76448 42.5691 2.51946 42.1821 2.4027 41.7167C2.30269 41.3183 2.29587 40.8633 2.4201 40.3715C2.54384 39.8814 2.80066 39.3518 3.16626 38.8405C3.50532 38.3665 3.93999 37.9032 4.44955 37.4991C4.92368 37.1231 5.4585 36.7992 5.99052 36.5337C6.60988 36.2247 7.24003 35.9891 7.77025 35.8407C8.05291 35.7616 8.28251 35.7124 8.48151 35.6699C8.70796 35.6214 8.80093 35.9096 8.82298 35.7509C8.83846 35.6394 8.66229 35.2178 8.50851 34.8498C8.42841 34.6582 8.35315 34.4782 8.29417 34.3016C8.11478 33.7649 8.13211 33.4085 8.56401 33.0811L8.56525 33.0827C8.813 32.8954 9.17739 32.8122 9.77781 32.75C10.2715 32.6988 10.9692 32.651 11.7686 32.6051C12.3556 32.5714 13.0336 32.5369 13.7321 32.5022C12.0063 19.4704 17.9209 10.3546 26.75 5.30507C31.9039 2.35744 38.0543 0.805061 44.2509 0.677718C50.445 0.550413 56.6899 1.84784 62.0359 4.59947C71.3962 9.41742 78.0031 18.6651 76.8032 32.4952ZM19.5365 20.559C19.5365 23.7695 22.1392 26.3722 25.3497 26.3722C28.5603 26.3722 31.163 23.7695 31.163 20.559C31.163 17.3484 28.5603 14.7458 25.3497 14.7458C22.1392 14.7458 19.5365 17.3484 19.5365 20.559ZM25.4861 15.3405L26.7374 18.1554L29.8015 17.8315C28.9056 16.3724 27.3126 15.3873 25.4861 15.3405ZM29.9379 18.067L28.1251 20.559L29.9379 23.0509C30.341 22.3104 30.57 21.4614 30.57 20.559C30.57 19.6565 30.341 18.8075 29.9379 18.067ZM29.8015 23.2864L26.7374 22.9625L25.4861 25.7775C27.3126 25.7306 28.9056 24.7456 29.8015 23.2864ZM25.2134 25.7775L23.9621 22.9625L20.898 23.2864C21.7939 24.7455 23.3869 25.7306 25.2134 25.7775ZM20.7616 23.0509L22.5744 20.559L20.7616 18.067C20.3585 18.8076 20.1295 19.6565 20.1295 20.559C20.1295 21.4614 20.3585 22.3104 20.7616 23.0509ZM20.898 17.8315L23.9621 18.1554L25.2134 15.3405C23.3869 15.3873 21.7939 16.3724 20.898 17.8315ZM25.3497 16.185L26.4482 18.6563L29.1377 18.372L27.5468 20.559L29.1377 22.746L26.4482 22.4617L25.3497 24.933L24.2512 22.4617L21.5618 22.746L23.1527 20.559L21.5618 18.372L24.2512 18.6563L25.3497 16.185ZM59.2138 20.559C59.2138 23.7695 61.8164 26.3722 65.027 26.3722C68.2376 26.3722 70.8402 23.7695 70.8402 20.559C70.8402 17.3484 68.2376 14.7458 65.027 14.7458C61.8164 14.7458 59.2138 17.3484 59.2138 20.559ZM65.1634 15.3405L66.4146 18.1554L69.4787 17.8315C68.5828 16.3724 66.9898 15.3873 65.1634 15.3405ZM69.6152 18.067L67.8024 20.559L69.6152 23.0509C70.0182 22.3104 70.2473 21.4614 70.2473 20.559C70.2473 19.6565 70.0183 18.8075 69.6152 18.067ZM69.4787 23.2864L66.4146 22.9625L65.1634 25.7775C66.9898 25.7306 68.5828 24.7456 69.4787 23.2864ZM64.8906 25.7775L63.6394 22.9625L60.5753 23.2864C61.4712 24.7455 63.0641 25.7306 64.8906 25.7775ZM60.4388 23.0509L62.2516 20.559L60.4388 18.067C60.0358 18.8076 59.8067 19.6565 59.8067 20.559C59.8067 21.4614 60.0357 22.3104 60.4388 23.0509ZM60.5753 17.8315L63.6394 18.1554L64.8906 15.3405C63.0642 15.3873 61.4712 16.3724 60.5753 17.8315ZM65.027 16.185L66.1255 18.6563L68.815 18.372L67.224 20.559L68.815 22.746L66.1255 22.4617L65.027 24.933L63.9285 22.4617L61.239 22.746L62.83 20.559L61.239 18.372L63.9285 18.6563L65.027 16.185ZM33.3524 14.9607C33.3524 21.4976 38.6516 26.7967 45.1884 26.7967C51.7252 26.7967 57.0243 21.4976 57.0243 14.9607C57.0243 8.42392 51.7252 3.12479 45.1884 3.12479C38.6516 3.12479 33.3524 8.42392 33.3524 14.9607ZM45.4661 4.33567L48.0137 10.067L54.2522 9.40756C52.4281 6.43668 49.1848 4.43103 45.4661 4.33567ZM54.5301 9.88701L50.8391 14.9607L54.5301 20.0344C55.3507 18.5267 55.817 16.7982 55.817 14.9607C55.817 13.1233 55.3508 11.3947 54.5301 9.88701ZM54.2522 20.5139L48.0137 19.8544L45.4661 25.5858C49.1848 25.4904 52.4282 23.4848 54.2522 20.5139ZM44.9107 25.5858L42.3631 19.8544L36.1245 20.5139C37.9486 23.4847 41.1919 25.4904 44.9107 25.5858ZM35.8467 20.0344L39.5376 14.9607L35.8467 9.88701C35.026 11.3948 34.5597 13.1233 34.5597 14.9607C34.5597 16.7982 35.026 18.5267 35.8467 20.0344ZM36.1245 9.40756L42.3631 10.067L44.9107 4.33567C41.192 4.43107 37.9486 6.43668 36.1245 9.40756ZM45.1884 6.0551L47.4249 11.0868L52.9009 10.5079L49.6616 14.9607L52.9009 19.4136L47.4249 18.8347L45.1884 23.8664L42.9518 18.8347L37.4758 19.4136L40.7151 14.9607L37.4758 10.5079L42.9518 11.0868L45.1884 6.0551Z" fill="white"/>
</svg>
