<svg width="72" height="59" viewBox="0 0 72 59" fill="none" xmlns="http://www.w3.org/2000/svg">
<path d="M36.3384 58.0849C33.767 56.0492 30.9814 54.4689 27.9815 53.344C24.9817 52.219 21.8746 51.6565 18.6605 51.6565C16.4105 51.6565 14.2013 51.9512 12.0328 52.5404C9.86436 53.1297 7.78801 53.96 5.80379 55.0314C4.67884 55.6207 3.59459 55.5939 2.55106 54.951C1.50752 54.3082 0.984687 53.3707 0.982544 52.1386V13.4079C0.982544 12.8187 1.1304 12.2562 1.4261 11.7205C1.7218 11.1848 2.16321 10.783 2.75034 10.5152C5.21453 9.22952 7.78586 8.26528 10.4643 7.62244C13.1428 6.97961 15.8748 6.65819 18.6605 6.65819C22.6246 6.65819 25.9995 7.11353 28.7851 8.02421C31.5707 8.93489 34.5706 10.3277 37.7848 12.2026C38.374 12.524 38.8165 12.899 39.1122 13.3276C39.4079 13.7561 39.5547 14.3186 39.5525 15.015V48.6031C41.9096 47.4781 44.2806 46.6339 46.6655 46.0703C49.0504 45.5067 51.5007 45.226 54.0163 45.2282C55.9448 45.2282 57.8337 45.3889 59.6829 45.7103C61.5321 46.0317 63.3931 46.5139 65.2659 47.1567V8.50634C66.0694 8.77418 66.8601 9.06882 67.6379 9.39023C68.4158 9.71165 69.1786 10.0866 69.9264 10.5152C70.5157 10.783 70.9582 11.1848 71.2539 11.7205C71.5496 12.2562 71.6964 12.8187 71.6942 13.4079V52.1386C71.6942 53.3707 71.1714 54.3082 70.1257 54.951C69.08 55.5939 67.9958 55.6207 66.873 55.0314C64.8909 53.96 62.8156 53.1297 60.6471 52.5404C58.4786 51.9512 56.2684 51.6565 54.0163 51.6565C50.8021 51.6565 47.6951 52.219 44.6952 53.344C41.6953 54.4689 38.9097 56.0492 36.3384 58.0849ZM47.588 38.7999V3.44403L57.2305 0.229858V35.5857L47.588 38.7999Z" fill="#FFFCFC"/>
</svg>
