<svg width="287" height="215" viewBox="0 0 287 215" fill="none" xmlns="http://www.w3.org/2000/svg">
<g opacity="0.3">
<path d="M136.816 41.7448C158.767 3.74031 207.315 -9.26704 245.286 12.6331C283.257 34.5332 296.269 83.1116 274.362 121.072C252.456 159.032 203.863 172.039 165.892 150.139C155.979 144.388 147.747 136.866 141.419 128.151M148.942 42.4084C169.079 13.1197 208.687 3.78455 240.02 21.8356C272.902 40.8157 284.187 82.8904 265.201 115.763C246.216 148.635 204.129 159.917 171.247 140.937C165.273 137.486 159.962 133.239 155.492 128.46" stroke="#71A151" stroke-width="4" stroke-miterlimit="10" stroke-linecap="round" stroke-linejoin="round"/>
<path d="M120.752 191.86C120.796 199.116 124.558 206.195 131.285 210.088C141.331 215.884 154.298 212.433 160.095 202.39L167.574 189.471M179.036 169.606L185.675 158.103C182.931 157.395 180.187 156.51 177.487 155.493L171.247 166.288M158.812 187.79L152.837 198.187C149.341 204.248 141.552 206.327 135.489 202.832C130.886 200.178 128.585 195.046 129.249 190.046M148.235 155.316L155.492 142.751C153.28 140.937 151.155 138.99 149.164 136.999L139.074 154.475" stroke="#71A151" stroke-width="4" stroke-miterlimit="10" stroke-linecap="round" stroke-linejoin="round"/>
<path d="M40.384 134.478C33.5687 129.213 22.1065 130.717 13.6095 132.841C11.795 135.849 22.9031 143.813 27.5942 145.14C32.3295 146.423 37.5959 145.759 41.7117 143.68C42.5082 141.468 35.7372 139.831 33.79 138.105C43.9687 140.849 48.3942 145.14 40.384 134.478Z" fill="#F2C4EB" fill-opacity="0.8"/>
<path d="M33.7008 122.753C25.4693 121.072 18.0344 128.018 13.1221 134.079C13.6531 137.796 26.7085 139.919 30.957 138.902C35.2055 137.84 38.6574 134.699 40.3391 130.761C39.5868 128.328 33.6123 130.009 31.0898 129.345C40.2949 127 46.1808 128.903 33.7008 122.753Z" fill="#F2C4EB" fill-opacity="0.8"/>
<path d="M29.2762 94.9688C25.0277 87.0494 14.2294 85.7221 5.90936 85.8548C3.20978 88.8633 10.4234 100.986 14.1409 103.773C17.9468 106.516 22.8592 107.224 27.2847 105.897C28.7451 103.596 23.3017 99.8355 22.1068 97.3579C30.2498 103.286 32.7281 109.392 29.2762 94.9688Z" fill="#F2C4EB" fill-opacity="0.8"/>
<path d="M45.4725 101.163C41.224 93.2435 30.4257 91.9162 22.1056 92.0489C19.4061 95.0574 26.6197 107.18 30.3371 109.967C34.1431 112.71 39.0555 113.418 43.481 112.091C44.9414 109.79 39.498 106.03 38.3031 103.552C46.4904 109.436 48.9687 115.586 45.4725 101.163Z" fill="#F2C4EB" fill-opacity="0.8"/>
<path d="M59.0152 64.8838C55.0322 57.5395 45.0305 56.3007 37.2858 56.4335C34.8075 59.2208 41.49 70.5026 44.942 73.0687C48.4824 75.6348 53.0849 76.2542 57.1564 75.0154C58.5283 72.8475 53.439 69.3966 52.3326 67.0517C59.9445 72.6263 62.2458 78.3336 59.0152 64.8838Z" fill="#F2C4EB" fill-opacity="0.8"/>
<path d="M51.6688 94.2609C48.7036 88.7306 41.136 87.8015 35.2943 87.89C33.4356 89.9694 38.4364 98.464 41.0475 100.411C43.7028 102.357 47.1547 102.8 50.2526 101.871C51.2705 100.234 47.4645 97.6234 46.6236 95.8979C52.3768 100.101 54.1471 104.393 51.6688 94.2609Z" fill="#F2C4EB" fill-opacity="0.8"/>
<path d="M57.0241 112.533C54.7671 108.374 49.0581 107.666 44.6769 107.711C43.2607 109.303 47.0666 115.719 49.0139 117.179C51.0054 118.639 53.6164 118.993 55.962 118.285C56.7586 117.046 53.8377 115.099 53.2181 113.772C57.5552 116.957 58.8828 120.187 57.0241 112.533Z" fill="#F2C4EB" fill-opacity="0.8"/>
<path d="M58.1305 124.346C55.8735 120.187 50.1646 119.479 45.7833 119.523C44.3671 121.116 48.1731 127.531 50.1203 128.991C52.1118 130.451 54.7229 130.805 57.0684 130.097C57.865 128.859 54.9442 126.912 54.3246 125.585C58.6616 128.726 59.9893 131.956 58.1305 124.346Z" fill="#F2C4EB" fill-opacity="0.8"/>
<path d="M45.5611 80.59C44.6317 70.2372 34.0104 65.1936 25.2921 62.5833C21.1763 65.0608 23.2563 81.1652 25.9117 85.5009C28.6112 89.881 33.4793 92.2701 38.613 92.2258C41.1798 90.1022 37.1525 84.0852 37.064 80.8555C42.9057 90.2791 42.773 97.9774 45.5611 80.59Z" fill="#F2C4EB" fill-opacity="0.8"/>
<path d="M35.9134 72.184C35.8249 63.1585 26.9738 58.0264 19.5831 55.1948C15.8214 57.053 16.5295 71.1222 18.521 75.104C20.5568 79.0859 24.6283 81.475 29.0981 81.8289C31.4878 80.1919 28.39 74.6616 28.5227 71.8743C32.904 80.4131 32.2402 87.0938 35.9134 72.184Z" fill="#F2C4EB" fill-opacity="0.8"/>
<path d="M52.2885 28.1182C52.2443 21.3934 45.6502 17.5885 40.1625 15.4648C37.3745 16.8364 37.8613 27.3219 39.3659 30.2861C40.8706 33.2504 43.88 35.0201 47.1991 35.2856C48.9693 34.0468 46.6681 29.9764 46.8008 27.897C50.0757 34.2237 49.5889 39.2232 52.2885 28.1182Z" fill="#F2C4EB" fill-opacity="0.8"/>
<path d="M59.812 38.9134C59.7677 32.1885 53.1736 28.3837 47.686 26.26C44.8979 27.6315 45.3847 38.117 46.8894 41.0813C48.3941 44.0456 51.4034 45.8153 54.7226 46.0807C56.4928 44.8419 54.1915 40.7716 54.3243 38.6922C57.5992 45.0631 57.1124 50.0183 59.812 38.9134Z" fill="#F2C4EB" fill-opacity="0.8"/>
<path d="M64.7243 43.6032C69.5481 38.471 69.8136 28.6934 69.2826 21.3491C67.2468 19.4909 59.9004 27.9413 58.3072 31.7019C56.7583 35.551 56.5813 40.0195 57.6434 43.6917C59.1923 44.6208 61.2724 39.1347 62.8213 37.6304C59.5021 45.9038 55.6962 49.1778 64.7243 43.6032Z" fill="#F2C4EB" fill-opacity="0.8"/>
<path d="M67.4675 68.7328C72.2029 63.5564 72.3799 53.7345 71.7603 46.3902C69.6803 44.532 62.4224 53.0709 60.9178 56.8757C59.4131 60.7249 59.2803 65.2376 60.431 68.8655C61.9799 69.7504 64.0156 64.2643 65.5203 62.76C62.2454 71.0776 58.528 74.3958 67.4675 68.7328Z" fill="#F2C4EB" fill-opacity="0.8"/>
<path d="M96.8533 62.4062C96.5435 54.4425 88.5776 47.7176 81.9835 43.3818C78.7086 44.0897 79.6822 56.6989 81.541 60.6807C83.4439 64.7068 87.0729 67.8038 91.0559 69.2195C93.1359 68.3347 90.2593 62.7159 90.3035 60.2825C94.4193 68.9098 94.021 74.6171 96.8533 62.4062Z" fill="#F2C4EB" fill-opacity="0.8"/>
<path d="M94.8181 40.7273C94.5968 34.6661 88.5339 29.5782 83.533 26.3042C81.0547 26.8351 81.7628 36.3915 83.179 39.4C84.6394 42.4528 87.3832 44.7976 90.3926 45.8595C91.9415 45.1958 89.773 40.9485 89.8173 39.0903C92.9594 45.6825 92.6496 50.0183 94.8181 40.7273Z" fill="#F2C4EB" fill-opacity="0.8"/>
<path d="M103.979 39.1788C110.042 39.0018 115.175 32.9848 118.494 27.9854C117.963 25.5078 108.404 26.1714 105.395 27.543C102.341 28.9587 99.9515 31.7018 98.8893 34.7103C99.5532 36.2588 103.802 34.1351 105.66 34.1794C99.0221 37.3206 94.6851 36.9667 103.979 39.1788Z" fill="#F2C4EB" fill-opacity="0.8"/>
<path d="M97.1193 58.6898C103.182 58.5128 108.316 52.4958 111.635 47.4964C111.104 45.0188 101.545 45.6824 98.5355 47.0539C95.4819 48.4697 93.0921 51.2128 92.03 54.2213C92.6938 55.7698 96.9423 53.6461 98.801 53.6903C92.1627 56.8316 87.8257 56.4776 97.1193 58.6898Z" fill="#F2C4EB" fill-opacity="0.8"/>
<path d="M103.979 68.202C110.042 68.025 115.175 62.008 118.494 57.0086C117.963 54.531 108.404 55.1946 105.395 56.5662C102.341 57.9819 99.9515 60.725 98.8893 63.7335C99.5532 65.3262 103.802 63.1583 105.66 63.2026C99.0221 66.3438 94.6851 65.9899 103.979 68.202Z" fill="#F2C4EB" fill-opacity="0.8"/>
<path d="M83.7542 124.744C89.8172 124.567 94.9508 118.55 98.2699 113.551C97.7389 111.073 88.1797 111.737 85.1704 113.108C82.1167 114.524 79.7269 117.267 78.6648 120.276C79.3286 121.824 83.5772 119.701 85.4359 119.745C78.8419 122.842 74.5048 122.488 83.7542 124.744Z" fill="#F2C4EB" fill-opacity="0.8"/>
<path d="M93.4904 131.159C99.5534 130.982 104.687 124.965 108.006 119.966C107.475 117.488 97.916 118.152 94.9066 119.523C91.853 120.939 89.4632 123.682 88.4011 126.691C89.0649 128.239 93.3134 126.116 95.1721 126.16C88.5338 129.301 84.1968 128.947 93.4904 131.159Z" fill="#F2C4EB" fill-opacity="0.8"/>
<path d="M101.677 118.285C107.74 118.108 112.874 112.091 116.193 107.091C115.662 104.614 106.103 105.277 103.093 106.649C100.04 108.065 97.6498 110.808 96.5877 113.816C97.2515 115.365 101.5 113.241 103.359 113.285C96.7647 116.427 92.4277 116.073 101.677 118.285Z" fill="#F2C4EB" fill-opacity="0.8"/>
<path d="M108.67 127.177C114.335 129.345 121.371 125.762 126.372 122.444C126.859 119.966 117.742 116.869 114.423 117.002C111.06 117.134 107.785 118.771 105.661 121.116C105.661 122.797 110.44 122.488 112.122 123.24C104.82 123.55 100.97 121.559 108.67 127.177Z" fill="#F2C4EB" fill-opacity="0.8"/>
<path d="M120 115.011C125.222 118.108 132.745 115.807 138.233 113.374C139.118 110.985 130.709 106.428 127.39 105.941C124.071 105.499 120.575 106.516 118.052 108.507C117.742 110.188 122.522 110.675 124.027 111.692C116.857 110.763 113.405 108.153 120 115.011Z" fill="#F2C4EB" fill-opacity="0.8"/>
<path d="M93.9767 107.755C100.04 107.622 105.218 101.649 108.581 96.6943C108.05 94.2167 98.4908 94.7918 95.4814 96.1634C92.4278 97.5791 89.9937 100.278 88.9316 103.286C89.5512 104.879 93.844 102.756 95.7027 102.8C89.0644 105.808 84.7273 105.454 93.9767 107.755Z" fill="#F2C4EB" fill-opacity="0.8"/>
<path d="M110.705 109.569C116.768 109.436 121.946 103.463 125.309 98.5082C124.778 96.0307 115.219 96.6058 112.21 97.9773C109.156 99.3931 106.722 102.092 105.66 105.1C106.28 106.693 110.572 104.569 112.431 104.614C105.793 107.666 101.456 107.268 110.705 109.569Z" fill="#F2C4EB" fill-opacity="0.8"/>
<path d="M131.903 105.41C137.966 105.277 143.144 99.3045 146.508 94.3493C145.977 91.8717 136.418 92.4469 133.408 93.8184C130.355 95.2341 127.92 97.933 126.858 100.941C127.478 102.534 131.771 100.411 133.629 100.455C126.991 103.463 122.654 103.109 131.903 105.41Z" fill="#F2C4EB" fill-opacity="0.8"/>
<path d="M106.988 93.199C113.051 93.0663 118.229 87.0935 121.592 82.1384C121.061 79.6608 111.502 80.2359 108.493 81.6075C105.439 83.0232 103.005 85.722 101.943 88.7305C102.562 90.3232 106.855 88.1996 108.714 88.2439C102.076 91.2966 97.6942 90.8984 106.988 93.199Z" fill="#F2C4EB" fill-opacity="0.8"/>
<path d="M120.088 77.9354C126.151 77.8026 131.329 71.8299 134.692 66.8747C134.161 64.3971 124.602 64.9723 121.593 66.3438C118.539 67.7595 116.105 70.4583 115.043 73.4668C115.663 75.0596 119.955 72.9359 121.814 72.9802C115.176 76.0329 110.839 75.6347 120.088 77.9354Z" fill="#F2C4EB" fill-opacity="0.8"/>
<path d="M140.445 119.391C144.163 124.169 152.084 124.7 158.059 124.434C159.741 122.532 153.545 115.232 150.624 113.639C147.659 112.046 144.03 111.737 140.976 112.666C140.091 114.126 144.34 116.294 145.402 117.798C139.029 114.303 136.728 110.586 140.445 119.391Z" fill="#F2C4EB" fill-opacity="0.8"/>
<path d="M70.654 87.7574C75.3008 82.4925 75.2566 72.6706 74.5042 65.3264C72.38 63.5124 65.3434 72.2282 63.8829 76.0331C62.4668 79.9264 62.4225 84.395 63.6174 88.0229C65.2106 88.9077 67.1136 83.3331 68.574 81.8289C65.4761 90.235 61.8472 93.5974 70.654 87.7574Z" fill="#F2C4EB" fill-opacity="0.8"/>
<path d="M71.761 108.905C77.2487 104.481 78.8862 94.8362 79.373 87.4919C77.6028 85.3682 69.15 92.7125 67.07 96.2519C64.99 99.8356 64.1934 104.26 64.7687 108.02C66.1849 109.127 69.0172 103.994 70.7432 102.756C66.2734 110.454 62.1134 113.153 71.761 108.905Z" fill="#F2C4EB" fill-opacity="0.8"/>
<path d="M96.5875 94.6591C101.411 89.5269 101.677 79.7493 101.146 72.405C99.1101 70.5469 91.7637 78.9972 90.1705 82.7578C88.6216 86.6069 88.4445 91.0754 89.5067 94.7476C91.0556 95.6767 93.1356 90.1906 94.6845 88.6863C91.3654 96.9597 87.6037 100.189 96.5875 94.6591Z" fill="#F2C4EB" fill-opacity="0.8"/>
<path d="M20.2034 110.808C13.4766 109.436 7.41365 115.099 3.43066 120.054C3.87322 123.107 14.5388 124.833 17.9464 123.992C21.4426 123.107 24.2307 120.541 25.6026 117.356C24.983 115.365 20.1149 116.736 18.0349 116.205C25.5583 114.303 30.3822 115.851 20.2034 110.808Z" fill="#F2C4EB" fill-opacity="0.8"/>
<path d="M38.6579 128.505C33.4358 122.886 24.6732 124.523 18.1676 126.735C16.7515 129.921 25.2928 138.371 28.8775 139.742C32.5064 141.114 36.5336 140.406 39.6758 138.194C40.2953 135.849 35.1175 134.079 33.6128 132.265C41.4017 135.274 44.8094 139.787 38.6579 128.505Z" fill="#9932CC"/>
<path d="M99.5538 126.027C105.086 124.125 109.511 114.657 103.138 110.586C103.183 112.356 103.05 114.126 102.563 115.896C102.076 114.878 102.829 111.117 101.545 110.985C95.0398 113.374 96.5887 121.337 99.5538 126.027Z" fill="#9932CC"/>
<path d="M4.0504 82.7579C3.20955 82.227 3.20955 82.227 2.72274 83.1561C-1.83556 90.2792 -1.21599 102.357 8.78572 103.463C7.76785 101.65 6.8385 99.8355 6.52871 97.7561C8.1219 100.013 9.49381 104.702 11.4853 100.101C15.7781 93.4204 9.62658 86.2531 4.0504 82.7579Z" fill="#9932CC"/>
<path d="M86.8961 46.8769C83.0017 44.7975 78.4434 44.9745 74.1506 45.2842C72.6459 49.6199 78.0893 57.4067 82.8247 59.1321C88.7549 59.9727 92.4281 59.5303 86.9847 53.7787C88.6221 54.3097 90.5694 57.8933 91.5872 57.4509C92.0298 53.2921 90.8791 48.9121 86.8961 46.8769Z" fill="#9932CC"/>
<path d="M24.895 80.5016C25.7359 81.1652 26.6652 81.7403 27.8159 82.0943C27.5061 80.6343 26.8423 79.3955 26.7537 77.8912C28.1257 80.5458 28.4354 82.9349 30.8252 79.2185C33.8789 74.3076 29.8959 68.0694 25.7359 65.4148C22.8593 69.8391 19.7171 76.6082 24.895 80.5016Z" fill="#9932CC"/>
<path d="M47.0221 17.0132C42.7736 20.7738 40.605 29.7551 46.9778 32.9405C47.2876 33.3387 49.4118 34.3121 48.4825 33.2502C48.0399 31.9672 47.7301 30.6399 47.5089 29.3126C48.3054 30.109 48.8365 33.8696 50.2084 32.4539C55.5633 27.7641 51.4476 20.6411 47.0221 17.0132Z" fill="#9932CC"/>
<path d="M109.997 56.8316C110.883 59.6189 113.007 61.5656 115.574 62.8044C117.211 62.9371 116.769 58.9995 117.255 57.6722C117.698 59.6189 117.388 61.5656 117.521 63.6007C126.505 58.1589 121.769 47.3194 114.91 42.3643C110.971 43.78 109.201 52.4958 109.997 56.8316Z" fill="#9932CC"/>
<path d="M151.244 48.9123C144.34 44.9747 130.709 49.6644 132.701 59.973C134.294 58.513 135.843 57.053 137.746 55.9911C136.905 57.4511 133.895 59.1766 134.338 60.7693C142.525 65.3263 149.606 56.4336 151.244 48.9123Z" fill="#9932CC"/>
<path d="M153.59 78.3336C151.51 69.9275 147.438 77.0948 144.031 80.6785C139.517 85.324 143.721 100.72 148.235 89.4828C147.837 91.4295 146.996 93.1992 146.155 95.1458C154.298 93.6858 156.776 85.1912 153.59 78.3336Z" fill="#9932CC"/>
<path d="M129.028 82.7578C121.549 84.6602 112.919 91.1197 117.168 99.6143C118.672 99.9682 120.531 97.3137 121.947 96.3846C118.23 101.472 115.751 102.225 123.983 100.455C130.267 98.464 132.214 86.9609 129.028 82.7578Z" fill="#9932CC"/>
<path d="M128.01 123.726C125.841 118.196 119.778 111.914 113.627 114.303C111.945 114.082 110.485 115.32 108.891 115.763C111.812 116.825 114.689 118.196 116.946 120.364C111.37 118.462 106.103 114.966 109.776 124.08C113.361 131.204 122.433 131.513 129.382 130.805C131.594 130.23 128.275 125.363 128.01 123.726Z" fill="#9932CC"/>
<path d="M50.4748 50.4606C48.3948 41.7448 35.5164 42.32 30.3828 46.7C33.4364 52.0534 39.1011 58.557 45.9607 56.3007C52.0237 54.1328 49.2356 53.2479 45.4296 50.5491C47.7309 50.2394 52.5105 55.3273 50.4748 50.4606Z" fill="#9932CC"/>
<path d="M97.9161 76.1215C96.4557 67.8481 86.9408 65.1935 79.6829 64.4414C78.5765 64.6626 79.6386 68.2463 79.5501 69.3081C80.0812 77.67 85.9671 86.3858 95.128 84.0852C94.1986 81.3421 93.0037 78.7318 91.4548 76.3427C93.9331 78.2894 95.5706 80.8554 97.031 83.687C97.7833 81.0324 98.3587 78.6875 97.9161 76.1215Z" fill="#9932CC"/>
<path d="M55.7409 74.8827C52.7757 67.5827 43.7034 66.6978 36.7996 67.096C35.3834 67.1402 35.3834 67.1402 35.6489 68.556C37.0208 77.2276 44.0132 87.7573 54.0149 83.7755C55.4753 82.9349 50.4302 77.9797 49.6779 76.7851C52.3332 77.9354 54.2804 80.2803 56.1392 82.4039C57.157 80.5457 56.4047 76.9621 55.7409 74.8827Z" fill="#9932CC"/>
<path d="M68.4865 29.9322C67.9112 28.8261 67.3359 26.3928 65.9639 27.9855C62.512 30.9498 59.0601 34.4892 57.6882 38.9135C55.2099 44.0899 58.3077 49.7087 62.689 52.9826C62.335 49.7972 62.512 46.7887 63.3086 43.8687C63.4856 46.479 63.7069 49.1778 64.3265 51.7438C64.592 53.0269 66.1852 51.2572 66.849 51.0802C74.638 46.5674 72.381 36.3474 68.4865 29.9322Z" fill="#9932CC"/>
<path d="M31.4887 93.2878C27.0189 88.952 20.2036 90.1465 14.8044 91.8278C13.7423 94.0841 20.6461 102.402 23.4342 103.11C26.7976 104.614 29.8955 103.906 32.9491 102.136C33.7015 101.473 29.6742 98.5084 29.0104 97.7563C30.8249 98.6411 32.6393 99.6145 34.144 100.986C34.3653 101.074 34.4981 101.074 34.4538 100.809C34.1883 98.066 33.3917 95.2787 31.4887 93.2878Z" fill="#9932CC"/>
<path d="M92.9599 118.329C84.4628 117.887 74.2399 122.045 76.7182 132.266C76.6296 134.035 80.1701 128.151 81.2764 128.063C80.4799 129.567 76.4526 133.681 80.1258 133.637C84.153 134.345 87.4279 133.018 89.7735 129.655C91.0569 128.062 94.7743 119.258 92.9599 118.329Z" fill="#9932CC"/>
<path d="M18.1236 33.2063C22.5934 38.3384 31.5772 42.2318 36.5338 35.5954C38.3483 34.5335 33.3475 33.339 32.6836 32.5426C34.4981 32.5869 36.4011 33.5602 38.127 33.8257C38.0385 33.5602 37.9943 33.339 37.7287 33.2063C34.6309 23.3844 22.9032 25.7735 16.6189 30.9499C15.9551 31.6578 17.681 32.6311 18.1236 33.2063Z" fill="#9932CC"/>
<path d="M19.0087 113.595C13.2555 109.658 7.5908 115.232 5.02399 120.232C4.84697 120.541 4.89122 120.718 5.24526 120.851C10.6002 123.329 18.8759 123.55 20.4691 116.559C20.5134 115.321 17.2385 116.25 16.3091 116.029C17.7253 115.409 19.23 115.144 20.9117 115.099C20.2478 114.436 19.6725 113.993 19.0087 113.595Z" fill="#9932CC"/>
<path d="M113.405 29.6225C111.414 29.18 109.378 29.1358 107.342 29.0916C107.298 29.18 107.298 29.2243 107.298 29.2685C107.298 29.2685 107.298 29.2685 107.254 29.2685C102.386 28.6491 96.3671 31.7019 95.6147 36.9225C93.8888 45.6826 96.7211 38.294 100.262 37.2764C99.9518 37.6304 99.7305 37.8958 99.465 38.2055C98.8897 38.9577 95.9245 41.5237 97.0752 42.1431C102.607 44.7092 108.095 42.4528 111.193 36.4358C111.724 35.2855 114.91 30.2861 113.405 29.6225ZM101.633 38.1613C101.678 38.1613 101.678 38.1171 101.678 38.1171C101.678 38.1613 101.678 38.1613 101.633 38.1613Z" fill="#9932CC"/>
<path d="M127.567 42.6741C127.478 41.0371 127.257 39.4001 126.903 37.8074C127.965 39.6213 128.363 41.6565 129.027 43.7359C135.754 34.9316 128.319 26.9679 119.689 24.0037C116.901 28.3394 117.034 38.1613 122.168 41.6122C123.009 42.1432 127.567 44.3553 127.567 42.6741Z" fill="#9932CC"/>
<path d="M149.031 70.6796C149.297 70.2372 148.987 70.1487 148.721 70.0603C139.826 65.1493 126.771 64.5299 124.071 76.6524C123.673 77.0064 124.204 77.2276 124.469 76.9179C126.771 75.6348 130.267 73.9536 132.745 73.9536C130.798 74.8827 128.939 75.9445 127.169 77.1833C125.089 78.5991 125.089 78.6433 127.213 80.0149C135.533 86.0319 144.782 77.847 149.031 70.6796Z" fill="#9932CC"/>
<path d="M153.944 122.488C151.023 114.259 143.19 106.118 134.383 113.241C136.551 113.816 138.72 114.17 140.579 115.409C139.516 115.276 134.383 113.816 134.56 115.099C135.047 117.223 135.622 119.391 137.171 121.028C141.464 125.452 148.235 124.346 153.634 123.151C154.121 123.063 154.121 122.842 153.944 122.488Z" fill="#9932CC"/>
<path d="M99.8189 171.332C116.636 169.916 132.302 162.66 149.075 161.2C149.606 161.421 152.084 161.377 152.66 161.377C136.153 155.183 117.787 161.908 100.615 158.811C57.732 148.812 63.4409 100.366 118.893 108.905C128.231 108.242 139.339 105.852 143.986 96.6942C141.684 99.7027 138.587 101.959 135.09 103.065C120.265 107.932 104.864 101.871 89.7729 102.932C103.315 88.1111 134.604 71.4316 128.231 45.24C128.275 48.5582 128.231 51.6109 127.567 54.6637V54.6194C127.036 55.2388 127.08 56.0795 126.682 56.7431C122.787 66.4765 114.821 73.5553 106.678 79.9262C107.121 66.2553 89.5959 55.9025 95.7474 42.0103C88.401 52.3188 98.8895 63.6892 101.235 73.9092C105.13 91.7833 76.9388 94.1724 70.1677 108.153C65.2554 113.993 68.3533 100.145 66.6273 96.8712C66.6716 75.4577 62.2018 43.2491 38.0826 34.8872C67.3354 54.2212 54.5456 95.2342 57.1124 123.638C57.1124 124.257 57.1124 125.01 57.2895 125.673C57.2895 126.735 57.378 127.797 57.5992 128.814C58.3516 136.999 60.7413 144.919 64.7686 152.086C40.2954 137.088 54.5899 92.6681 24.2307 83.5541C34.9405 87.8014 38.5252 99.9682 40.7379 110.232C31.8869 106.295 17.8579 113.728 10.8213 104.968C16.2647 117.179 36.6664 105.675 41.8886 117.754C40.4281 150.316 66.8929 176.287 99.8189 171.332ZM118.981 106.162C118.981 106.206 118.981 106.206 118.937 106.206L118.893 106.162C118.937 106.162 118.981 106.162 118.981 106.162ZM115.662 108.507C115.707 108.463 115.707 108.463 115.751 108.507C115.707 108.507 115.707 108.507 115.662 108.507ZM72.4248 106.649C72.4248 106.605 72.3805 106.605 72.3805 106.56C72.469 106.56 72.469 106.605 72.4248 106.649Z" fill="#8B7D3B"/>
<path d="M224.53 191.462C197.402 192.347 169.654 165.093 144.517 187.48C173.946 174.473 203.73 209.026 231.257 190.267C229.044 190.931 226.787 191.241 224.53 191.462Z" fill="#8B7D3B"/>
<path d="M154.076 175.8C163.812 173.588 174.168 172.924 183.639 176.375C147.792 149.874 109.334 195.355 68.7959 176.331C80.5678 186.286 96.367 191.329 111.679 188.763C126.638 187.303 139.604 179.03 154.076 175.8ZM134.692 172.305C134.692 172.261 134.736 172.261 134.692 172.305V172.305ZM118.937 177.083C118.982 177.083 119.07 177.083 119.114 177.039C118.981 177.083 118.849 177.127 118.716 177.172C118.76 177.127 118.849 177.083 118.937 177.083ZM81.4087 182.481C81.4087 182.525 81.4087 182.569 81.4087 182.613C81.3644 182.525 81.3644 182.481 81.4087 182.481Z" fill="#8B7D3B"/>
<path d="M226.434 52.7612C228.602 50.5933 232.099 50.5933 234.223 52.7612C236.391 54.9291 236.391 58.4242 234.223 60.5479L213.379 81.3862L234.223 102.224C236.391 104.392 236.391 107.888 234.223 110.011C232.054 112.179 228.558 112.179 226.434 110.011L205.59 89.1729L184.745 110.011C182.577 112.179 179.125 112.179 176.956 110.011C174.788 107.843 174.788 104.348 176.956 102.224L197.801 81.3862L176.956 60.5479C174.788 58.38 174.788 54.8848 176.956 52.7612C179.125 50.5933 182.621 50.5933 184.745 52.7612L205.59 73.5995L226.434 52.7612Z" stroke="#71A151" stroke-width="4" stroke-miterlimit="10"/>
</g>
</svg>
