<svg width="79" height="78" viewBox="0 0 79 78" fill="none" xmlns="http://www.w3.org/2000/svg">
<path fill-rule="evenodd" clip-rule="evenodd" d="M15.3723 8.7152C15.3578 9.55054 16.9166 14.6303 17.1957 16.0205C18.4522 15.9578 29.5257 12.827 31.7132 12.2404C34.6035 11.4654 34.7661 11.0936 38.1646 13.7215C38.9803 14.3523 39.8519 15.0039 40.7245 15.6441C41.5927 16.281 42.8149 16.9908 43.3105 17.6715C42.703 18.6716 31.1375 27.5432 29.7149 29.5417C29.3419 30.0656 28.7419 31.2326 28.5337 32.0571C27.9861 34.2254 28.4449 36.5633 29.411 38.0767C29.8779 38.8081 30.4647 39.6255 30.923 40.2592C32.0672 41.8412 38.4177 50.3978 38.4932 50.9432C34.5415 51.1352 13.6945 50.6795 12.3495 51.0787L12.3562 58.6457C13.5354 58.8361 32.7534 58.7195 35.6053 58.7022C38.5175 58.6846 40.2485 59.0399 42.5294 57.7989C45.4405 56.2151 48.2789 51.7697 46.169 47.2498C45.7557 46.3646 41.4321 37.1854 41.293 36.5104C42.2264 35.6424 43.3348 34.8965 44.2212 34.1618L53.0545 27.0665L53.3793 27.8759C53.4618 28.2888 53.4932 28.5158 53.572 28.9137C53.9994 31.0728 54.2119 32.0196 55.5033 33.903C56.6073 35.513 58.5828 37.3098 60.5808 38.2395C63.3156 39.512 65.2934 39.3764 68.6508 39.3786C71.6329 39.3806 75.0894 39.535 78.0141 39.3554L78.0618 31.6604C74.2838 31.4657 70.1023 31.6534 66.3345 31.6426C61.0215 31.6273 61.6813 29.7416 60.7644 25.2603C59.373 18.4596 54.869 16.7521 49.6203 12.619C47.8779 11.2469 41.0214 6.11124 39.3552 5.29756C34.0734 2.71847 30.0082 4.75842 24.6764 6.11627C23.2785 6.47227 16.0442 8.33574 15.3723 8.7152ZM0.794568 39.3656L23.0494 39.3886C22.8881 38.675 22.6389 38.1631 22.4718 37.4413C22.3194 36.7824 22.2326 36.1218 22.0675 35.5489L0.816847 35.5363L0.794568 39.3656ZM0.781607 31.6206C3.87332 31.8324 18.3919 31.6836 22.3754 31.6531C22.5844 30.8143 22.5656 30.3661 22.8591 29.6274C23.1147 28.9839 23.3876 28.462 23.558 27.8821L0.768433 27.902L0.781607 31.6206ZM0.8196 23.9446C2.26548 23.9906 26.1306 24.0669 26.7052 23.8763C27.1504 23.7285 31.4749 20.8322 31.7892 20.1092L0.845034 20.1007L0.8196 23.9446ZM23.5606 77.9084C24.1925 77.5123 30.2944 71.0387 31.0795 70.2803L36.6534 64.5853C37.181 64.0504 38.1755 63.1734 38.478 62.5472L30.8183 62.5504C27.7509 62.5478 28.1277 62.2338 26.6989 63.7353C24.9162 65.6086 18.1229 72.4371 17.1114 73.7253L23.5606 77.9084ZM61.2205 0.952257C50.7656 3.38603 54.4344 18.0227 64.1469 16.0721C67.8107 15.3363 71.005 11.7295 70.2207 7.08206C69.6147 3.49135 65.7036 -0.0913572 61.2205 0.952257Z" fill="white"/>
</svg>
