<svg width="22" height="21" viewBox="0 0 22 21" fill="none" xmlns="http://www.w3.org/2000/svg">
<path d="M10.9955 0C11.3788 0 11.7288 0.213281 11.8955 0.553711L14.7538 6.34922L21.1372 7.27617C21.5122 7.32949 21.8247 7.58789 21.9413 7.94473C22.058 8.30156 21.9622 8.68711 21.6955 8.94961L17.0663 13.4695L18.158 19.8516C18.2205 20.2207 18.0663 20.5939 17.7538 20.8154C17.4413 21.0369 17.033 21.0615 16.6997 20.8852L10.9913 17.8828L5.29133 20.8811C4.95383 21.0574 4.54549 21.0328 4.23716 20.8113C3.92883 20.5898 3.77049 20.2166 3.83299 19.8475L4.92466 13.4654L0.295493 8.94961C0.0246598 8.68711 -0.0670068 8.29746 0.0496599 7.94473C0.166327 7.59199 0.478827 7.33359 0.853827 7.27617L7.23716 6.34922L10.0955 0.553711C10.2663 0.213281 10.6122 0 10.9955 0ZM10.9955 3.24023L11 11.5C10.8542 11.7912 12.3292 12.9508 12 13L11 11.5L6.70383 12.4277C6.93299 12.6533 6.75799 11.6842 6.70383 12L11.2703 11L12.9395 15.7019C13.2354 15.546 10.4424 15.546 10.7341 15.7019L10.5 11L15.008 13.2932C14.9538 12.9773 14.5205 14.0177 14.7538 13.7922L10.7341 11.5574L12 8.5L13.9413 8.22363C13.6163 8.17441 11.1458 11.6405 10.9999 11.3452L10.9955 3.24023Z" fill="#9A31C9"/>
</svg>
