<svg width="329" height="257" viewBox="0 0 329 257" fill="none" xmlns="http://www.w3.org/2000/svg">
<path d="M137.731 142.21C133.795 138.274 133.795 131.889 137.731 127.952C141.668 124.015 148.053 124.015 151.99 127.952L183.279 159.241L256.756 76.4508C260.432 72.2962 266.782 71.9083 270.936 75.5841C275.091 79.2599 275.479 85.6096 271.803 89.7642L191.78 179.928C191.491 180.315 191.171 180.688 190.819 181.039C186.883 184.977 180.497 184.977 176.561 181.039L137.731 142.21Z" stroke="#71A151" stroke-width="2.83465" stroke-miterlimit="22.9256"/>
<path d="M120.576 52.1236C120.643 51.1735 120.656 50.2091 120.611 49.2341L120.479 46.406C120.098 38.2078 123.569 30.9837 130.209 26.1606C136.849 21.3365 144.792 20.2667 152.471 23.1629L155.118 24.1628C165.599 28.1143 177.089 24.3821 183.244 15.0251L184.798 12.6605C189.307 5.80313 196.364 2 204.571 2C212.777 2 219.834 5.80313 224.342 12.6605L225.896 15.0251C232.052 24.3821 243.541 28.1153 254.022 24.1628L256.67 23.1629C264.349 20.2667 272.292 21.3365 278.931 26.1606C285.571 30.9837 289.042 38.2078 288.661 46.406L288.53 49.2341C288.009 60.4213 295.11 70.1959 305.911 73.1572L308.64 73.9052C316.555 76.0754 322.353 81.6101 324.889 89.4156C327.425 97.2201 325.986 105.106 320.86 111.514L319.092 113.724C312.094 122.469 312.094 134.55 319.092 143.294L320.86 145.505C325.986 151.913 327.425 159.798 324.889 167.603C322.354 175.408 316.555 180.943 308.64 183.114L305.911 183.861C295.11 186.822 288.009 196.598 288.53 207.785L288.661 210.612C289.042 218.811 285.571 226.035 278.931 230.858C272.292 235.682 264.349 236.752 256.67 233.856L254.022 232.856C244.675 229.332 234.526 231.92 228.075 239.156" stroke="#71A151" stroke-width="4" stroke-miterlimit="22.9256" stroke-linecap="round" stroke-linejoin="round"/>
<path d="M32.6621 180.042C38.3121 180.059 43.7127 181.167 47.7402 184.285C50.1103 187.435 51.5596 189.48 52.2119 190.724C52.3748 191.035 52.4876 191.296 52.5527 191.51C52.6179 191.725 52.6347 191.893 52.6074 192.019C52.5804 192.143 52.5102 192.228 52.3975 192.28C52.2834 192.332 52.1249 192.35 51.9219 192.338C51.5158 192.312 50.9401 192.164 50.21 191.927C49.4803 191.691 48.5978 191.369 47.5771 190.998C45.5359 190.256 42.9437 189.321 39.9248 188.496L39.9072 188.528C40.4962 189.036 41.4379 189.541 42.502 190.051C43.5676 190.563 44.7543 191.081 45.8408 191.617C46.9268 192.153 47.9083 192.706 48.5586 193.286C49.2068 193.864 49.52 194.464 49.292 195.099C44.4626 197.58 38.228 198.355 32.6318 196.829C29.8714 196.056 25.1994 193.32 21.4873 190.329C19.6315 188.833 18.0167 187.276 17.001 185.869C16.4931 185.165 16.1361 184.5 15.9727 183.901C15.8101 183.305 15.8395 182.774 16.1025 182.334C21.1191 181.094 27.0141 180.024 32.6621 180.042Z" fill="#F2C4EB" stroke="#71A151" stroke-width="0.0377953"/>
<path d="M26.2131 173.642C30.3526 170.942 34.9848 169.388 39.8577 170.385C43.5399 172.209 45.8651 173.437 47.1125 174.294C47.4242 174.508 47.668 174.699 47.8489 174.87C48.0299 175.042 48.1467 175.193 48.2053 175.325C48.2636 175.458 48.264 175.571 48.2141 175.673C48.1637 175.776 48.0602 175.869 47.9045 175.954C47.5929 176.125 47.0811 176.26 46.4016 176.389C45.7224 176.518 44.8781 176.639 43.9026 176.781C41.9517 177.064 39.4776 177.43 36.76 178.105V178.141C37.5052 178.336 38.506 178.359 39.5999 178.327C40.6954 178.296 41.8822 178.211 43.0081 178.193C44.1332 178.174 45.1925 178.222 46.0266 178.455C46.858 178.687 47.4614 179.103 47.6887 179.815C45.6948 184.47 41.6178 188.198 36.5872 189.45C35.3404 189.751 33.4404 189.82 31.2805 189.685C29.1209 189.55 26.7027 189.211 24.4211 188.697C22.1397 188.182 19.9954 187.493 18.3821 186.658C17.5754 186.241 16.9015 185.787 16.4104 185.301C15.9215 184.817 15.614 184.302 15.5334 183.76C18.4315 180.182 22.0757 176.34 26.2131 173.642Z" fill="#F2C4EB" stroke="#71A151" stroke-width="0.0377953"/>
<path d="M6.95044 126.76C11.8687 126.684 17.514 127.039 22.5598 128.581C27.6069 130.123 32.0528 132.852 34.5745 137.527H34.5754C35.6035 141.795 36.1901 144.541 36.342 146.151C36.38 146.553 36.3915 146.884 36.3752 147.149C36.359 147.415 36.3152 147.614 36.2463 147.753C36.1778 147.892 36.084 147.971 35.9661 148C35.8471 148.028 35.7001 148.007 35.5237 147.938C35.17 147.8 34.7073 147.473 34.136 147.004C33.5651 146.536 32.8873 145.927 32.1028 145.225C30.5339 143.821 28.5389 142.046 26.1243 140.283L26.0959 140.305C26.446 141.049 27.1132 141.883 27.8879 142.757C28.664 143.633 29.547 144.548 30.3333 145.458C31.1188 146.368 31.8042 147.269 32.1848 148.112C32.5644 148.953 32.6387 149.733 32.2102 150.408C27.0302 151.967 21.1841 151.179 16.7092 147.913C15.6095 147.096 14.2517 145.586 12.8831 143.723C11.5147 141.861 10.1361 139.647 8.99438 137.425C7.85261 135.204 6.94784 132.974 6.52661 131.081C6.31598 130.134 6.22671 129.271 6.28833 128.536C6.34972 127.803 6.5607 127.198 6.95044 126.76Z" fill="#F2C4EB" stroke="#71A151" stroke-width="0.0377953"/>
<path d="M26.1501 134.066C31.0683 133.989 36.7129 134.344 41.7585 135.885C46.8057 137.427 51.2519 140.157 53.7732 144.832H53.7742C54.8025 149.1 55.3897 151.847 55.5417 153.457C55.5797 153.859 55.5902 154.19 55.574 154.456C55.5577 154.721 55.5149 154.92 55.446 155.059C55.3775 155.198 55.2838 155.277 55.1658 155.306C55.0467 155.335 54.8991 155.314 54.7224 155.245C54.3688 155.106 53.9069 154.78 53.3357 154.311C52.7648 153.843 52.0862 153.234 51.3015 152.532C49.7324 151.128 47.7379 149.351 45.323 147.587L45.2947 147.611C45.645 148.354 46.3127 149.189 47.0876 150.063C47.8639 150.939 48.7467 151.854 49.533 152.764C50.3186 153.673 51.0049 154.574 51.3855 155.417C51.765 156.258 51.8384 157.038 51.4099 157.713C46.2292 159.272 40.3837 158.484 35.9099 155.218C34.8099 154.402 33.4515 152.892 32.0828 151.029C30.7143 149.166 29.3358 146.953 28.1941 144.731C27.0523 142.509 26.1475 140.28 25.7263 138.386C25.5157 137.439 25.4264 136.577 25.488 135.841C25.5494 135.109 25.7604 134.503 26.1501 134.066Z" fill="#F2C4EB" stroke="#71A151" stroke-width="0.0377953"/>
<path d="M44.1155 91.9526C48.6858 91.8823 53.9323 92.2115 58.6223 93.644C63.314 95.0772 67.4468 97.6147 69.7903 101.959C70.7456 105.925 71.2916 108.477 71.4329 109.972C71.4682 110.346 71.4782 110.653 71.4631 110.9C71.448 111.147 71.4079 111.331 71.344 111.46C71.2805 111.589 71.1943 111.662 71.0852 111.689C70.975 111.716 70.8381 111.696 70.6741 111.632C70.3456 111.504 69.9161 111.2 69.385 110.764C68.8544 110.329 68.2237 109.763 67.4944 109.111C66.0361 107.806 64.1822 106.155 61.9377 104.516L61.9094 104.54C62.2361 105.232 62.8577 106.007 63.5784 106.82C64.3003 107.634 65.1209 108.485 65.8518 109.331C66.5821 110.176 67.2199 111.013 67.5735 111.796C67.9256 112.577 67.9937 113.301 67.5969 113.927C62.7816 115.376 57.3479 114.643 53.1887 111.61H53.1897C52.1671 110.852 50.9044 109.449 49.6321 107.718C48.3599 105.987 47.0781 103.93 46.0168 101.865C44.9555 99.7994 44.1143 97.7269 43.7229 95.9663C43.5272 95.0861 43.4449 94.2845 43.5022 93.6011C43.5592 92.9211 43.7543 92.359 44.1155 91.9526Z" fill="#F2C4EB" stroke="#71A151" stroke-width="0.0377953"/>
<path d="M41.7849 129.172C45.2249 129.119 49.1734 129.368 52.7029 130.446C56.2339 131.525 59.3434 133.435 61.1072 136.704H61.1082C61.8281 139.691 62.2398 141.613 62.3464 142.739C62.3731 143.021 62.3801 143.252 62.3689 143.438C62.3576 143.623 62.3276 143.761 62.28 143.857C62.2327 143.953 62.1682 144.008 62.0876 144.027C62.006 144.047 61.904 144.033 61.781 143.984C61.5346 143.888 61.2118 143.66 60.8123 143.332C60.4131 143.004 59.9392 142.578 59.3904 142.087C58.2926 141.104 56.8968 139.86 55.2068 138.625L55.1785 138.648C55.4239 139.169 55.891 139.754 56.4333 140.366C56.977 140.98 57.5948 141.62 58.1453 142.257C58.6952 142.893 59.1743 143.524 59.4402 144.113C59.7048 144.7 59.7559 145.242 59.4587 145.711C55.835 146.8 51.7444 146.25 48.616 143.967C47.8461 143.396 46.8962 142.339 45.9382 141.035C44.9804 139.732 44.0154 138.183 43.2166 136.628C42.4176 135.073 41.7854 133.513 41.491 132.188C41.3437 131.526 41.2808 130.923 41.324 130.409C41.3669 129.898 41.5141 129.477 41.7849 129.172Z" fill="#F2C4EB" stroke="#71A151" stroke-width="0.0377953"/>
<path d="M52.8617 152.648C55.4572 152.608 58.4353 152.796 61.097 153.609C63.7603 154.423 66.1047 155.864 67.4349 158.328C67.9778 160.581 68.2883 162.03 68.3685 162.879C68.3886 163.091 68.3946 163.266 68.3861 163.405C68.3776 163.545 68.3543 163.649 68.3187 163.721C68.2835 163.792 68.2362 163.831 68.1771 163.846C68.1168 163.86 68.0412 163.85 67.9486 163.813C67.7633 163.741 67.5199 163.57 67.2181 163.322C66.9169 163.075 66.5592 162.754 66.1449 162.383C65.3163 161.641 64.2624 160.702 62.9867 159.769L62.9584 159.793C63.144 160.187 63.4976 160.628 63.9066 161.09C64.3171 161.553 64.7822 162.036 65.1976 162.516C65.6125 162.997 65.9737 163.472 66.1742 163.916C66.3735 164.357 66.4118 164.764 66.1898 165.116C63.5433 165.911 60.5688 165.546 58.2406 163.958L58.017 163.801C57.437 163.371 56.721 162.575 55.9984 161.592C55.2761 160.609 54.5482 159.441 53.9457 158.268C53.343 157.096 52.8651 155.919 52.6429 154.92C52.5319 154.42 52.4855 153.965 52.5179 153.578C52.5501 153.194 52.6595 152.877 52.8617 152.648Z" fill="#F2C4EB" stroke="#71A151" stroke-width="0.0377953"/>
<path d="M54.1696 166.587C56.7656 166.547 59.744 166.735 62.4059 167.548C65.0692 168.362 67.4136 169.802 68.7438 172.267C69.2864 174.52 69.5973 175.969 69.6774 176.819C69.6974 177.031 69.7025 177.205 69.694 177.344C69.6854 177.484 69.6631 177.587 69.6276 177.659C69.5923 177.731 69.5443 177.77 69.485 177.784C69.4247 177.799 69.349 177.789 69.2565 177.753C69.0712 177.681 68.8278 177.509 68.526 177.261C68.2248 177.014 67.867 176.692 67.4528 176.322C66.6243 175.58 65.571 174.641 64.2955 173.708L64.2672 173.731C64.4529 174.125 64.8062 174.568 65.2155 175.03C65.6259 175.493 66.0911 175.976 66.5065 176.456C66.9211 176.936 67.2825 177.411 67.483 177.855C67.6824 178.296 67.7207 178.704 67.4987 179.056C64.7667 179.877 61.684 179.46 59.3248 177.739C58.745 177.309 58.0286 176.513 57.3063 175.531C56.5839 174.548 55.8562 173.38 55.2535 172.207C54.6508 171.035 54.174 169.858 53.9518 168.859C53.8407 168.359 53.7934 167.904 53.8258 167.517C53.858 167.133 53.9674 166.816 54.1696 166.587Z" fill="#F2C4EB" stroke="#71A151" stroke-width="0.0377953"/>
<path d="M29.9182 99.2288C35.071 100.765 40.7883 103.026 45.3528 106.429C49.9193 109.834 53.3307 114.38 53.8704 120.486C53.0386 125.634 52.4256 128.923 51.8665 130.788C51.7267 131.254 51.5906 131.631 51.4553 131.925C51.3199 132.219 51.1857 132.43 51.051 132.566C50.9167 132.701 50.783 132.759 50.6467 132.752C50.5097 132.746 50.3661 132.674 50.2131 132.537C49.907 132.265 49.5714 131.745 49.1858 131.028C48.8004 130.311 48.3662 129.4 47.8625 128.35C46.8554 126.249 45.5705 123.588 43.843 120.802L43.8049 120.741L43.8079 120.813C43.8413 121.767 44.1644 122.927 44.5813 124.169C44.9989 125.413 45.5103 126.737 45.9231 128.023C46.3355 129.307 46.6479 130.549 46.6682 131.626C46.6884 132.7 46.4165 133.607 45.6663 134.228C39.5801 134.275 33.848 131.456 30.6448 126.298C29.8632 125.016 29.1229 122.866 28.5286 120.315C27.9343 117.764 27.4862 114.813 27.2883 111.932C27.0904 109.05 27.142 106.238 27.5481 103.963C27.7511 102.826 28.0425 101.823 28.4348 101.014C28.8256 100.208 29.3164 99.5943 29.9182 99.2288Z" fill="#F2C4EB" stroke="#71A151" stroke-width="0.0377953"/>
<path d="M23.1478 90.473C27.5068 92.1653 32.3038 94.5252 36.0219 97.7933C39.7418 101.063 42.3806 105.241 42.4213 110.57C41.3417 114.973 40.5815 117.781 39.9672 119.358C39.8137 119.752 39.6692 120.068 39.5316 120.314C39.3939 120.559 39.2628 120.733 39.1371 120.84C39.0117 120.947 38.8924 120.989 38.7758 120.974C38.6584 120.959 38.5391 120.887 38.4164 120.758C38.1705 120.501 37.9164 120.027 37.6322 119.378C37.3483 118.731 37.0354 117.911 36.6722 116.965C35.946 115.074 35.0182 112.679 33.7152 110.144L33.682 110.081L33.6791 110.152C33.6411 110.982 33.8401 112.013 34.1146 113.119C34.3896 114.226 34.7402 115.408 35.0082 116.551C35.2759 117.693 35.4594 118.791 35.4017 119.725C35.3442 120.657 35.0459 121.422 34.3529 121.908C29.0773 121.522 24.3066 118.679 21.891 113.987C21.303 112.82 20.8113 110.905 20.474 108.652C20.1367 106.399 19.9543 103.81 19.9838 101.298C20.0133 98.7869 20.2544 96.3536 20.765 94.4105C21.0204 93.4389 21.3432 92.5904 21.7396 91.9164C22.1343 91.2453 22.6014 90.7478 23.1478 90.473Z" fill="#F2C4EB" stroke="#71A151" stroke-width="0.0377953"/>
<path d="M47.4771 43.5024C50.7186 44.7613 54.2857 46.5159 57.0503 48.9458C59.7301 51.3013 61.6554 54.2904 61.8013 58.0776L61.8091 58.4468C61.0061 61.7218 60.44 63.8094 59.9829 64.9819C59.8687 65.2749 59.7619 65.5106 59.6597 65.6929C59.5572 65.8754 59.4597 66.0041 59.3667 66.0835C59.2743 66.1623 59.187 66.192 59.1021 66.1812C59.0162 66.1701 58.9284 66.1171 58.8374 66.022C58.655 65.8312 58.4659 65.479 58.2544 64.9966C58.0432 64.5149 57.8106 63.9059 57.5405 63.2026C57.0003 61.796 56.3101 60.014 55.3413 58.1284L55.3091 58.0649L55.3052 58.1362C55.2766 58.7545 55.4245 59.5207 55.6284 60.3433C55.8328 61.1677 56.0932 62.0466 56.2925 62.897C56.4915 63.7465 56.6283 64.5631 56.5854 65.2573C56.5428 65.9487 56.3221 66.5156 55.8101 66.8755C51.8853 66.5904 48.3396 64.4758 46.5444 60.9868C46.1081 60.1197 45.7432 58.6957 45.4927 57.02C45.2422 55.3443 45.1063 53.4184 45.1284 51.5503C45.1505 49.6822 45.3297 47.8722 45.7095 46.4272C45.8994 45.7047 46.1395 45.0736 46.4341 44.5728C46.7268 44.0752 47.0728 43.7064 47.4771 43.5024Z" fill="#F2C4EB" stroke="#71A151" stroke-width="0.0377953"/>
<path d="M56.4023 56.2853C59.6443 57.5442 63.211 59.2988 65.9756 61.7286C68.6554 64.084 70.5802 67.0727 70.7266 70.8595L70.7354 71.2286C69.9315 74.5038 69.3645 76.5918 68.9072 77.7648C68.7929 78.058 68.6864 78.2943 68.584 78.4767C68.4816 78.6592 68.384 78.7868 68.291 78.8663C68.1983 78.9456 68.1105 78.9758 68.0254 78.965C67.9396 78.9539 67.8526 78.9008 67.7617 78.8058C67.5794 78.6152 67.3901 78.2637 67.1787 77.7814C66.9676 77.2997 66.7349 76.69 66.4648 75.9865C65.9249 74.5798 65.2353 72.7975 64.2666 70.9113L64.2344 70.8478L64.2305 70.9191C64.2019 71.5373 64.3498 72.3036 64.5537 73.1261C64.7581 73.9505 65.0185 74.8294 65.2178 75.6798C65.4168 76.5294 65.5535 77.346 65.5107 78.0402C65.4681 78.7315 65.2473 79.2985 64.7354 79.6583C60.8106 79.3732 57.2659 77.2587 55.4707 73.7697C55.0341 72.9026 54.6686 71.4786 54.418 69.8029C54.1673 68.1272 54.0317 66.2013 54.0537 64.3331C54.0757 62.465 54.255 60.6551 54.6348 59.2101C54.8247 58.4876 55.0648 57.8564 55.3594 57.3556C55.6521 56.858 55.9981 56.4892 56.4023 56.2853Z" fill="#F2C4EB" stroke="#71A151" stroke-width="0.0377953"/>
<path d="M80.75 50.1512C81.216 50.0811 81.6079 50.164 81.9043 50.4305C82.2127 54.7777 82.2874 59.8436 81.5742 64.5809C80.8607 69.3203 79.3591 73.7283 76.5186 76.7606C73.8589 78.3995 72.1439 79.3878 71.1289 79.7968C70.8752 79.899 70.6659 79.9652 70.4971 79.996C70.3281 80.0267 70.2018 80.0214 70.1123 79.9852C70.0242 79.9496 69.969 79.8831 69.9443 79.7831C69.9194 79.6819 69.9252 79.5468 69.96 79.3778C70.0294 79.04 70.2126 78.5737 70.4805 77.9872C70.7482 77.401 71.0999 76.6962 71.5049 75.8807C72.3149 74.2499 73.3393 72.1777 74.333 69.7352L74.3018 69.7147C73.8468 70.1531 73.3512 70.8881 72.8359 71.7245C72.3198 72.5623 71.7844 73.501 71.2471 74.3534C70.71 75.2054 70.1734 75.9671 69.6572 76.4481C69.3993 76.6884 69.148 76.8576 68.9053 76.9335C68.6651 77.0084 68.4326 76.9929 68.21 76.8632C66.9466 72.5387 67.1367 67.2204 68.9775 62.6952C69.9 60.464 72.5338 56.8482 75.2402 54.0653C76.5934 52.6739 77.9642 51.492 79.1465 50.7958C79.7376 50.4477 80.2805 50.2219 80.75 50.1512Z" fill="#F2C4EB" stroke="#71A151" stroke-width="0.0377953"/>
<path d="M83.6812 79.8076C84.1462 79.7326 84.539 79.8116 84.8384 80.0752C85.1975 84.4184 85.331 89.482 84.6724 94.2266C84.0133 98.9737 82.5613 103.399 79.7544 106.465C77.1138 108.134 75.4101 109.143 74.3999 109.563C74.1476 109.669 73.9393 109.737 73.771 109.77C73.6024 109.802 73.4762 109.799 73.3862 109.764C73.2978 109.729 73.2421 109.663 73.2163 109.563C73.1902 109.463 73.1943 109.327 73.2271 109.158C73.2927 108.82 73.4707 108.351 73.7319 107.762C73.993 107.173 74.3371 106.464 74.7329 105.644C75.5245 104.004 76.5246 101.92 77.4907 99.4668L77.4595 99.4463C77.0094 99.8901 76.5227 100.631 76.0171 101.474C75.5106 102.317 74.9859 103.263 74.4585 104.121C73.9312 104.979 73.4028 105.748 72.8921 106.234C72.6369 106.478 72.387 106.649 72.145 106.728C71.9057 106.805 71.6739 106.791 71.4497 106.664C70.1339 102.352 70.267 97.0305 72.0542 92.4863C72.9494 90.2441 75.5418 86.5971 78.2163 83.7832C79.5534 82.3765 80.9102 81.179 82.0845 80.4697C82.6716 80.1151 83.2124 79.8833 83.6812 79.8076Z" fill="#F2C4EB" stroke="#71A151" stroke-width="0.0377953"/>
<path d="M96.9709 76.4962C100.873 79.0657 105.182 82.3324 108.558 86.1349C111.936 89.9395 114.377 94.2784 114.547 98.9884C113.701 102.606 113.098 104.893 112.594 106.132C112.468 106.442 112.348 106.685 112.233 106.867C112.117 107.049 112.007 107.168 111.9 107.231C111.794 107.293 111.69 107.3 111.586 107.258C111.481 107.215 111.373 107.121 111.261 106.977C111.036 106.688 110.798 106.207 110.531 105.565C110.263 104.923 109.965 104.122 109.619 103.198C108.929 101.351 108.047 99.0088 106.83 96.4513L106.795 96.4591C106.783 97.1822 106.984 98.1397 107.255 99.1827C107.527 100.227 107.867 101.357 108.133 102.431C108.399 103.505 108.589 104.519 108.562 105.328C108.534 106.135 108.29 106.732 107.696 106.987C103.01 105.343 98.7121 101.654 96.4563 96.9181C95.9057 95.7433 95.4221 93.9319 95.0667 91.8615C94.7112 89.7912 94.4845 87.4627 94.4475 85.255C94.4105 83.0473 94.5637 80.9612 94.967 79.3741C95.1688 78.5806 95.4323 77.9127 95.7659 77.4171C96.0975 76.9245 96.4969 76.6035 96.9709 76.4962Z" fill="#F2C4EB" stroke="#71A151" stroke-width="0.0377953"/>
<path d="M98.7864 56.2986C101.747 58.2479 105.015 60.7248 107.575 63.6082C110.137 66.4926 111.988 69.7817 112.118 73.3523C111.476 76.0983 111.019 77.8348 110.636 78.7742C110.54 79.0088 110.45 79.1932 110.363 79.3308C110.275 79.4687 110.191 79.5582 110.111 79.6052C110.031 79.6515 109.955 79.6572 109.877 79.6257C109.798 79.5937 109.717 79.5229 109.632 79.4138C109.462 79.1954 109.282 78.8304 109.078 78.3435C108.875 77.857 108.65 77.2501 108.388 76.5496C107.864 75.1483 107.194 73.3711 106.271 71.4314L106.235 71.4392C106.225 71.988 106.379 72.7146 106.584 73.5056C106.79 74.2983 107.048 75.1544 107.25 75.9695C107.452 76.784 107.597 77.5532 107.576 78.1667C107.556 78.777 107.372 79.2269 106.925 79.4207C103.37 78.1732 100.113 75.3761 98.4016 71.7839C97.9845 70.8937 97.6173 69.5205 97.3479 67.95C97.0785 66.3795 96.9062 64.613 96.8782 62.9382C96.8502 61.2633 96.967 59.6807 97.2727 58.4773C97.4256 57.8756 97.6248 57.3691 97.8772 56.9939C98.1277 56.6216 98.4294 56.3797 98.7864 56.2986Z" fill="#F2C4EB" stroke="#71A151" stroke-width="0.0377953"/>
<path d="M133.457 56.3419C135.132 56.3239 136.715 56.4497 137.916 56.7628C138.517 56.9194 139.022 57.1222 139.396 57.3771C139.767 57.63 140.006 57.9333 140.085 58.2911C138.118 61.2384 135.622 64.491 132.724 67.0333C129.823 69.5778 126.522 71.4092 122.949 71.5177C120.21 70.8597 118.478 70.3921 117.541 70.004C117.307 69.907 117.123 69.8149 116.986 69.7267C116.848 69.6383 116.759 69.5543 116.712 69.4738C116.666 69.3943 116.661 69.3177 116.693 69.2404C116.725 69.1618 116.796 69.0806 116.906 68.9962C117.125 68.8273 117.491 68.6497 117.979 68.4493C118.466 68.2492 119.074 68.0265 119.777 67.7687C121.181 67.2531 122.962 66.5949 124.908 65.6827L124.901 65.6466C124.352 65.6331 123.625 65.7819 122.832 65.9825C122.038 66.1837 121.18 66.4367 120.364 66.6339C119.548 66.8309 118.778 66.9708 118.165 66.9464C117.555 66.9221 117.106 66.7359 116.915 66.2872C118.185 62.7421 121.001 59.4997 124.603 57.8107C125.496 57.3997 126.871 57.0412 128.444 56.7814C130.016 56.5216 131.783 56.36 133.457 56.3419Z" fill="#F2C4EB" stroke="#71A151" stroke-width="0.0377953"/>
<path d="M125.355 79.4308C127.03 79.4127 128.612 79.5378 129.814 79.8507C130.415 80.0072 130.92 80.2102 131.294 80.465C131.664 80.7176 131.905 81.0207 131.984 81.3781C130.017 84.3256 127.521 87.5786 124.622 90.1212C121.721 92.6656 118.42 94.4969 114.847 94.6056C112.108 93.9474 110.376 93.4801 109.439 93.0919C109.205 92.9949 109.021 92.9028 108.884 92.8146C108.746 92.7263 108.658 92.6421 108.611 92.5616C108.565 92.4822 108.56 92.4056 108.592 92.3282C108.624 92.2496 108.696 92.1686 108.805 92.0841C109.025 91.9152 109.391 91.7375 109.879 91.5372C110.366 91.3371 110.974 91.1153 111.677 90.8575C113.081 90.3421 114.861 89.6835 116.806 88.7716L116.799 88.7355C116.25 88.722 115.522 88.8708 114.73 89.0714C113.936 89.2725 113.079 89.5257 112.262 89.7228C111.447 89.9197 110.676 90.0598 110.063 90.0353C109.453 90.0108 109.003 89.8235 108.813 89.3741C110.043 85.9413 112.724 82.7917 116.165 81.0626L116.501 80.8995C117.393 80.4885 118.769 80.1301 120.342 79.8702C121.913 79.6104 123.68 79.4489 125.355 79.4308Z" fill="#F2C4EB" stroke="#71A151" stroke-width="0.0377953"/>
<path d="M133.457 90.6686C135.132 90.6505 136.715 90.7756 137.916 91.0885C138.517 91.245 139.022 91.448 139.396 91.7028C139.767 91.9556 140.006 92.2591 140.085 92.6168C138.118 95.5646 135.622 98.8175 132.724 101.36C129.823 103.905 126.522 105.736 122.949 105.844C120.21 105.187 118.477 104.72 117.54 104.332C117.306 104.235 117.123 104.143 116.986 104.055C116.848 103.967 116.759 103.883 116.712 103.802C116.666 103.723 116.661 103.645 116.693 103.568C116.725 103.489 116.796 103.408 116.906 103.324C117.125 103.155 117.491 102.977 117.979 102.777C118.466 102.577 119.074 102.354 119.777 102.096C121.181 101.58 122.962 100.922 124.908 100.009L124.901 99.9733C124.352 99.9598 123.625 100.109 122.832 100.31C122.038 100.511 121.18 100.763 120.364 100.961C119.548 101.158 118.778 101.298 118.165 101.274C117.555 101.25 117.106 101.063 116.915 100.614C118.185 97.0688 121.001 93.8264 124.603 92.1373C125.496 91.7264 126.871 91.3679 128.444 91.108C130.016 90.8482 131.783 90.6867 133.457 90.6686Z" fill="#F2C4EB" stroke="#71A151" stroke-width="0.0377953"/>
<path d="M109.572 157.545C111.247 157.527 112.829 157.652 114.031 157.965C114.631 158.121 115.136 158.324 115.51 158.579C115.881 158.832 116.12 159.135 116.199 159.493C114.233 162.44 111.736 165.693 108.838 168.235C105.937 170.78 102.636 172.612 99.0637 172.721C96.3244 172.062 94.5922 171.595 93.6555 171.207C93.4213 171.11 93.237 171.018 93.0999 170.93C92.9627 170.841 92.874 170.757 92.8274 170.677C92.7814 170.597 92.7761 170.521 92.8079 170.443C92.8403 170.365 92.912 170.284 93.0217 170.199C93.2411 170.03 93.6068 169.852 94.095 169.651C94.5827 169.451 95.1906 169.229 95.8928 168.972C97.2972 168.456 99.0782 167.798 101.024 166.886L101.016 166.849C100.467 166.836 99.7389 166.985 98.9465 167.185C98.1524 167.387 97.295 167.64 96.4788 167.837C95.6632 168.034 94.8937 168.174 94.2805 168.149C93.6698 168.125 93.22 167.938 93.0295 167.488C94.2991 163.944 97.1165 160.702 100.717 159.014C101.61 158.603 102.986 158.244 104.558 157.984C106.13 157.724 107.897 157.563 109.572 157.545Z" fill="#F2C4EB" stroke="#71A151" stroke-width="0.0377953"/>
<path d="M121.06 165.153C122.734 165.135 124.316 165.26 125.518 165.573C126.118 165.729 126.623 165.932 126.997 166.187C127.368 166.44 127.608 166.743 127.688 167.101C125.721 170.049 123.225 173.301 120.326 175.843C117.425 178.388 114.124 180.219 110.552 180.328C107.812 179.67 106.08 179.202 105.143 178.814C104.909 178.717 104.725 178.625 104.588 178.537C104.45 178.448 104.361 178.364 104.314 178.284C104.269 178.204 104.263 178.128 104.295 178.05C104.327 177.972 104.398 177.891 104.508 177.806C104.727 177.637 105.093 177.46 105.581 177.259C106.069 177.059 106.678 176.837 107.38 176.58C108.784 176.064 110.565 175.406 112.511 174.494L112.503 174.458C111.954 174.444 111.227 174.593 110.435 174.794C109.641 174.995 108.783 175.248 107.967 175.445C107.151 175.642 106.382 175.782 105.769 175.757C105.158 175.733 104.708 175.546 104.518 175.096C105.787 171.552 108.604 168.311 112.205 166.622C113.098 166.211 114.474 165.852 116.046 165.592C117.618 165.333 119.385 165.171 121.06 165.153Z" fill="#F2C4EB" stroke="#71A151" stroke-width="0.0377953"/>
<path d="M130.773 149.937C132.448 149.919 134.029 150.044 135.231 150.358C135.832 150.514 136.336 150.717 136.71 150.972C137.081 151.225 137.321 151.527 137.401 151.885C135.434 154.832 132.937 158.085 130.038 160.628C127.138 163.172 123.837 165.004 120.265 165.112C117.526 164.454 115.793 163.987 114.857 163.599C114.623 163.502 114.438 163.41 114.301 163.321C114.164 163.233 114.075 163.149 114.029 163.068C113.983 162.989 113.977 162.912 114.009 162.835C114.041 162.756 114.113 162.675 114.223 162.591C114.442 162.422 114.808 162.244 115.296 162.044C115.784 161.844 116.392 161.622 117.094 161.364C118.498 160.849 120.279 160.19 122.224 159.278L122.216 159.242C121.667 159.229 120.94 159.378 120.148 159.578C119.354 159.779 118.495 160.033 117.679 160.23C116.863 160.426 116.094 160.567 115.481 160.542C114.87 160.518 114.421 160.33 114.231 159.881C115.46 156.447 118.142 153.298 121.582 151.568L121.918 151.405C122.811 150.994 124.187 150.636 125.759 150.376C127.331 150.116 129.098 149.955 130.773 149.937Z" fill="#F2C4EB" stroke="#71A151" stroke-width="0.0377953"/>
<path d="M135.315 163.604C136.297 163.568 137.705 163.766 139.255 164.131C140.806 164.496 142.5 165.028 144.052 165.656C145.605 166.284 147.016 167.009 148.004 167.76C148.499 168.136 148.887 168.518 149.133 168.897C149.378 169.273 149.482 169.646 149.417 170.006C146.468 171.971 142.912 174.012 139.258 175.243C135.603 176.474 131.851 176.895 128.514 175.621C126.237 173.957 124.817 172.858 124.102 172.139C123.923 171.959 123.789 171.804 123.697 171.669C123.604 171.535 123.553 171.423 123.542 171.331C123.53 171.24 123.555 171.167 123.615 171.108C123.675 171.048 123.772 171 123.906 170.964C124.173 170.893 124.579 170.87 125.107 170.873C125.634 170.876 126.281 170.905 127.029 170.937C128.524 171.002 130.422 171.08 132.57 170.988L132.577 170.952C132.074 170.728 131.345 170.586 130.537 170.466C129.726 170.346 128.837 170.249 128.007 170.117C127.179 169.984 126.414 169.817 125.858 169.558C125.304 169.3 124.961 168.955 124.958 168.467C127.491 165.685 131.339 163.777 135.315 163.604Z" fill="#F2C4EB" stroke="#71A151" stroke-width="0.0377953"/>
<path d="M139.662 153.572C142.639 151.268 146.76 150.053 150.704 150.569C151.678 150.703 153.03 151.14 154.495 151.767C155.959 152.394 157.535 153.209 158.956 154.095C160.377 154.982 161.643 155.94 162.487 156.85C162.909 157.306 163.224 157.749 163.402 158.165C163.578 158.578 163.618 158.962 163.492 159.306C160.248 160.731 156.393 162.128 152.582 162.71C148.768 163.292 145 163.06 141.931 161.228C139.976 159.198 138.767 157.87 138.186 157.039C138.041 156.831 137.936 156.655 137.868 156.507C137.8 156.358 137.77 156.24 137.774 156.147C137.778 156.056 137.815 155.988 137.884 155.94C137.953 155.891 138.057 155.861 138.195 155.849C138.471 155.825 138.875 155.872 139.394 155.967C139.913 156.061 140.545 156.201 141.276 156.362C142.737 156.684 144.592 157.088 146.722 157.367L146.736 157.333C146.281 157.027 145.587 156.761 144.811 156.504C144.034 156.246 143.175 155.997 142.382 155.723C141.588 155.45 140.864 155.153 140.36 154.802C139.858 154.453 139.58 154.053 139.662 153.572Z" fill="#F2C4EB" stroke="#71A151" stroke-width="0.0377953"/>
<path d="M121.795 137.543C123.47 137.54 125.051 137.68 126.25 138.003C126.85 138.165 127.352 138.373 127.724 138.631C128.093 138.887 128.33 139.192 128.406 139.55C126.414 142.48 123.889 145.71 120.968 148.227C118.045 150.746 114.727 152.549 111.154 152.625C108.421 151.943 106.693 151.46 105.76 151.064C105.527 150.965 105.344 150.872 105.208 150.783C105.072 150.693 104.983 150.608 104.937 150.527C104.892 150.447 104.888 150.37 104.92 150.293C104.953 150.215 105.025 150.135 105.136 150.051C105.357 149.884 105.725 149.71 106.215 149.514C106.705 149.318 107.315 149.102 108.02 148.851C109.429 148.348 111.215 147.706 113.169 146.811L113.162 146.775C112.613 146.757 111.884 146.9 111.09 147.094C110.294 147.288 109.434 147.533 108.616 147.723C107.799 147.913 107.028 148.046 106.415 148.016C105.805 147.986 105.357 147.796 105.17 147.345C106.428 143.92 109.137 140.793 112.593 139.094L112.93 138.935C113.826 138.531 115.204 138.185 116.779 137.939C118.352 137.693 120.12 137.547 121.795 137.543Z" fill="#F2C4EB" stroke="#71A151" stroke-width="0.0377953"/>
<path d="M141.552 139.712C143.227 139.708 144.808 139.848 146.007 140.172C146.606 140.333 147.109 140.541 147.481 140.799C147.85 141.056 148.088 141.361 148.164 141.719C146.172 144.649 143.646 147.879 140.725 150.396C137.803 152.914 134.486 154.716 130.914 154.795C128.179 154.113 126.45 153.63 125.517 153.234C125.284 153.135 125.1 153.042 124.964 152.953C124.827 152.863 124.739 152.778 124.693 152.697C124.648 152.617 124.643 152.54 124.676 152.464C124.709 152.385 124.781 152.305 124.892 152.221C125.113 152.054 125.48 151.88 125.97 151.684C126.46 151.488 127.07 151.272 127.775 151.02C129.184 150.517 130.971 149.874 132.926 148.979L132.919 148.943C132.37 148.925 131.641 149.068 130.847 149.262C130.051 149.457 129.191 149.702 128.373 149.891C127.556 150.081 126.785 150.214 126.172 150.184C125.562 150.154 125.114 149.963 124.927 149.512C126.185 146.088 128.894 142.962 132.35 141.263L132.687 141.103C133.583 140.699 134.961 140.353 136.535 140.107C138.109 139.861 139.877 139.715 141.552 139.712Z" fill="#F2C4EB" stroke="#71A151" stroke-width="0.0377953"/>
<path d="M166.62 134.76C168.295 134.757 169.876 134.897 171.075 135.22C171.674 135.382 172.177 135.59 172.548 135.848C172.917 136.104 173.155 136.409 173.231 136.767C171.239 139.697 168.713 142.928 165.792 145.445C162.869 147.964 159.552 149.767 155.978 149.844C153.245 149.161 151.518 148.678 150.584 148.282C150.351 148.183 150.168 148.089 150.032 148C149.895 147.91 149.806 147.826 149.76 147.745C149.715 147.665 149.711 147.588 149.744 147.51C149.777 147.432 149.849 147.353 149.959 147.269C150.18 147.102 150.548 146.927 151.038 146.731C151.527 146.535 152.138 146.32 152.842 146.068C154.252 145.565 156.039 144.923 157.994 144.028L157.987 143.992C157.438 143.975 156.709 144.117 155.915 144.311C155.119 144.506 154.259 144.751 153.441 144.941C152.623 145.131 151.852 145.263 151.239 145.233C150.629 145.203 150.181 145.013 149.995 144.562C151.293 141.027 154.137 137.81 157.754 136.152V136.153C158.65 135.749 160.029 135.402 161.603 135.156C163.177 134.91 164.945 134.764 166.62 134.76Z" fill="#F2C4EB" stroke="#71A151" stroke-width="0.0377953"/>
<path d="M137.146 120.348C138.821 120.345 140.402 120.485 141.601 120.808C142.201 120.97 142.704 121.178 143.076 121.436C143.444 121.692 143.681 121.997 143.757 122.355C141.765 125.285 139.241 128.515 136.32 131.032C133.396 133.551 130.079 135.354 126.504 135.431C123.772 134.75 122.044 134.267 121.111 133.871C120.878 133.772 120.694 133.679 120.558 133.59C120.422 133.5 120.332 133.415 120.287 133.334C120.242 133.254 120.238 133.177 120.27 133.1C120.303 133.022 120.375 132.942 120.486 132.858C120.707 132.691 121.075 132.516 121.565 132.32C122.055 132.124 122.665 131.908 123.37 131.656C124.779 131.153 126.566 130.511 128.521 129.616L128.513 129.58C127.964 129.562 127.235 129.705 126.441 129.899C125.645 130.093 124.785 130.338 123.967 130.528C123.15 130.718 122.379 130.851 121.766 130.821C121.155 130.791 120.707 130.6 120.521 130.149C121.819 126.614 124.664 123.398 128.282 121.74L128.281 121.739C129.177 121.335 130.555 120.99 132.129 120.744C133.703 120.498 135.471 120.352 137.146 120.348Z" fill="#F2C4EB" stroke="#71A151" stroke-width="0.0377953"/>
<path d="M152.661 102.268C154.336 102.265 155.917 102.404 157.116 102.728C157.716 102.89 158.219 103.098 158.591 103.356C158.959 103.612 159.197 103.917 159.273 104.275C157.281 107.205 154.756 110.436 151.835 112.953C148.913 115.471 145.596 117.273 142.023 117.351C139.289 116.669 137.56 116.187 136.626 115.791C136.393 115.692 136.21 115.598 136.073 115.508C135.937 115.419 135.848 115.334 135.802 115.253C135.756 115.173 135.752 115.096 135.785 115.019C135.818 114.941 135.891 114.86 136.001 114.777C136.222 114.61 136.59 114.436 137.08 114.24C137.57 114.044 138.18 113.827 138.885 113.576C140.294 113.073 142.081 112.429 144.036 111.535L144.028 111.499C143.479 111.481 142.75 111.625 141.956 111.819C141.16 112.013 140.3 112.258 139.482 112.448C138.665 112.637 137.894 112.771 137.281 112.741C136.67 112.711 136.222 112.519 136.036 112.068C137.334 108.533 140.178 105.316 143.796 103.659C144.692 103.255 146.07 102.91 147.645 102.664C149.218 102.418 150.986 102.271 152.661 102.268Z" fill="#F2C4EB" stroke="#71A151" stroke-width="0.0377953"/>
<path d="M166.753 158.435C170.362 157.355 174.643 157.706 178.138 159.606V159.605C178.998 160.081 180.102 160.977 181.243 162.09C182.384 163.202 183.561 164.53 184.567 165.868C185.574 167.206 186.41 168.555 186.87 169.709C187.1 170.285 187.235 170.812 187.251 171.264C187.267 171.714 187.165 172.087 186.923 172.363C183.383 172.524 179.284 172.44 175.519 171.611C171.867 170.808 168.532 169.306 166.323 166.654L166.113 166.393C165.021 163.797 164.372 162.125 164.13 161.141C164.069 160.895 164.035 160.693 164.024 160.53C164.014 160.367 164.028 160.246 164.065 160.161C164.102 160.077 164.162 160.027 164.243 160.007C164.326 159.986 164.433 159.997 164.565 160.035C164.831 160.112 165.192 160.3 165.643 160.575C166.093 160.849 166.632 161.208 167.256 161.621C168.503 162.447 170.089 163.492 171.977 164.519L172.001 164.492C171.687 164.042 171.136 163.544 170.505 163.024C169.872 162.503 169.16 161.962 168.518 161.421C167.876 160.88 167.307 160.342 166.963 159.834C166.621 159.327 166.504 158.854 166.753 158.435Z" fill="#F2C4EB" stroke="#71A151" stroke-width="0.0377953"/>
<path d="M86.894 102.26C87.3575 102.175 87.7514 102.245 88.0562 102.502C88.5081 106.836 88.7483 111.896 88.1899 116.654C87.6312 121.414 86.2734 125.869 83.5327 128.992C80.9278 130.717 79.2458 131.76 78.2446 132.202C77.9944 132.313 77.7874 132.386 77.6196 132.422C77.4519 132.458 77.3255 132.458 77.2349 132.425C77.1456 132.392 77.088 132.327 77.0601 132.228C77.0318 132.128 77.0338 131.992 77.063 131.823C77.1214 131.483 77.289 131.011 77.5376 130.416C77.7861 129.822 78.1144 129.106 78.4927 128.278C79.2491 126.621 80.2052 124.518 81.1187 122.044L81.0874 122.025C80.6466 122.478 80.1748 123.229 79.687 124.082C79.1985 124.936 78.6941 125.892 78.1851 126.761C77.6762 127.63 77.1647 128.409 76.6646 128.906C76.4146 129.155 76.1685 129.333 75.9282 129.416C75.6907 129.499 75.4586 129.49 75.2319 129.367C73.8271 125.083 73.844 119.762 75.5366 115.18C76.385 112.921 78.8996 109.22 81.5142 106.351C82.8214 104.916 84.1531 103.691 85.312 102.956C85.8916 102.589 86.4271 102.346 86.894 102.26Z" fill="#F2C4EB" stroke="#71A151" stroke-width="0.0377953"/>
<path d="M92.7664 128.237C93.2372 128.233 93.6135 128.37 93.8699 128.675C93.5733 133.021 92.9449 138.047 91.5808 142.64C90.2163 147.233 88.1176 151.391 84.8845 154C82.0218 155.253 80.1851 155.994 79.1228 156.258C78.8575 156.324 78.6409 156.359 78.4695 156.366C78.2979 156.373 78.1733 156.351 78.0896 156.303C78.0074 156.255 77.9625 156.181 77.9519 156.079C77.9412 155.975 77.9654 155.842 78.0232 155.68C78.1388 155.355 78.3855 154.919 78.7322 154.376C79.0786 153.833 79.5245 153.183 80.0388 152.432C81.0674 150.931 82.3687 149.022 83.6921 146.743L83.6648 146.719C83.1526 147.09 82.559 147.748 81.9324 148.505C81.3047 149.263 80.6443 150.118 79.9939 150.888C79.3438 151.657 78.7064 152.337 78.1287 152.742C77.8399 152.944 77.567 153.077 77.3162 153.118C77.0684 153.159 76.8415 153.11 76.6394 152.951C75.9834 148.491 76.9121 143.251 79.363 139.024L79.364 139.025C80.5886 136.944 83.6996 133.728 86.7664 131.349C88.2997 130.159 89.8212 129.178 91.0886 128.653C91.7223 128.391 92.2916 128.242 92.7664 128.237Z" fill="#F2C4EB" stroke="#71A151" stroke-width="0.0377953"/>
<path d="M118.471 110.529C118.937 110.459 119.329 110.542 119.625 110.808C119.934 115.155 120.008 120.221 119.295 124.958C118.582 129.697 117.08 134.106 114.239 137.139C111.578 138.777 109.863 139.766 108.848 140.175C108.594 140.277 108.385 140.342 108.216 140.373C108.047 140.404 107.92 140.399 107.83 140.363C107.742 140.327 107.688 140.26 107.663 140.16C107.638 140.059 107.644 139.924 107.679 139.755C107.748 139.417 107.932 138.951 108.199 138.365C108.467 137.779 108.819 137.073 109.224 136.258C110.034 134.627 111.059 132.555 112.054 130.113L112.023 130.093C111.568 130.531 111.072 131.266 110.557 132.102C110.041 132.94 109.505 133.879 108.968 134.731C108.431 135.583 107.894 136.345 107.378 136.826C107.12 137.067 106.868 137.236 106.625 137.311C106.385 137.386 106.153 137.371 105.931 137.241C104.668 132.917 104.858 127.597 106.698 123.072C107.62 120.841 110.255 117.225 112.961 114.442C114.314 113.051 115.684 111.87 116.866 111.174C117.458 110.826 118.001 110.6 118.471 110.529Z" fill="#F2C4EB" stroke="#71A151" stroke-width="0.0377953"/>
<path d="M12.7562 158.929C16.1318 156.727 19.9085 155.459 23.8812 156.272C26.8842 157.759 28.78 158.76 29.7972 159.458C30.0514 159.633 30.2505 159.789 30.3978 159.928C30.5453 160.067 30.6403 160.189 30.6879 160.297C30.7351 160.404 30.7359 160.497 30.6957 160.578C30.6549 160.661 30.5705 160.736 30.4437 160.806C30.19 160.945 29.7726 161.056 29.2181 161.161C28.6643 161.266 27.9756 161.365 27.1801 161.481C25.5884 161.713 23.5693 162.013 21.3519 162.565V162.601C21.9608 162.76 22.7778 162.778 23.6703 162.752C24.5647 162.727 25.533 162.658 26.4515 162.643C27.3691 162.628 28.2319 162.668 28.9115 162.858C29.588 163.047 30.0791 163.383 30.264 163.961C28.6429 167.757 25.3174 170.795 21.2133 171.817C20.1973 172.062 18.6484 172.118 16.8871 172.008C15.126 171.898 13.154 171.621 11.2933 171.201C9.43245 170.782 7.68324 170.219 6.36755 169.538C5.70987 169.198 5.16138 168.828 4.76111 168.432C4.36302 168.038 4.11221 167.62 4.04626 167.179C6.40995 164.262 9.38244 161.129 12.7562 158.929Z" fill="#F2C4EB" stroke="#71A151" stroke-width="0.0377953"/>
<path d="M34.1847 172.703C38.5055 172.722 42.6349 173.896 45.714 177.203C47.5256 180.543 48.6331 182.711 49.132 184.031C49.2566 184.361 49.3428 184.637 49.3927 184.865C49.4427 185.093 49.4557 185.272 49.4347 185.407C49.4138 185.542 49.36 185.632 49.2755 185.686C49.1901 185.74 49.0704 185.759 48.9161 185.746C48.6073 185.719 48.1687 185.562 47.6105 185.312C47.0527 185.061 46.3775 184.719 45.5968 184.326C44.0357 183.54 42.0529 182.548 39.7433 181.673L39.6759 181.647L39.7218 181.703C40.1729 182.243 40.8946 182.778 41.7091 183.319C42.5251 183.862 43.4333 184.409 44.2648 184.978C45.0954 185.545 45.8459 186.131 46.3429 186.746C46.8378 187.358 47.0788 187.997 46.9025 188.675C43.2111 191.307 38.4423 192.123 34.1652 190.507H34.1661C33.1117 190.098 31.6906 189.17 30.1779 187.945C28.6655 186.721 27.0622 185.203 25.6427 183.617C24.2231 182.032 22.9873 180.379 22.2101 178.887C21.8217 178.141 21.5482 177.436 21.423 176.8C21.2985 176.167 21.3204 175.603 21.5216 175.135C25.3578 173.82 29.8661 172.685 34.1847 172.703Z" fill="#9932CC" stroke="#71A151" stroke-width="0.0377953"/>
<path d="M121.992 156.031C125.735 158.438 126.308 162.427 125.128 166.098C123.946 169.775 121.005 173.127 117.738 174.242C115.987 171.463 114.66 167.731 114.731 164.342C114.767 162.645 115.154 161.035 116.012 159.672C116.869 158.311 118.198 157.196 120.122 156.491C120.489 156.534 120.716 156.834 120.855 157.291C120.995 157.748 121.046 158.355 121.065 158.996C121.075 159.316 121.078 159.645 121.08 159.966C121.082 160.288 121.084 160.603 121.094 160.896C121.103 161.189 121.12 161.462 121.151 161.699C121.183 161.935 121.231 162.137 121.301 162.289L121.322 162.335L121.336 162.285C121.9 160.199 122.038 158.126 121.992 156.031Z" fill="#9932CC" stroke="#71A151" stroke-width="0.0377953"/>
<path d="M3.82129 122.672C3.91182 122.644 4.0181 122.667 4.16699 122.739C4.24138 122.775 4.32527 122.823 4.42188 122.883L4.75293 123.094C8.04471 125.157 11.5078 128.308 13.5166 131.929C15.5249 135.548 16.0791 139.634 13.5566 143.572L13.5547 143.575C13.2608 144.252 12.9782 144.757 12.7051 145.118C12.432 145.479 12.1695 145.694 11.916 145.793C11.4118 145.99 10.9333 145.73 10.4629 145.211C9.9931 144.692 9.53746 143.921 9.08203 143.11C8.627 142.3 8.17119 141.451 7.70312 140.782L7.66992 140.796C8.07162 143.226 9.11982 145.391 10.3408 147.52C7.41048 147.19 5.16649 146.06 3.53125 144.419C1.88882 142.771 0.859099 140.606 0.366211 138.218C-0.61964 133.44 0.541271 127.769 3.22852 123.549L3.41016 123.185C3.46374 123.082 3.51175 122.995 3.55762 122.923C3.64974 122.778 3.73046 122.699 3.82129 122.672Z" fill="#9932CC" stroke="#71A151" stroke-width="0.0377953"/>
<path d="M87.7361 78.7562C92.6391 78.3996 97.8287 78.2016 102.329 80.4027L102.762 80.6244C107.469 83.048 108.803 88.2086 108.355 93.1176C108.218 93.1778 108.063 93.1724 107.89 93.1107C107.714 93.0474 107.52 92.9266 107.314 92.7631C106.902 92.4359 106.44 91.9416 105.954 91.4086C105.468 90.876 104.957 90.3049 104.448 89.8265C103.939 89.3486 103.43 88.9607 102.944 88.7963L102.924 88.8265C104.534 90.528 105.468 91.8324 105.855 92.8158C106.049 93.3073 106.104 93.7174 106.041 94.056C105.978 94.3941 105.796 94.6637 105.51 94.8734C104.934 95.294 103.937 95.4753 102.641 95.4896C101.347 95.5039 99.7582 95.3511 98.0007 95.1078C95.1908 94.0854 92.1814 91.2729 90.0964 88.0746C89.054 86.4755 88.2437 84.7804 87.8044 83.1664C87.3665 81.557 87.2978 80.0293 87.7361 78.7562Z" fill="#9932CC" stroke="#71A151" stroke-width="0.0377953"/>
<path d="M30.4292 102.569C32.8902 104.14 35.2975 106.768 36.6392 109.725C37.9415 112.595 38.239 115.774 36.6099 118.598L36.4458 118.87C35.7425 119.969 35.193 120.613 34.7397 120.913C34.5135 121.063 34.3124 121.127 34.1294 121.12C33.9465 121.114 33.7785 121.037 33.6187 120.902C33.2979 120.629 33.0127 120.123 32.7065 119.486C32.4012 118.85 32.0751 118.086 31.6733 117.306L31.6372 117.316C31.6862 118.219 31.9017 119.037 32.1519 119.845C32.399 120.643 32.6789 121.43 32.8706 122.28C31.5233 121.831 30.4232 121.196 29.4341 120.401H29.4331C26.3771 118.101 25.7765 114.948 26.3657 111.715C26.9539 108.488 28.7281 105.181 30.4292 102.569Z" fill="#9932CC" stroke="#71A151" stroke-width="0.0377953"/>
<path d="M55.6172 45.3375C58.2093 47.4682 60.7283 50.6389 61.8145 53.9615C62.3582 55.6251 62.5428 57.3261 62.1982 58.9537C61.8537 60.5813 60.9797 62.1371 59.4053 63.5094L59.4043 63.5104C59.2025 63.7211 59.0179 63.8348 58.8486 63.8727C58.6801 63.9104 58.5238 63.8733 58.377 63.7789C58.2297 63.6842 58.0919 63.531 57.9609 63.3375C57.8301 63.1442 57.7069 62.9112 57.5889 62.6569C57.3526 62.1477 57.138 61.5567 56.9238 61.0309C56.8169 60.7683 56.71 60.5217 56.6006 60.3112C56.4914 60.1009 56.3789 59.9246 56.2607 59.8033L56.2197 59.7614L56.2285 59.8199C56.4709 61.4122 56.8363 62.9732 57.3564 64.4957V64.4967L57.3613 64.5026C57.4925 64.6596 57.5669 64.7776 57.5977 64.8629C57.613 64.9055 57.6164 64.9386 57.6123 64.9635C57.6083 64.9876 57.5967 65.0054 57.5781 65.0182C57.5589 65.0314 57.5313 65.0401 57.4951 65.0436C57.4591 65.0471 57.4157 65.0454 57.3662 65.0387C57.2669 65.0253 57.1444 64.9925 57.0107 64.9459C56.7437 64.8528 56.4323 64.705 56.165 64.5514C56.0314 64.4746 55.9086 64.3966 55.8086 64.3229C55.7084 64.249 55.6314 64.1799 55.5879 64.1227L55.5898 64.1217L55.582 64.1178L55.2363 63.9381C51.7452 62.0337 50.5938 58.5599 50.9111 54.9977C51.2383 51.3256 53.1259 47.5623 55.6172 45.3375Z" fill="#9932CC" stroke="#71A151" stroke-width="0.0377953"/>
<path d="M135.88 75.3212C139.935 78.2565 143.358 82.9181 144.445 87.6503C144.988 90.0174 144.947 92.402 144.109 94.5966C143.273 96.7834 141.644 98.7825 139.011 100.391C138.937 99.1956 138.999 98.0222 139.012 96.8612C139.026 95.6902 138.991 94.5323 138.719 93.3827L138.706 93.3221L138.683 93.3807C138.537 93.7758 138.462 94.3651 138.401 95.0214C138.339 95.6789 138.292 96.4049 138.203 97.077C138.113 97.7494 137.981 98.365 137.753 98.8016C137.64 99.0196 137.503 99.1918 137.335 99.3046C137.169 99.4166 136.972 99.4708 136.737 99.451C133.7 97.9711 131.161 95.6598 130.129 92.3778C129.654 89.8147 129.939 85.9653 130.921 82.5477C131.413 80.8391 132.078 79.2393 132.91 77.9628C133.739 76.6898 134.732 75.7388 135.88 75.3212Z" fill="#9932CC" stroke="#71A151" stroke-width="0.0377953"/>
<path d="M163.954 83.3082C168.702 80.9787 174.765 80.7482 178.846 83.0651C177.885 87.4861 175.318 92.3298 171.78 95.402C170.01 96.9394 167.997 98.033 165.822 98.4088C163.65 98.7842 161.314 98.4429 158.895 97.1119C158.782 96.6477 158.911 96.173 159.188 95.693C159.466 95.2099 159.892 94.7232 160.365 94.2408C160.602 93.9998 160.85 93.76 161.098 93.5221C161.345 93.2843 161.591 93.048 161.823 92.8151C162.287 92.3494 162.698 91.8942 162.95 91.4576L162.983 91.4L162.925 91.4323C160.642 92.6607 158.839 94.4077 156.956 96.1168C155.784 90.0546 159.21 85.6355 163.954 83.3082Z" fill="#9932CC" stroke="#71A151" stroke-width="0.0377953"/>
<path d="M176.573 113.916C177.58 113.214 178.53 112.96 179.381 113.49C179.808 113.756 180.212 114.219 180.586 114.928C180.96 115.637 181.304 116.589 181.611 117.829L181.61 117.83L181.612 117.833C183.499 121.905 183.717 126.446 182.263 130.18C180.812 133.905 177.697 136.827 172.911 137.685C173.887 135.382 174.857 133.297 175.344 131.017L175.308 131.006C174.64 132.669 173.979 133.839 173.343 134.602C172.707 135.365 172.098 135.719 171.537 135.757C170.977 135.796 170.459 135.519 170.001 135.007C169.544 134.496 169.149 133.751 168.837 132.858C168.214 131.072 167.924 128.699 168.123 126.43C168.31 124.303 168.928 122.27 170.102 120.899L170.344 120.633C171.347 119.567 172.402 118.237 173.456 117C174.512 115.763 175.567 114.617 176.573 113.916Z" fill="#9932CC" stroke="#71A151" stroke-width="0.0377953"/>
<path d="M152.576 123.115C153.52 124.355 154.086 126.13 154.285 128.134C154.485 130.143 154.318 132.381 153.798 134.538C152.759 138.855 150.311 142.843 146.581 144.039C144.144 144.562 142.502 144.899 141.479 145.017C140.966 145.076 140.611 145.079 140.389 145.025C140.278 144.998 140.203 144.957 140.157 144.904C140.112 144.851 140.095 144.783 140.103 144.698C140.111 144.613 140.146 144.51 140.206 144.39C140.267 144.27 140.353 144.134 140.46 143.98C140.676 143.672 140.98 143.295 141.351 142.847C142.092 141.95 143.099 140.765 144.195 139.257L144.169 139.23C143.751 139.495 143.301 139.892 142.835 140.329C142.369 140.767 141.885 141.246 141.398 141.68C140.911 142.114 140.421 142.501 139.942 142.756C139.465 143.009 139.001 143.129 138.562 143.035C137.311 140.525 137.011 138.166 137.401 136.006C137.791 133.843 138.873 131.876 140.388 130.154C143.416 126.711 148.172 124.241 152.576 123.115Z" fill="#9932CC" stroke="#71A151" stroke-width="0.0377953"/>
<path d="M134.385 160.4C138.01 159.001 141.612 160.148 144.629 162.465C147.458 164.637 149.772 167.838 151.106 170.928L151.36 171.544C151.45 172.034 151.761 172.759 152.134 173.578C152.509 174.4 152.946 175.318 153.29 176.195C153.635 177.073 153.884 177.906 153.884 178.559C153.884 178.884 153.821 179.163 153.679 179.379C153.554 179.568 153.367 179.711 153.104 179.796L152.987 179.828C148.872 180.255 144.137 180.38 139.902 179.344C135.666 178.308 131.931 176.111 129.819 171.899C128.743 169.204 128.326 167.443 128.406 166.353C128.446 165.808 128.61 165.433 128.875 165.192C129.141 164.951 129.511 164.841 129.968 164.832C130.884 164.815 132.141 165.204 133.583 165.74C135.024 166.276 136.649 166.96 138.296 167.526L138.315 167.495C135.669 164.953 132.284 163.363 128.837 162.087C129.752 161.838 130.646 161.36 131.546 160.973C132.466 160.577 133.396 160.273 134.375 160.4V160.404L134.385 160.4Z" fill="#9932CC" stroke="#71A151" stroke-width="0.0377953"/>
<path d="M35.976 80.4031C38.9974 77.8422 44.3025 76.3872 49.1644 76.8572C53.8804 77.3131 58.1735 79.5795 59.5638 84.3982L59.6898 84.8728L59.6908 84.8757C59.9879 85.5914 60.1588 86.1228 60.226 86.5056C60.2934 86.8899 60.2552 87.1182 60.1429 87.2351C60.0314 87.3512 59.8388 87.3654 59.5765 87.2996C59.3157 87.234 58.993 87.0906 58.6293 86.905C58.2658 86.7196 57.8626 86.4922 57.4408 86.2576C57.0191 86.023 56.579 85.7813 56.142 85.5681C55.705 85.3549 55.2705 85.1697 54.8607 85.0486C54.4512 84.9275 54.0648 84.8703 53.724 84.9128L53.6752 84.9187L53.7152 84.947C54.2835 85.3467 54.832 85.7122 55.3422 86.0515C55.8523 86.3908 56.3244 86.7035 56.7406 86.9968C57.1569 87.2902 57.5167 87.5644 57.8031 87.8259C58.0896 88.0876 58.3014 88.3362 58.4222 88.5789C58.5428 88.8209 58.5729 89.0568 58.4965 89.2947C58.4197 89.5333 58.2344 89.7765 57.9213 90.031C57.2948 90.5402 56.1603 91.0896 54.3724 91.7371C50.3277 93.0815 46.6376 91.8281 43.5023 89.446C40.371 87.0669 37.7951 83.5629 35.976 80.4031Z" fill="#9932CC" stroke="#71A151" stroke-width="0.0377953"/>
<path d="M94.2507 101.424C98.5333 101.863 103.492 102.863 107.594 104.976C111.697 107.09 114.941 110.318 115.797 115.215C116.29 118.24 115.608 121.015 114.781 124.123C113.034 120.742 111.115 117.72 108.203 115.449L108.176 115.474C110.011 118.34 111.394 121.415 112.506 124.633C107.103 125.965 102.667 124.071 99.5007 120.606C96.3305 117.137 94.4338 112.095 94.1199 107.145C94.1438 106.835 94.0833 106.335 93.9998 105.76C93.9161 105.183 93.8089 104.528 93.74 103.903C93.6711 103.279 93.6405 102.687 93.7078 102.236C93.7752 101.785 93.9388 101.484 94.2507 101.424Z" fill="#9932CC" stroke="#71A151" stroke-width="0.0377953"/>
<path d="M43.5068 104.556C47.5868 104.307 52.3065 104.444 56.4434 105.725C60.5796 107.005 64.1319 109.428 65.8828 113.749C66.2876 114.988 66.7138 116.662 66.8896 118.3C67.0643 119.926 66.9902 121.513 66.4062 122.605C64.1887 120.088 61.9236 117.339 58.7734 115.96L58.7158 115.935L58.75 115.987C58.9756 116.341 59.5163 116.972 60.1719 117.733C60.8283 118.496 61.6013 119.39 62.292 120.272C62.9828 121.155 63.5904 122.024 63.918 122.734C64.0817 123.09 64.1746 123.404 64.1738 123.659C64.173 123.913 64.0787 124.108 63.8701 124.23C57.9567 126.6 52.9383 124.678 49.1943 120.878C45.4489 117.076 42.9797 111.395 42.1719 106.255H42.1729L42.1719 106.254C42.0859 105.841 42.0234 105.531 42.0029 105.297C41.9824 105.063 42.0052 104.91 42.0859 104.807C42.1667 104.704 42.3088 104.646 42.54 104.611C42.6555 104.594 42.7922 104.582 42.9521 104.574L43.5068 104.556Z" fill="#9932CC" stroke="#71A151" stroke-width="0.0377953"/>
<path d="M79.04 57.6686C79.3381 57.6966 79.5945 57.9167 79.8232 58.2389C80.0518 58.5609 80.25 58.9819 80.4326 59.403C80.6149 59.823 80.7824 60.2447 80.9482 60.566V60.567C83.2652 64.3595 85.0868 69.2887 85.1758 73.9283C85.2647 78.5671 83.6217 82.9138 79.0137 85.5504C78.8017 85.6034 78.5277 85.7744 78.2334 85.9742C77.9353 86.1767 77.6146 86.4105 77.3105 86.5914C77.1588 86.6817 77.0115 86.7584 76.874 86.8112C76.7364 86.8639 76.6097 86.8927 76.498 86.8873C76.387 86.882 76.2908 86.8432 76.2129 86.7614C76.1345 86.6789 76.0736 86.5507 76.0361 86.3649L76.0352 86.3639C75.2858 83.3022 75.0427 80.1176 74.8291 77.0358L74.792 77.0319C73.8679 80.4905 73.6554 83.9995 74.0742 87.7789C69.0237 83.9679 65.4079 77.5054 68.0762 71.483L68.209 71.1959L68.21 71.193C69.7331 66.2994 73.3983 62.301 77.2158 58.9332L77.9805 58.2682L77.9824 58.2662C78.3947 57.8039 78.7422 57.6407 79.04 57.6686Z" fill="#9932CC" stroke="#71A151" stroke-width="0.0377953"/>
<path d="M27.7791 132.037C31.2467 132.077 34.5779 133.004 37.2175 135.564V135.565C39.4544 137.918 40.3871 141.213 40.7078 144.375C40.7155 144.458 40.7108 144.518 40.698 144.56C40.6853 144.602 40.6645 144.625 40.6384 144.636C40.6113 144.648 40.5748 144.648 40.5291 144.637C40.4839 144.627 40.4318 144.605 40.3738 144.577C38.5604 142.963 36.4473 141.831 34.28 140.779L34.2576 140.809C34.4564 141.029 34.9033 141.414 35.446 141.877C35.9895 142.342 36.631 142.887 37.2195 143.429C37.8081 143.972 38.3426 144.512 38.6755 144.964C38.8421 145.191 38.9575 145.394 39.0037 145.564C39.0496 145.733 39.0262 145.866 38.9236 145.958C35.3601 148.055 31.671 148.906 27.7156 147.12V147.119L27.7126 147.118L27.5564 147.073C27.185 146.952 26.757 146.727 26.2908 146.418C25.7579 146.066 25.1758 145.604 24.573 145.065C23.3674 143.987 22.0788 142.599 20.9314 141.154C19.7839 139.708 18.7781 138.205 18.1375 136.897C17.8172 136.243 17.588 135.638 17.4783 135.114C17.3693 134.593 17.3791 134.153 17.53 133.824C20.7129 132.84 24.3139 131.996 27.7791 132.037Z" fill="#9932CC" stroke="#71A151" stroke-width="0.0377953"/>
<path d="M95.4795 168.683C99.3901 166.013 104.922 164.919 109.941 165.188C110.202 165.318 110.365 165.592 110.446 165.98C110.528 166.369 110.525 166.87 110.457 167.448C110.32 168.606 109.92 170.07 109.405 171.559C108.89 173.047 108.262 174.561 107.666 175.817C107.07 177.073 106.509 178.069 106.132 178.527L106.131 178.528C104.751 180.519 103.1 181.901 101.199 182.681C99.298 183.461 97.1443 183.64 94.7568 183.223V183.222H94.7529C94.2111 183.23 93.8124 183.161 93.5312 183.031C93.2511 182.903 93.0871 182.714 93.0127 182.482C92.938 182.248 92.9527 181.968 93.0342 181.656C93.1156 181.345 93.2635 181.002 93.4531 180.645C93.8324 179.93 94.3774 179.157 94.8887 178.451C95.3992 177.747 95.8772 177.108 96.1191 176.664L96.1367 176.632L96.1006 176.636C96.0173 176.645 95.9233 176.681 95.8213 176.739C95.7191 176.798 95.6074 176.88 95.4883 176.98C95.25 177.179 94.9803 177.455 94.6934 177.775C94.119 178.414 93.4734 179.232 92.873 179.98C92.2722 180.728 91.7164 181.404 91.3193 181.762C91.2202 181.851 91.1321 181.921 91.0557 181.966C90.9785 182.011 90.9159 182.03 90.8691 182.026C90.8465 182.023 90.8268 182.015 90.8105 182.001C90.7941 181.987 90.7798 181.965 90.7686 181.935C90.7459 181.874 90.7371 181.781 90.7451 181.651L90.7256 181.65L90.7461 181.651L90.7441 181.645C90.0114 178.621 90.2179 176.048 91.0957 173.898C91.9735 171.747 93.5239 170.018 95.4795 168.683Z" fill="#9932CC" stroke="#71A151" stroke-width="0.0377953"/>
<path d="M33.5669 56.4603C35.9914 56.4475 38.2963 56.9891 40.2241 58.2592C42.1515 59.5289 43.7033 61.5275 44.6216 64.432L44.6157 64.4349L44.6313 64.4437C44.9019 64.5925 44.9798 64.8551 45.0737 65.1595C44.051 64.9951 42.9915 64.6325 41.9175 64.3041C40.8336 63.9727 39.7351 63.6773 38.6499 63.6615L38.6089 63.6605L38.6353 63.6927C38.7354 63.8122 38.9164 63.937 39.1489 64.0668C39.382 64.1968 39.6694 64.3325 39.9849 64.473C40.6172 64.7546 41.3627 65.0554 42.0171 65.3666C42.3438 65.522 42.6471 65.68 42.9019 65.8392C43.1568 65.9986 43.362 66.1583 43.4927 66.3177C43.6233 66.4772 43.6781 66.634 43.6382 66.7875C43.608 66.9032 43.5234 67.0208 43.3706 67.139L43.1938 67.2562L43.189 67.2621C40.2572 71.1751 36.14 71.9805 32.0923 71.0502C28.2966 70.1777 24.563 67.7788 21.9302 64.9877L21.4185 64.4242C21.2862 64.2533 21.0591 64.0541 20.8081 63.8392C20.5559 63.6233 20.278 63.391 20.0415 63.1537C19.8048 62.9161 19.6118 62.6749 19.5269 62.4427C19.4845 62.3271 19.4696 62.214 19.4888 62.1049C19.5079 61.9966 19.5611 61.8907 19.6577 61.7885C23.3924 58.7294 28.7175 56.486 33.5669 56.4603Z" fill="#9932CC" stroke="#71A151" stroke-width="0.0377953"/>
<path d="M17.4585 158.025C19.0855 157.969 20.7755 158.429 22.4741 159.592H22.4751C23.2149 160.046 23.9207 160.549 24.6841 161.346C22.6953 161.45 20.959 161.765 19.269 162.47L19.2144 162.493L19.2729 162.506C19.5536 162.567 20.0045 162.543 20.519 162.497C21.0351 162.451 21.6167 162.382 22.1636 162.352C22.7108 162.321 23.2204 162.33 23.5903 162.437C23.7751 162.49 23.9236 162.568 24.0249 162.676C24.1004 162.757 24.1506 162.855 24.1694 162.975L24.1772 163.103C23.7034 165.156 22.7397 166.679 21.4624 167.764C20.184 168.85 18.5902 169.498 16.8569 169.798C13.3901 170.398 9.36661 169.605 6.19873 168.144V168.143H6.19775C5.98968 168.065 5.8862 167.98 5.85596 167.875C5.8331 167.795 5.85065 167.699 5.90479 167.576L5.97119 167.446C7.48963 164.488 9.91892 161.36 12.8169 159.555C14.2656 158.652 15.8312 158.08 17.4585 158.025Z" fill="#9932CC" stroke="#71A151" stroke-width="0.0377953"/>
<path d="M126.964 59.6429C129.215 59.6521 131.508 59.7224 133.7 60.1586L134.138 60.2513C134.346 60.3436 134.474 60.5136 134.535 60.7455C134.597 60.9794 134.591 61.276 134.533 61.6176C134.418 62.3007 134.095 63.157 133.697 64.0355C133.3 64.9137 132.828 65.8131 132.416 66.5814C132.004 67.3492 131.651 67.9877 131.492 68.3431C129.671 71.8864 127.143 74.3217 124.254 75.4945C121.364 76.6673 118.111 76.5786 114.84 75.0726H114.841C114.679 74.9869 114.592 74.8665 114.562 74.7191C114.533 74.5705 114.561 74.3921 114.636 74.1927C114.785 73.794 115.116 73.3179 115.511 72.8344C115.905 72.3511 116.362 71.8622 116.764 71.4398C117.164 71.0184 117.509 70.6611 117.679 70.4427L117.68 70.4437C117.982 70.0913 118.285 69.7375 118.629 69.3344L118.669 69.2875L118.609 69.3041C117.551 69.6023 116.549 70.3756 115.674 71.2025C115.236 71.6162 114.83 72.0439 114.464 72.433C114.098 72.8222 113.772 73.1721 113.496 73.432C113.358 73.5619 113.233 73.6688 113.121 73.7465C113.009 73.8243 112.913 73.8721 112.832 73.8851C112.753 73.8978 112.69 73.8772 112.64 73.8187C112.588 73.7587 112.55 73.6569 112.527 73.5033C112.483 73.1961 112.504 72.6935 112.602 71.9418C112.699 71.1905 112.872 70.1918 113.13 68.8939V68.8929C113.566 65.8161 115.561 63.3741 118.169 61.7914C120.777 60.2086 123.996 59.4861 126.875 59.848H126.877C126.88 59.848 126.884 59.8483 126.889 59.849C126.893 59.8497 126.899 59.851 126.905 59.851H126.934L126.923 59.8246C126.913 59.8009 126.909 59.7761 126.915 59.7465C126.921 59.7179 126.935 59.6843 126.964 59.6429ZM120.267 70.2552C120.242 70.2744 120.217 70.294 120.191 70.3119L120.21 70.3441C120.211 70.3437 120.212 70.3426 120.213 70.3422C120.239 70.3238 120.264 70.3046 120.289 70.2855L120.288 70.2845H120.29L120.267 70.2552Z" fill="#9932CC" stroke="#71A151" stroke-width="0.0377953"/>
<path d="M141.533 53.5547C146.637 55.3309 151.374 58.5623 153.845 62.6484C155.081 64.693 155.75 66.9515 155.614 69.3486C155.479 71.7369 154.545 74.2645 152.575 76.8574C152.378 76.2557 152.204 75.6553 152.033 75.0605C151.859 74.4545 151.689 73.8538 151.505 73.2637C151.136 72.0835 150.709 70.9437 150.069 69.8799L150.035 69.8936C150.486 71.7923 150.737 73.7103 150.842 75.6572C150.842 75.8999 150.761 76.0699 150.617 76.1826C150.472 76.2961 150.262 76.3535 150.003 76.3652C149.485 76.3886 148.78 76.2281 148.041 75.9854C146.563 75.5001 144.956 74.6883 144.441 74.3711H144.442C141.433 72.3209 139.888 68.4 139.506 64.3457C139.125 60.2982 139.902 56.1231 141.533 53.5547ZM155.383 66.5645L155.345 66.5674V66.748L155.364 66.7471L155.383 66.7461L155.386 66.6582C155.387 66.6276 155.388 66.5949 155.383 66.5645Z" fill="#9932CC" stroke="#71A151" stroke-width="0.0377953"/>
<path d="M158.578 104.387C164.146 103.503 170.627 105.14 175.881 108.049L175.882 108.05C175.961 108.087 176.04 108.119 176.114 108.156C176.188 108.193 176.252 108.233 176.296 108.283C176.339 108.332 176.363 108.393 176.357 108.471C176.352 108.551 176.315 108.651 176.233 108.779L176.232 108.78C173.732 113.016 169.742 117.556 165.147 120.149C160.697 122.661 155.682 123.346 150.901 120.162L150.439 119.841C149.816 119.428 149.349 119.116 149.038 118.854C148.726 118.591 148.576 118.382 148.573 118.178C148.571 117.974 148.716 117.765 149.021 117.501C149.326 117.238 149.785 116.925 150.398 116.51V116.509C152.49 115.026 154.692 113.778 157.015 112.689L157.007 112.653C155.519 112.647 153.748 113.142 152.009 113.83C150.269 114.517 148.558 115.397 147.187 116.16L147.195 116.176L147.186 116.159L147.181 116.165C147.041 116.345 146.823 116.363 146.695 116.291C146.632 116.254 146.591 116.197 146.592 116.125C146.592 116.054 146.634 115.963 146.744 115.863L146.747 115.866L146.75 115.853C147.554 112.264 149.12 109.618 151.18 107.76C153.24 105.902 155.795 104.829 158.578 104.387Z" fill="#9932CC" stroke="#71A151" stroke-width="0.0377953"/>
<path d="M166.453 155.967C168.836 155.842 171.076 156.561 173.099 157.846C177.147 160.415 180.328 165.247 182.052 170.102V170.104C182.102 170.21 182.141 170.304 182.162 170.387C182.183 170.47 182.187 170.54 182.169 170.601C182.132 170.722 182.005 170.816 181.717 170.882C178.507 171.588 174.911 172.262 171.481 172.109C168.052 171.957 164.79 170.977 162.248 168.375C160.622 166.686 159.903 164.516 159.362 162.301L159.139 161.349C159.128 161.257 159.141 161.177 159.174 161.109C159.206 161.041 159.26 160.983 159.333 160.934C159.479 160.838 159.702 160.78 159.981 160.755C160.54 160.704 161.317 160.782 162.141 160.913C162.965 161.044 163.834 161.227 164.575 161.387C165.315 161.546 165.931 161.681 166.245 161.716L166.257 161.682C164.079 160.231 161.502 159.822 158.972 159.129C161.561 157.051 164.079 156.091 166.453 155.967Z" fill="#9932CC" stroke="#71A151" stroke-width="0.0377953"/>
<path d="M133.819 152.741L133.824 152.764C133.824 152.764 133.823 152.765 133.822 152.765C133.822 152.766 133.819 152.768 133.815 152.769C133.813 152.77 133.81 152.77 133.807 152.77C133.802 152.77 133.798 152.769 133.795 152.766C133.79 152.762 133.787 152.756 133.786 152.754L133.778 152.728H133.816L133.817 152.736M133.819 152.741H133.822L133.817 152.736M133.819 152.741L133.817 152.736M133.819 152.741L133.816 152.743H133.814L133.811 152.733C133.813 152.733 133.815 152.735 133.817 152.736M85.6172 151.244L85.583 151.25L85.6055 151.275C85.626 151.298 85.6437 151.325 85.6562 151.36L85.6699 151.398L85.6904 151.363C85.7022 151.343 85.7114 151.325 85.7168 151.31C85.7219 151.296 85.7247 151.279 85.7178 151.264C85.7101 151.248 85.6944 151.242 85.6787 151.24C85.6627 151.238 85.642 151.24 85.6172 151.244ZM140.72 150.727C140.708 150.73 140.696 150.733 140.683 150.736C140.67 150.739 140.656 150.742 140.643 150.747L140.618 150.756L140.635 150.777C140.642 150.785 140.65 150.793 140.656 150.799C140.663 150.807 140.67 150.814 140.675 150.822L140.692 150.849L140.707 150.82C140.713 150.808 140.718 150.8 140.725 150.79C140.731 150.779 140.738 150.768 140.743 150.752L140.754 150.718L140.72 150.727ZM43.6914 136.505C43.6914 136.504 43.6917 136.506 43.6924 136.509C43.693 136.513 43.6936 136.519 43.6953 136.525L43.7051 136.555L43.7275 136.533C43.7289 136.531 43.7303 136.529 43.7324 136.527C43.7345 136.525 43.7365 136.525 43.7373 136.524L43.7803 136.503L43.7344 136.489C43.7325 136.488 43.7305 136.487 43.7275 136.485C43.7263 136.484 43.7243 136.482 43.7227 136.481C43.7207 136.48 43.7179 136.478 43.7148 136.477L43.6562 136.452L43.6914 136.505ZM67.502 171.433C66.7355 163.035 67.1058 153.703 67.5527 144.071C67.9997 134.439 68.5222 124.507 68.0605 114.909C67.1393 95.7585 62.2961 77.9366 45.0977 66.4869C59.2524 71.4621 67.665 83.4288 72.5322 97.3151C77.4154 111.247 78.7293 127.109 78.6934 139.769H78.6904L78.6953 139.778C78.9517 140.259 79.1196 140.935 79.2275 141.739C79.3354 142.542 79.3827 143.472 79.4004 144.458C79.418 145.443 79.4056 146.484 79.3926 147.51C79.3796 148.537 79.3669 149.55 79.3828 150.478C79.3988 151.406 79.4441 152.251 79.5488 152.942C79.6535 153.632 79.817 154.172 80.0732 154.488C80.2018 154.646 80.3545 154.748 80.5342 154.784C80.7138 154.82 80.9186 154.789 81.1514 154.684C81.6162 154.475 82.1981 153.971 82.9268 153.106L82.9131 153.093L82.9277 153.106L82.9297 153.102C84.9328 148.978 88.5174 145.709 92.6982 142.794C96.8797 139.878 101.654 137.319 106.036 134.613C110.417 131.907 114.405 129.054 117.008 125.553C119.612 122.051 120.829 117.901 119.672 112.602C118.978 109.569 117.682 106.455 116.265 103.301C114.847 100.147 113.309 96.9519 112.13 93.7545C109.792 87.4164 108.868 81.0745 113.09 75.026C109.562 83.165 112.908 90.2921 117.085 97.3795C119.189 100.95 121.504 104.511 123.26 108.189C125.015 111.866 126.211 115.659 126.079 119.692L126.078 119.733L126.11 119.708C135.776 112.208 145.184 103.828 149.797 92.3004L149.796 92.2994C150.012 91.896 150.118 91.447 150.242 91.0104C150.364 90.5827 150.506 90.1662 150.793 89.8082C150.795 89.8143 150.796 89.8208 150.799 89.8268L150.822 89.8805L150.835 89.8239C151.639 86.2176 151.699 82.6601 151.634 78.8248C155.289 94.2329 147.94 106.848 137.668 117.801C132.513 123.298 126.623 128.376 121.021 133.176C115.419 137.977 110.104 142.501 106.101 146.891L106.068 146.926L106.116 146.922C115.034 146.311 124.044 147.792 133.021 148.707C141.996 149.621 150.938 149.971 159.713 147.095C163.801 145.794 167.403 143.194 170.126 139.699C167.369 145.008 162.762 148.37 157.473 150.505C152.122 152.664 146.076 153.567 140.55 153.963C107.748 148.909 89.645 160.716 86.0938 175.276C82.5426 189.836 93.5483 207.13 118.921 213.039L118.922 213.04C129.101 214.889 139.612 213.82 150.018 213.206C160.39 212.593 170.658 212.433 180.399 216.055C180.001 216.061 179.182 216.071 178.369 216.054C177.923 216.045 177.479 216.028 177.107 215.999C176.829 215.976 176.593 215.947 176.428 215.909L176.287 215.868L176.288 215.866L176.278 215.867C166.371 216.74 156.786 219.321 147.19 221.893C137.594 224.465 127.986 227.027 118.032 227.864H118.03C79.1183 233.699 47.814 202.985 49.4434 164.447L49.4248 164.446L49.4453 164.447L49.4424 164.438C47.8906 160.862 45.2149 159.032 41.9766 158.073C39.1442 157.234 35.8799 157.062 32.5596 156.969L29.708 156.895C26.3846 156.8 23.1114 156.618 20.2598 155.763C17.0409 154.798 14.3613 152.977 12.7529 149.457C16.916 154.545 23.1114 154.934 29.5654 154.619C32.817 154.46 36.1331 154.123 39.292 154.116C42.45 154.109 45.4478 154.432 48.0615 155.594L48.0957 155.61L48.0879 155.573C46.7796 149.52 45.0662 142.89 42.0947 137.145C39.1859 131.521 35.0703 126.745 28.9482 124.186C46.5488 129.691 51.2525 145.399 55.1016 161.979C57.0407 170.332 58.7633 178.906 61.8105 186.501C64.8581 194.096 69.2315 200.714 76.4736 205.155L76.5352 205.192L76.5 205.13C71.772 196.645 68.8993 187.267 68.0303 177.609H68.041L68.0371 177.588C67.8119 176.356 67.6728 175.115 67.6777 173.863L67.6836 173.861C67.4917 173.079 67.4895 172.195 67.502 171.435V171.433Z" fill="#8B7D3B" stroke="#71A151" stroke-width="0.0377953"/>
<path d="M193.763 236.691C201.52 235.974 209.408 237.489 217.371 239.8C221.353 240.955 225.353 242.309 229.364 243.682C233.375 245.056 237.398 246.45 241.425 247.682C249.478 250.148 257.548 251.972 265.577 251.716H265.579C268.199 251.427 270.815 251.093 273.375 250.293C257.14 261.29 240.249 256.635 223.065 251.13C205.883 245.624 188.409 239.27 171.028 246.897C178.44 240.334 186.037 237.406 193.763 236.691Z" fill="#8B7D3B" stroke="#71A151" stroke-width="0.0377953"/>
<path d="M210.643 230.361L210.646 230.362C210.649 230.362 210.651 230.361 210.653 230.36C210.654 230.359 210.655 230.358 210.656 230.357L210.643 230.352L210.64 230.354M210.643 230.361L210.64 230.354M210.643 230.361C210.641 230.361 210.639 230.361 210.638 230.36C210.635 230.358 210.634 230.357 210.635 230.358L210.64 230.354M210.643 230.361L210.64 230.354M151.373 230.517C173.999 223.805 195.927 218.197 217.089 233.765C205.913 229.711 193.699 230.518 182.217 233.131C173.665 235.047 165.553 238.456 157.374 241.598C149.195 244.741 140.948 247.617 132.125 248.472C114.063 251.53 95.4228 245.579 81.512 233.867C105.436 245.042 128.752 237.228 151.373 230.517ZM96.2424 241.031L96.2405 241.036V241.038C96.2221 241.085 96.2222 241.133 96.2346 241.184L96.2717 241.181C96.2737 241.157 96.2733 241.133 96.2737 241.11C96.274 241.087 96.2754 241.064 96.2786 241.041L96.2424 241.031ZM140.867 234.625L140.659 234.652C140.557 234.665 140.442 234.688 140.373 234.77L140.334 234.816L140.393 234.801C140.473 234.778 140.554 234.755 140.634 234.731C140.714 234.708 140.795 234.684 140.874 234.662L140.867 234.625ZM210.625 230.337C210.624 230.339 210.622 230.342 210.621 230.344L210.603 230.387L210.647 230.368C210.649 230.367 210.65 230.367 210.651 230.367H210.685L210.667 230.339C210.665 230.335 210.663 230.33 210.657 230.327C210.651 230.323 210.642 230.323 210.635 230.327C210.63 230.33 210.627 230.334 210.625 230.337ZM159.348 228.965C159.338 228.965 159.328 228.965 159.32 228.966C159.311 228.966 159.302 228.968 159.294 228.968H159.266L159.277 228.994C159.279 228.998 159.281 229.002 159.281 229.004V229.02L159.303 229.017C159.324 229.014 159.34 229.006 159.354 229.001L159.348 228.965ZM177.423 226.451C177.416 226.454 177.406 226.461 177.401 226.465C177.394 226.469 177.388 226.471 177.383 226.471L177.32 226.483L177.379 226.508C177.397 226.515 177.415 226.518 177.431 226.521L177.453 226.525V226.503C177.453 226.495 177.452 226.488 177.451 226.482C177.45 226.477 177.449 226.473 177.449 226.469V226.439L177.423 226.451Z" fill="#8B7D3B" stroke="#71A151" stroke-width="0.0377953"/>
<path d="M34.1847 172.703C38.5055 172.722 42.6349 173.896 45.714 177.203C47.5256 180.543 48.6331 182.711 49.132 184.031C49.2566 184.361 49.3428 184.637 49.3927 184.865C49.4427 185.093 49.4557 185.272 49.4347 185.407C49.4138 185.542 49.36 185.632 49.2755 185.686C49.1901 185.74 49.0704 185.759 48.9161 185.746C48.6073 185.719 48.1687 185.562 47.6105 185.312C47.0527 185.061 46.3775 184.719 45.5968 184.326C44.0357 183.54 42.0529 182.548 39.7433 181.673L39.6759 181.647L39.7218 181.703C40.1729 182.243 40.8946 182.778 41.7091 183.319C42.5251 183.862 43.4333 184.409 44.2648 184.978C45.0954 185.545 45.8459 186.131 46.3429 186.746C46.8378 187.358 47.0788 187.997 46.9025 188.675C43.2111 191.307 38.4423 192.123 34.1652 190.507H34.1661C33.1117 190.098 31.6906 189.17 30.1779 187.945C28.6655 186.721 27.0622 185.203 25.6427 183.617C24.2231 182.032 22.9873 180.379 22.2101 178.887C21.8217 178.141 21.5482 177.436 21.423 176.8C21.2985 176.167 21.3204 175.603 21.5216 175.135C25.3578 173.82 29.8661 172.685 34.1847 172.703Z" fill="#9932CC" stroke="#71A151" stroke-width="0.0377953"/>
<path d="M121.992 156.031C125.735 158.438 126.308 162.427 125.128 166.098C123.946 169.775 121.005 173.127 117.738 174.242C115.987 171.463 114.66 167.731 114.731 164.342C114.767 162.645 115.154 161.035 116.012 159.672C116.869 158.311 118.198 157.196 120.122 156.491C120.489 156.534 120.716 156.834 120.855 157.291C120.995 157.748 121.046 158.355 121.065 158.996C121.075 159.316 121.078 159.645 121.08 159.966C121.082 160.288 121.084 160.603 121.094 160.896C121.103 161.189 121.12 161.462 121.151 161.699C121.183 161.935 121.231 162.137 121.301 162.289L121.322 162.335L121.336 162.285C121.9 160.199 122.038 158.126 121.992 156.031Z" fill="#9932CC" stroke="#71A151" stroke-width="0.0377953"/>
<path d="M3.82129 122.672C3.91182 122.644 4.0181 122.667 4.16699 122.739C4.24138 122.775 4.32527 122.823 4.42188 122.883L4.75293 123.094C8.04471 125.157 11.5078 128.308 13.5166 131.929C15.5249 135.548 16.0791 139.634 13.5566 143.572L13.5547 143.575C13.2608 144.252 12.9782 144.757 12.7051 145.118C12.432 145.479 12.1695 145.694 11.916 145.793C11.4118 145.99 10.9333 145.73 10.4629 145.211C9.9931 144.692 9.53746 143.921 9.08203 143.11C8.627 142.3 8.17119 141.451 7.70312 140.782L7.66992 140.796C8.07162 143.226 9.11982 145.391 10.3408 147.52C7.41048 147.19 5.16649 146.06 3.53125 144.419C1.88882 142.771 0.859099 140.606 0.366211 138.218C-0.61964 133.44 0.541271 127.769 3.22852 123.549L3.41016 123.185C3.46374 123.082 3.51175 122.995 3.55762 122.923C3.64974 122.778 3.73046 122.699 3.82129 122.672Z" fill="#9932CC" stroke="#71A151" stroke-width="0.0377953"/>
<path d="M87.7361 78.7562C92.6391 78.3996 97.8287 78.2016 102.329 80.4027L102.762 80.6244C107.469 83.048 108.803 88.2086 108.355 93.1176C108.218 93.1778 108.063 93.1724 107.89 93.1107C107.714 93.0474 107.52 92.9266 107.314 92.7631C106.902 92.4359 106.44 91.9416 105.954 91.4086C105.468 90.876 104.957 90.3049 104.448 89.8265C103.939 89.3486 103.43 88.9607 102.944 88.7963L102.924 88.8265C104.534 90.528 105.468 91.8324 105.855 92.8158C106.049 93.3073 106.104 93.7174 106.041 94.056C105.978 94.3941 105.796 94.6637 105.51 94.8734C104.934 95.294 103.937 95.4753 102.641 95.4896C101.347 95.5039 99.7582 95.3511 98.0007 95.1078C95.1908 94.0854 92.1814 91.2729 90.0964 88.0746C89.054 86.4755 88.2437 84.7804 87.8044 83.1664C87.3665 81.557 87.2978 80.0293 87.7361 78.7562Z" fill="#9932CC" stroke="#71A151" stroke-width="0.0377953"/>
<path d="M30.4292 102.569C32.8902 104.14 35.2975 106.768 36.6392 109.725C37.9415 112.595 38.239 115.774 36.6099 118.598L36.4458 118.87C35.7425 119.969 35.193 120.613 34.7397 120.913C34.5135 121.063 34.3124 121.127 34.1294 121.12C33.9465 121.114 33.7785 121.037 33.6187 120.902C33.2979 120.629 33.0127 120.123 32.7065 119.486C32.4012 118.85 32.0751 118.086 31.6733 117.306L31.6372 117.316C31.6862 118.219 31.9017 119.037 32.1519 119.845C32.399 120.643 32.6789 121.43 32.8706 122.28C31.5233 121.831 30.4232 121.196 29.4341 120.401H29.4331C26.3771 118.101 25.7765 114.948 26.3657 111.715C26.9539 108.488 28.7281 105.181 30.4292 102.569Z" fill="#9932CC" stroke="#71A151" stroke-width="0.0377953"/>
<path d="M55.6172 45.3375C58.2093 47.4682 60.7283 50.6389 61.8145 53.9615C62.3582 55.6251 62.5428 57.3261 62.1982 58.9537C61.8537 60.5813 60.9797 62.1371 59.4053 63.5094L59.4043 63.5104C59.2025 63.7211 59.0179 63.8348 58.8486 63.8727C58.6801 63.9104 58.5238 63.8733 58.377 63.7789C58.2297 63.6842 58.0919 63.531 57.9609 63.3375C57.8301 63.1442 57.7069 62.9112 57.5889 62.6569C57.3526 62.1477 57.138 61.5567 56.9238 61.0309C56.8169 60.7683 56.71 60.5217 56.6006 60.3112C56.4914 60.1009 56.3789 59.9246 56.2607 59.8033L56.2197 59.7614L56.2285 59.8199C56.4709 61.4122 56.8363 62.9732 57.3564 64.4957V64.4967L57.3613 64.5026C57.4925 64.6596 57.5669 64.7776 57.5977 64.8629C57.613 64.9055 57.6164 64.9386 57.6123 64.9635C57.6083 64.9876 57.5967 65.0054 57.5781 65.0182C57.5589 65.0314 57.5313 65.0401 57.4951 65.0436C57.4591 65.0471 57.4157 65.0454 57.3662 65.0387C57.2669 65.0253 57.1444 64.9925 57.0107 64.9459C56.7437 64.8528 56.4323 64.705 56.165 64.5514C56.0314 64.4746 55.9086 64.3966 55.8086 64.3229C55.7084 64.249 55.6314 64.1799 55.5879 64.1227L55.5898 64.1217L55.582 64.1178L55.2363 63.9381C51.7452 62.0337 50.5938 58.5599 50.9111 54.9977C51.2383 51.3256 53.1259 47.5623 55.6172 45.3375Z" fill="#9932CC" stroke="#71A151" stroke-width="0.0377953"/>
<path d="M135.88 75.3212C139.935 78.2565 143.358 82.9181 144.445 87.6503C144.988 90.0174 144.947 92.402 144.109 94.5966C143.273 96.7834 141.644 98.7825 139.011 100.391C138.937 99.1956 138.999 98.0222 139.012 96.8612C139.026 95.6902 138.991 94.5323 138.719 93.3827L138.706 93.3221L138.683 93.3807C138.537 93.7758 138.462 94.3651 138.401 95.0214C138.339 95.6789 138.292 96.4049 138.203 97.077C138.113 97.7494 137.981 98.365 137.753 98.8016C137.64 99.0196 137.503 99.1918 137.335 99.3046C137.169 99.4166 136.972 99.4708 136.737 99.451C133.7 97.9711 131.161 95.6598 130.129 92.3778C129.654 89.8147 129.939 85.9653 130.921 82.5477C131.413 80.8391 132.078 79.2393 132.91 77.9628C133.739 76.6898 134.732 75.7388 135.88 75.3212Z" fill="#9932CC" stroke="#71A151" stroke-width="0.0377953"/>
<path d="M163.954 83.3082C168.702 80.9787 174.765 80.7482 178.846 83.0651C177.885 87.4861 175.318 92.3298 171.78 95.402C170.01 96.9394 167.997 98.033 165.822 98.4088C163.65 98.7842 161.314 98.4429 158.895 97.1119C158.782 96.6477 158.911 96.173 159.188 95.693C159.466 95.2099 159.892 94.7232 160.365 94.2408C160.602 93.9998 160.85 93.76 161.098 93.5221C161.345 93.2843 161.591 93.048 161.823 92.8151C162.287 92.3494 162.698 91.8942 162.95 91.4576L162.983 91.4L162.925 91.4323C160.642 92.6607 158.839 94.4077 156.956 96.1168C155.784 90.0546 159.21 85.6355 163.954 83.3082Z" fill="#9932CC" stroke="#71A151" stroke-width="0.0377953"/>
<path d="M176.573 113.916C177.58 113.214 178.53 112.96 179.381 113.49C179.808 113.756 180.212 114.219 180.586 114.928C180.96 115.637 181.304 116.589 181.611 117.829L181.61 117.83L181.612 117.833C183.499 121.905 183.717 126.446 182.263 130.18C180.812 133.905 177.697 136.827 172.911 137.685C173.887 135.382 174.857 133.297 175.344 131.017L175.308 131.006C174.64 132.669 173.979 133.839 173.343 134.602C172.707 135.365 172.098 135.719 171.537 135.757C170.977 135.796 170.459 135.519 170.001 135.007C169.544 134.496 169.149 133.751 168.837 132.858C168.214 131.072 167.924 128.699 168.123 126.43C168.31 124.303 168.928 122.27 170.102 120.899L170.344 120.633C171.347 119.567 172.402 118.237 173.456 117C174.512 115.763 175.567 114.617 176.573 113.916Z" fill="#9932CC" stroke="#71A151" stroke-width="0.0377953"/>
<path d="M152.576 123.115C153.52 124.355 154.086 126.13 154.285 128.134C154.485 130.143 154.318 132.381 153.798 134.538C152.759 138.855 150.311 142.843 146.581 144.039C144.144 144.562 142.502 144.899 141.479 145.017C140.966 145.076 140.611 145.079 140.389 145.025C140.278 144.998 140.203 144.957 140.157 144.904C140.112 144.851 140.095 144.783 140.103 144.698C140.111 144.613 140.146 144.51 140.206 144.39C140.267 144.27 140.353 144.134 140.46 143.98C140.676 143.672 140.98 143.295 141.351 142.847C142.092 141.95 143.099 140.765 144.195 139.257L144.169 139.23C143.751 139.495 143.301 139.892 142.835 140.329C142.369 140.767 141.885 141.246 141.398 141.68C140.911 142.114 140.421 142.501 139.942 142.756C139.465 143.009 139.001 143.129 138.562 143.035C137.311 140.525 137.011 138.166 137.401 136.006C137.791 133.843 138.873 131.876 140.388 130.154C143.416 126.711 148.172 124.241 152.576 123.115Z" fill="#9932CC" stroke="#71A151" stroke-width="0.0377953"/>
<path d="M134.385 160.4C138.01 159.001 141.612 160.148 144.629 162.465C147.458 164.637 149.772 167.838 151.106 170.928L151.36 171.544C151.45 172.034 151.761 172.759 152.134 173.578C152.509 174.4 152.946 175.318 153.29 176.195C153.635 177.073 153.884 177.906 153.884 178.559C153.884 178.884 153.821 179.163 153.679 179.379C153.554 179.568 153.367 179.711 153.104 179.796L152.987 179.828C148.872 180.255 144.137 180.38 139.902 179.344C135.666 178.308 131.931 176.111 129.819 171.899C128.743 169.204 128.326 167.443 128.406 166.353C128.446 165.808 128.61 165.433 128.875 165.192C129.141 164.951 129.511 164.841 129.968 164.832C130.884 164.815 132.141 165.204 133.583 165.74C135.024 166.276 136.649 166.96 138.296 167.526L138.315 167.495C135.669 164.953 132.284 163.363 128.837 162.087C129.752 161.838 130.646 161.36 131.546 160.973C132.466 160.577 133.396 160.273 134.375 160.4V160.404L134.385 160.4Z" fill="#9932CC" stroke="#71A151" stroke-width="0.0377953"/>
<path d="M35.976 80.4031C38.9974 77.8422 44.3025 76.3872 49.1644 76.8572C53.8804 77.3131 58.1735 79.5795 59.5638 84.3982L59.6898 84.8728L59.6908 84.8757C59.9879 85.5914 60.1588 86.1228 60.226 86.5056C60.2934 86.8899 60.2552 87.1182 60.1429 87.2351C60.0314 87.3512 59.8388 87.3654 59.5765 87.2996C59.3157 87.234 58.993 87.0906 58.6293 86.905C58.2658 86.7196 57.8626 86.4922 57.4408 86.2576C57.0191 86.023 56.579 85.7813 56.142 85.5681C55.705 85.3549 55.2705 85.1697 54.8607 85.0486C54.4512 84.9275 54.0648 84.8703 53.724 84.9128L53.6752 84.9187L53.7152 84.947C54.2835 85.3467 54.832 85.7122 55.3422 86.0515C55.8523 86.3908 56.3244 86.7035 56.7406 86.9968C57.1569 87.2902 57.5167 87.5644 57.8031 87.8259C58.0896 88.0876 58.3014 88.3362 58.4222 88.5789C58.5428 88.8209 58.5729 89.0568 58.4965 89.2947C58.4197 89.5333 58.2344 89.7765 57.9213 90.031C57.2948 90.5402 56.1603 91.0896 54.3724 91.7371C50.3277 93.0815 46.6376 91.8281 43.5023 89.446C40.371 87.0669 37.7951 83.5629 35.976 80.4031Z" fill="#9932CC" stroke="#71A151" stroke-width="0.0377953"/>
<path d="M133.819 152.741L133.824 152.764C133.824 152.764 133.823 152.765 133.822 152.765C133.822 152.766 133.819 152.768 133.815 152.769C133.813 152.77 133.81 152.77 133.807 152.77C133.802 152.77 133.798 152.769 133.795 152.766C133.79 152.762 133.787 152.756 133.786 152.754L133.778 152.728H133.816L133.817 152.736M133.819 152.741H133.822L133.817 152.736M133.819 152.741L133.817 152.736M133.819 152.741L133.816 152.743H133.814L133.811 152.733C133.813 152.733 133.815 152.735 133.817 152.736M85.6172 151.244L85.583 151.25L85.6055 151.275C85.626 151.298 85.6437 151.325 85.6562 151.36L85.6699 151.398L85.6904 151.363C85.7022 151.343 85.7114 151.325 85.7168 151.31C85.7219 151.296 85.7247 151.279 85.7178 151.264C85.7101 151.248 85.6944 151.242 85.6787 151.24C85.6627 151.238 85.642 151.24 85.6172 151.244ZM140.72 150.727C140.708 150.73 140.696 150.733 140.683 150.736C140.67 150.739 140.656 150.742 140.643 150.747L140.618 150.756L140.635 150.777C140.642 150.785 140.65 150.793 140.656 150.799C140.663 150.807 140.67 150.814 140.675 150.822L140.692 150.849L140.707 150.82C140.713 150.808 140.718 150.8 140.725 150.79C140.731 150.779 140.738 150.768 140.743 150.752L140.754 150.718L140.72 150.727ZM43.6914 136.505C43.6914 136.504 43.6917 136.506 43.6924 136.509C43.693 136.513 43.6936 136.519 43.6953 136.525L43.7051 136.555L43.7275 136.533C43.7289 136.531 43.7303 136.529 43.7324 136.527C43.7345 136.525 43.7365 136.525 43.7373 136.524L43.7803 136.503L43.7344 136.489C43.7325 136.488 43.7305 136.487 43.7275 136.485C43.7263 136.484 43.7243 136.482 43.7227 136.481C43.7207 136.48 43.7179 136.478 43.7148 136.477L43.6562 136.452L43.6914 136.505ZM67.502 171.433C66.7355 163.035 67.1058 153.703 67.5527 144.071C67.9997 134.439 68.5222 124.507 68.0605 114.909C67.1393 95.7585 62.2961 77.9366 45.0977 66.4869C59.2524 71.4621 67.665 83.4288 72.5322 97.3151C77.4154 111.247 78.7293 127.109 78.6934 139.769H78.6904L78.6953 139.778C78.9517 140.259 79.1196 140.935 79.2275 141.739C79.3354 142.542 79.3827 143.472 79.4004 144.458C79.418 145.443 79.4056 146.484 79.3926 147.51C79.3796 148.537 79.3669 149.55 79.3828 150.478C79.3988 151.406 79.4441 152.251 79.5488 152.942C79.6535 153.632 79.817 154.172 80.0732 154.488C80.2018 154.646 80.3545 154.748 80.5342 154.784C80.7138 154.82 80.9186 154.789 81.1514 154.684C81.6162 154.475 82.1981 153.971 82.9268 153.106L82.9131 153.093L82.9277 153.106L82.9297 153.102C84.9328 148.978 88.5174 145.709 92.6982 142.794C96.8797 139.878 101.654 137.319 106.036 134.613C110.417 131.907 114.405 129.054 117.008 125.553C119.612 122.051 120.829 117.901 119.672 112.602C118.978 109.569 117.682 106.455 116.265 103.301C114.847 100.147 113.309 96.9519 112.13 93.7545C109.792 87.4164 108.868 81.0745 113.09 75.026C109.562 83.165 112.908 90.2921 117.085 97.3795C119.189 100.95 121.504 104.511 123.26 108.189C125.015 111.866 126.211 115.659 126.079 119.692L126.078 119.733L126.11 119.708C135.776 112.208 145.184 103.828 149.797 92.3004L149.796 92.2994C150.012 91.896 150.118 91.447 150.242 91.0104C150.364 90.5827 150.506 90.1662 150.793 89.8082C150.795 89.8143 150.796 89.8208 150.799 89.8268L150.822 89.8805L150.835 89.8239C151.639 86.2176 151.699 82.6601 151.634 78.8248C155.289 94.2329 147.94 106.848 137.668 117.801C132.513 123.298 126.623 128.376 121.021 133.176C115.419 137.977 110.104 142.501 106.101 146.891L106.068 146.926L106.116 146.922C115.034 146.311 124.044 147.792 133.021 148.707C141.996 149.621 150.938 149.971 159.713 147.095C163.801 145.794 167.403 143.194 170.126 139.699C167.369 145.008 162.762 148.37 157.473 150.505C152.122 152.664 146.076 153.567 140.55 153.963C107.748 148.909 89.645 160.716 86.0938 175.276C82.5426 189.836 93.5483 207.13 118.921 213.039L118.922 213.04C129.101 214.889 139.612 213.82 150.018 213.206C160.39 212.593 170.658 212.433 180.399 216.055C180.001 216.061 179.182 216.071 178.369 216.054C177.923 216.045 177.479 216.028 177.107 215.999C176.829 215.976 176.593 215.947 176.428 215.909L176.287 215.868L176.288 215.866L176.278 215.867C166.371 216.74 156.786 219.321 147.19 221.893C137.594 224.465 127.986 227.027 118.032 227.864H118.03C79.1183 233.699 47.814 202.985 49.4434 164.447L49.4248 164.446L49.4453 164.447L49.4424 164.438C47.8906 160.862 45.2149 159.032 41.9766 158.073C39.1442 157.234 35.8799 157.062 32.5596 156.969L29.708 156.895C26.3846 156.8 23.1114 156.618 20.2598 155.763C17.0409 154.798 14.3613 152.977 12.7529 149.457C16.916 154.545 23.1114 154.934 29.5654 154.619C32.817 154.46 36.1331 154.123 39.292 154.116C42.45 154.109 45.4478 154.432 48.0615 155.594L48.0957 155.61L48.0879 155.573C46.7796 149.52 45.0662 142.89 42.0947 137.145C39.1859 131.521 35.0703 126.745 28.9482 124.186C46.5488 129.691 51.2525 145.399 55.1016 161.979C57.0407 170.332 58.7633 178.906 61.8105 186.501C64.8581 194.096 69.2315 200.714 76.4736 205.155L76.5352 205.192L76.5 205.13C71.772 196.645 68.8993 187.267 68.0303 177.609H68.041L68.0371 177.588C67.8119 176.356 67.6728 175.115 67.6777 173.863L67.6836 173.861C67.4917 173.079 67.4895 172.195 67.502 171.435V171.433Z" fill="#8B7D3B" stroke="#71A151" stroke-width="0.0377953"/>
<path d="M193.763 236.691C201.52 235.974 209.408 237.489 217.371 239.8C221.353 240.955 225.353 242.309 229.364 243.682C233.375 245.056 237.398 246.45 241.425 247.682C249.478 250.148 257.548 251.972 265.577 251.716H265.579C268.199 251.427 270.815 251.093 273.375 250.293C257.14 261.29 240.249 256.635 223.065 251.13C205.883 245.624 188.409 239.27 171.028 246.897C178.44 240.334 186.037 237.406 193.763 236.691Z" fill="#8B7D3B" stroke="#71A151" stroke-width="0.0377953"/>
<path d="M210.643 230.361L210.646 230.362C210.649 230.362 210.651 230.361 210.653 230.36C210.654 230.359 210.655 230.358 210.656 230.357L210.643 230.352L210.64 230.354M210.643 230.361L210.64 230.354M210.643 230.361C210.641 230.361 210.639 230.361 210.638 230.36C210.635 230.358 210.634 230.357 210.635 230.358L210.64 230.354M210.643 230.361L210.64 230.354M151.373 230.517C173.999 223.805 195.927 218.197 217.089 233.765C205.913 229.711 193.699 230.518 182.217 233.131C173.665 235.047 165.553 238.456 157.374 241.598C149.195 244.741 140.948 247.617 132.125 248.472C114.063 251.53 95.4228 245.579 81.512 233.867C105.436 245.042 128.752 237.228 151.373 230.517ZM96.2424 241.031L96.2405 241.036V241.038C96.2221 241.085 96.2222 241.133 96.2346 241.184L96.2717 241.181C96.2737 241.157 96.2733 241.133 96.2737 241.11C96.274 241.087 96.2754 241.064 96.2786 241.041L96.2424 241.031ZM140.867 234.625L140.659 234.652C140.557 234.665 140.442 234.688 140.373 234.77L140.334 234.816L140.393 234.801C140.473 234.778 140.554 234.755 140.634 234.731C140.714 234.708 140.795 234.684 140.874 234.662L140.867 234.625ZM210.625 230.337C210.624 230.339 210.622 230.342 210.621 230.344L210.603 230.387L210.647 230.368C210.649 230.367 210.65 230.367 210.651 230.367H210.685L210.667 230.339C210.665 230.335 210.663 230.33 210.657 230.327C210.651 230.323 210.642 230.323 210.635 230.327C210.63 230.33 210.627 230.334 210.625 230.337ZM159.348 228.965C159.338 228.965 159.328 228.965 159.32 228.966C159.311 228.966 159.302 228.968 159.294 228.968H159.266L159.277 228.994C159.279 228.998 159.281 229.002 159.281 229.004V229.02L159.303 229.017C159.324 229.014 159.34 229.006 159.354 229.001L159.348 228.965ZM177.423 226.451C177.416 226.454 177.406 226.461 177.401 226.465C177.394 226.469 177.388 226.471 177.383 226.471L177.32 226.483L177.379 226.508C177.397 226.515 177.415 226.518 177.431 226.521L177.453 226.525V226.503C177.453 226.495 177.452 226.488 177.451 226.482C177.45 226.477 177.449 226.473 177.449 226.469V226.439L177.423 226.451Z" fill="#8B7D3B" stroke="#71A151" stroke-width="0.0377953"/>
</svg>
