<svg width="240" height="187" viewBox="0 0 240 187" fill="none" xmlns="http://www.w3.org/2000/svg">
<path opacity="0.8" d="M41.8207 123.302C34.7595 117.832 22.8801 119.42 14.0892 121.589C12.1998 124.721 23.7299 132.96 28.5739 134.314C33.4784 135.651 38.9479 134.974 43.1838 132.796C44.0163 130.523 37.0155 128.793 34.9622 127.016C45.5304 129.91 50.1243 134.34 41.8207 123.302Z" fill="#F2C4EB"/>
<path opacity="0.8" d="M34.9106 111.125C26.3612 109.373 18.6659 116.577 13.5846 122.849C14.141 126.705 27.6682 128.909 32.0464 127.852C36.4592 126.752 40.0394 123.483 41.782 119.398C40.984 116.857 34.7985 118.596 32.1974 117.918C41.713 115.555 47.8123 117.517 34.9106 111.125Z" fill="#F2C4EB"/>
<path opacity="0.8" d="M30.2951 82.3622C25.8737 74.1623 14.6974 72.7862 6.07903 72.92C3.30113 76.0171 10.7635 88.6082 14.6241 91.4724C18.5494 94.3366 23.6782 95.0267 28.2203 93.6593C29.7516 91.2653 24.0923 87.3875 22.8672 84.7908C31.326 90.9677 33.8969 97.3086 30.2951 82.3622Z" fill="#F2C4EB"/>
<path opacity="0.8" d="M47.1091 88.7591C42.6878 80.5591 31.5115 79.1831 22.8931 79.3168C20.1152 82.4139 27.5775 95.0051 31.4381 97.8692C35.3634 100.733 40.4922 101.424 45.0343 100.056C46.5656 97.6622 40.9063 93.7843 39.6813 91.1876C48.1401 97.3646 50.7109 103.71 47.1091 88.7591Z" fill="#F2C4EB"/>
<path opacity="0.8" d="M61.1324 51.21C57.0216 43.588 46.6347 42.3112 38.6245 42.4363C36.045 45.3134 42.9768 57.0203 46.5657 59.6818C50.2149 62.3432 54.9813 62.9859 59.2043 61.7134C60.6277 59.4876 55.3652 55.8815 54.2308 53.4703C62.0943 59.2073 64.484 65.1038 61.1324 51.21Z" fill="#F2C4EB"/>
<path opacity="0.8" d="M53.5319 81.6419C50.4391 75.9006 42.6144 74.9387 36.5841 75.0336C34.6388 77.2033 39.8624 86.0157 42.567 88.0172C45.3147 90.023 48.9035 90.5061 52.0826 89.5485C53.1567 87.8706 49.1925 85.1574 48.3385 83.3414C54.2523 87.6635 56.051 92.1021 53.5319 81.6419Z" fill="#F2C4EB"/>
<path opacity="0.8" d="M59.0706 100.578C56.737 96.2473 50.8361 95.5227 46.2853 95.5917C44.8187 97.2265 48.757 103.878 50.7973 105.388C52.8677 106.902 55.5766 107.264 57.9749 106.544C58.7859 105.28 55.7966 103.231 55.1496 101.859C59.6184 105.12 60.9728 108.472 59.0706 100.578Z" fill="#F2C4EB"/>
<path opacity="0.8" d="M60.2179 112.786C57.8843 108.455 51.9834 107.73 47.4327 107.799C45.9661 109.434 49.9043 116.085 51.9446 117.595C54.0151 119.109 56.724 119.471 59.1223 118.751C59.9332 117.487 56.944 115.438 56.2969 114.067C60.7614 117.328 62.1202 120.679 60.2179 112.786Z" fill="#F2C4EB"/>
<path opacity="0.8" d="M47.1955 67.4417C46.2508 56.7356 35.2298 51.499 26.2016 48.8074C21.9312 51.3825 24.0837 68.0413 26.8271 72.5446C29.6351 77.0695 34.6647 79.5412 40.0048 79.498C42.6663 77.3024 38.5037 71.0651 38.3873 67.7351C44.4305 77.4836 44.2795 85.4809 47.1955 67.4417Z" fill="#F2C4EB"/>
<path opacity="0.8" d="M37.1665 58.7586C37.0931 49.4112 27.9097 44.1056 20.2704 41.1422C16.3883 43.0747 17.0914 57.663 19.1532 61.7608C21.2712 65.8759 25.4596 68.3734 30.088 68.7056C32.551 66.9888 29.3763 61.2906 29.5057 58.3963C34.0737 67.2692 33.3835 74.1923 37.1665 58.7586Z" fill="#F2C4EB"/>
<path opacity="0.8" d="M54.1488 13.1045C54.0927 6.15107 47.2601 2.20421 41.5792 0C38.6935 1.44071 39.2154 12.2892 40.751 15.3389C42.3255 18.4014 45.4398 20.2563 48.8863 20.5064C50.7152 19.2296 48.3558 14.9895 48.455 12.837C51.8454 19.4367 51.3321 24.587 54.1488 13.1045Z" fill="#F2C4EB"/>
<path opacity="0.8" d="M61.9649 24.3022C61.9088 17.3488 55.0762 13.402 49.3953 11.1978C46.5096 12.6385 47.0315 23.487 48.5671 26.5366C50.1416 29.5992 53.2559 31.454 56.7024 31.7042C58.5314 30.4274 56.1719 26.1872 56.2711 24.0348C59.6615 30.6344 59.1482 35.7848 61.9649 24.3022Z" fill="#F2C4EB"/>
<path opacity="0.8" d="M67.0246 29.1594C72.0111 23.8408 72.2871 13.6997 71.7479 6.08207C69.63 4.14961 62.0123 12.9104 60.3948 16.8227C58.7815 20.7911 58.6133 25.454 59.7262 29.2499C61.3308 30.1989 63.5005 24.518 65.0879 22.991C61.6025 31.5404 57.7031 34.9006 67.0246 29.1594Z" fill="#F2C4EB"/>
<path opacity="0.8" d="M69.8586 55.1742C74.7804 49.7996 74.9443 39.6542 74.3145 32.0408C72.175 30.13 64.6566 38.9813 63.0864 42.9109C61.5163 46.8966 61.4042 51.5638 62.5602 55.3467C64.1778 56.2785 66.2784 50.5717 67.8486 49.0275C64.4625 57.6157 60.6018 61.0233 69.8586 55.1742Z" fill="#F2C4EB"/>
<path opacity="0.8" d="M100.334 48.6133C100.036 40.3529 91.7669 33.3995 84.9257 28.8962C81.5353 29.6425 82.5231 42.6822 84.4555 46.8059C86.4354 50.9599 90.2055 54.195 94.3162 55.6357C96.4514 54.7299 93.501 48.9196 93.5441 46.3962C97.8059 55.3553 97.3702 61.2907 100.334 48.6133Z" fill="#F2C4EB"/>
<path opacity="0.8" d="M98.207 26.1658C97.9784 19.8982 91.7066 14.6228 86.5174 11.2108C83.9466 11.7759 84.6971 21.6711 86.1594 24.7984C87.6605 27.9516 90.5204 30.406 93.639 31.4973C95.2609 30.8114 93.0179 26.403 93.0524 24.4878C96.2875 31.2816 95.9554 35.7849 98.207 26.1658Z" fill="#F2C4EB"/>
<path opacity="0.8" d="M107.675 24.5698C113.943 24.38 119.253 18.1383 122.699 12.9707C122.147 10.3955 112.252 11.0857 109.116 12.535C105.954 14.0189 103.482 16.8658 102.374 19.9759C103.051 21.602 107.472 19.3849 109.388 19.4324C102.572 22.6244 98.069 22.2663 107.675 24.5698Z" fill="#F2C4EB"/>
<path opacity="0.8" d="M100.579 44.7915C106.847 44.6017 112.157 38.3601 115.603 33.1925C115.051 30.6173 105.156 31.3075 102.02 32.7568C98.8584 34.2407 96.3868 37.0876 95.2782 40.1977C95.9554 41.8238 100.377 39.6067 102.292 39.6542C95.4766 42.8418 90.9733 42.4838 100.579 44.7915Z" fill="#F2C4EB"/>
<path opacity="0.8" d="M107.675 54.635C113.943 54.4453 119.253 48.2036 122.699 43.036C122.147 40.4609 112.252 41.151 109.116 42.6004C105.954 44.0842 103.482 46.9311 102.374 50.0412C103.051 51.6674 107.472 49.4502 109.388 49.4977C102.572 52.6853 98.069 52.3273 107.675 54.635Z" fill="#F2C4EB"/>
<path opacity="0.8" d="M86.759 113.204C93.0265 113.014 98.3365 106.772 101.783 101.605C101.231 99.0296 91.3356 99.7197 88.1997 101.169C85.0379 102.653 82.5663 105.5 81.4577 108.61C82.1349 110.236 86.5563 108.019 88.4715 108.066C81.6518 111.254 77.1528 110.896 86.759 113.204Z" fill="#F2C4EB"/>
<path opacity="0.8" d="M96.8181 119.868C103.086 119.679 108.396 113.437 111.842 108.269C111.29 105.694 101.395 106.384 98.2588 107.834C95.097 109.317 92.6253 112.164 91.5168 115.274C92.194 116.901 96.6153 114.683 98.5305 114.731C91.7109 117.919 87.2119 117.561 96.8181 119.868Z" fill="#F2C4EB"/>
<path opacity="0.8" d="M105.324 106.539C111.592 106.35 116.902 100.108 120.348 94.9403C119.796 92.3651 109.901 93.0553 106.765 94.5046C103.603 95.9885 101.132 98.8354 100.023 101.945C100.7 103.572 105.122 101.355 107.037 101.402C100.221 104.59 95.7225 104.232 105.324 106.539Z" fill="#F2C4EB"/>
<path opacity="0.8" d="M112.541 115.74C118.399 117.979 125.701 114.261 130.873 110.819C131.356 108.23 121.953 105.056 118.502 105.185C115.013 105.336 111.639 107.014 109.414 109.455C109.414 111.215 114.348 110.875 116.095 111.651C108.581 111.975 104.565 109.913 112.541 115.74Z" fill="#F2C4EB"/>
<path opacity="0.8" d="M124.287 103.136C129.67 106.35 137.507 103.951 143.193 101.45C144.116 98.9822 135.402 94.2374 131.982 93.7672C128.518 93.3143 124.903 94.384 122.294 96.407C121.987 98.1411 126.909 98.6544 128.496 99.7241C121.038 98.745 117.437 96.0188 124.287 103.136Z" fill="#F2C4EB"/>
<path opacity="0.8" d="M97.3443 95.6047C103.616 95.4709 108.978 89.2767 112.472 84.1393C111.941 81.5598 102.042 82.1637 98.8929 83.5829C95.7181 85.0365 93.2249 87.8619 92.0862 90.9633C92.7504 92.5938 97.1891 90.4198 99.1043 90.4802C92.2587 93.6118 87.764 93.215 97.3443 95.6047Z" fill="#F2C4EB"/>
<path opacity="0.8" d="M114.65 97.507C120.922 97.3733 126.284 91.1791 129.778 86.0417C129.247 83.4622 119.348 84.0661 116.199 85.4852C113.024 86.9389 110.531 89.7642 109.392 92.8657C110.056 94.4962 114.495 92.3221 116.41 92.3825C109.56 95.5141 105.066 95.113 114.65 97.507Z" fill="#F2C4EB"/>
<path opacity="0.8" d="M136.602 93.1675C142.873 93.0338 148.235 86.8396 151.729 81.7022C151.199 79.1227 141.299 79.7266 138.15 81.1457C134.975 82.5994 132.482 85.4247 131.343 88.5262C132.008 90.1567 136.446 87.9827 138.361 88.043C131.516 91.1747 127.017 90.7778 136.602 93.1675Z" fill="#F2C4EB"/>
<path opacity="0.8" d="M110.79 80.5463C117.061 80.4126 122.423 74.2184 125.917 69.081C125.386 66.5015 115.487 67.1054 112.338 68.5245C109.163 69.9782 106.67 72.8035 105.531 75.905C106.196 77.5355 110.634 75.3615 112.549 75.4218C105.704 78.5535 101.205 78.1566 110.79 80.5463Z" fill="#F2C4EB"/>
<path opacity="0.8" d="M124.377 64.7112C130.649 64.5775 136.011 58.3833 139.505 53.2459C138.974 50.6664 129.075 51.2703 125.926 52.6895C122.751 54.1431 120.258 56.9685 119.119 60.0699C119.783 61.7004 124.222 59.5264 126.137 59.5868C119.291 62.7184 114.792 62.3215 124.377 64.7112Z" fill="#F2C4EB"/>
<path opacity="0.8" d="M145.466 107.657C149.331 112.596 157.505 113.174 163.712 112.889C165.459 110.918 159.041 103.356 156.017 101.687C152.95 100.017 149.193 99.7154 146.031 100.664C145.125 102.174 149.525 104.421 150.625 105.992C144.012 102.39 141.631 98.5551 145.466 107.657Z" fill="#F2C4EB"/>
<path opacity="0.8" d="M73.1671 74.9042C77.9767 69.426 77.9249 59.2806 77.1356 51.6845C74.9572 49.8211 67.6286 58.8277 66.1404 62.7918C64.6565 66.812 64.6393 71.4792 65.8773 75.232C67.5121 76.1292 69.492 70.3793 71.0319 68.8005C67.8227 77.4621 64.0354 80.9474 73.1671 74.9042Z" fill="#F2C4EB"/>
<path opacity="0.8" d="M74.3447 96.8039C80.0213 92.2273 81.7035 82.2242 82.2255 74.6023C80.3965 72.3937 71.6358 80.0114 69.492 83.665C67.3439 87.3703 66.5286 91.9685 67.1023 95.8765C68.5603 97.0412 71.4935 91.714 73.2792 90.4242C68.6465 98.4129 64.3158 101.199 74.3447 96.8039Z" fill="#F2C4EB"/>
<path opacity="0.8" d="M100.058 82.0388C105.044 76.7202 105.32 66.5791 104.781 58.9615C102.663 57.029 95.0453 65.7897 93.4277 69.7021C91.8144 73.6705 91.6462 78.3335 92.7591 82.1293C94.3637 83.0783 96.5334 77.3974 98.1208 75.8704C94.6355 84.4198 90.7361 87.78 100.058 82.0388Z" fill="#F2C4EB"/>
<path opacity="0.8" d="M20.9175 98.7664C13.9468 97.3386 7.66636 103.214 3.52539 108.329C3.97831 111.474 15.0123 113.273 18.5839 112.41C22.1856 111.513 25.1016 108.847 26.525 105.513C25.8737 103.442 20.8269 104.857 18.7046 104.305C26.4647 102.377 31.4424 103.977 20.9175 98.7664Z" fill="#F2C4EB"/>
<path d="M40.0436 117.103C34.6431 111.302 25.5545 112.984 18.8298 115.287C17.3847 118.609 26.2059 127.344 29.9069 128.78C33.6596 130.199 37.8437 129.479 41.0832 127.171C41.7173 124.76 36.3642 122.927 34.7941 121.046C42.8862 124.104 46.3974 128.806 40.0436 117.103Z" fill="#9932CC"/>
<path d="M103.107 114.541C108.848 112.596 113.442 102.765 106.821 98.5422C106.864 100.384 106.743 102.213 106.247 104.046C105.764 103.002 106.536 99.1116 105.199 98.9606C98.4357 101.432 100.027 109.667 103.107 114.541Z" fill="#9932CC"/>
<path d="M4.17245 69.711C3.29681 69.1416 3.28818 69.1545 2.81369 70.1164C-1.89666 77.5184 -1.25826 90.0017 9.08554 91.1405C8.00716 89.2641 7.08407 87.3662 6.73036 85.2267C8.3695 87.5689 9.81884 92.4173 11.8807 87.6681C16.3107 80.7578 9.93962 73.3257 4.17245 69.711Z" fill="#9932CC"/>
<path d="M90.0028 32.5154C85.9653 30.3759 81.2593 30.5571 76.8207 30.8806C75.2635 35.3667 80.8883 43.4372 85.8186 45.236C91.9783 46.09 95.7872 45.6716 90.1451 39.7061C91.8317 40.2754 93.8806 43.9635 94.9072 43.489C95.3041 39.1798 94.1351 34.642 90.0028 32.5154Z" fill="#9932CC"/>
<path d="M25.7659 67.3772C26.6415 68.0803 27.6164 68.6411 28.8112 69.0379C28.4748 67.5239 27.8062 66.2428 27.7242 64.664C29.1304 67.3945 29.4669 69.8877 31.9342 66.0357C35.1133 60.9587 30.9723 54.4841 26.6458 51.7278C23.6566 56.3087 20.3999 63.3398 25.7659 67.3772Z" fill="#9932CC"/>
<path d="M48.7051 1.60474C44.3269 5.50415 42.0667 14.8257 48.6663 18.0867C48.9812 18.5008 51.1682 19.5015 50.2451 18.3973C49.7878 17.0644 49.4686 15.697 49.2573 14.3037C50.0725 15.1405 50.6074 19.0356 52.0352 17.5518C57.5608 12.7379 53.2559 5.34024 48.7051 1.60474Z" fill="#9932CC"/>
<path d="M113.947 42.8247C114.853 45.7062 117.083 47.7335 119.744 49.0319C121.431 49.1786 120.961 45.0807 121.47 43.7047C121.944 45.7148 121.591 47.7551 121.729 49.8687C131.02 44.218 126.115 33.0115 119.003 27.8655C114.943 29.3321 113.11 38.3301 113.947 42.8247Z" fill="#9932CC"/>
<path d="M156.651 34.6635C149.49 30.5829 135.359 35.4658 137.451 46.1375C139.108 44.632 140.691 43.0964 142.697 42.018C141.817 43.5407 138.728 45.3308 139.147 46.9872C147.64 51.6631 154.969 42.4149 156.651 34.6635Z" fill="#9932CC"/>
<path d="M159.066 65.1127C156.914 56.4167 152.682 63.8273 149.171 67.5585C144.491 72.3551 148.865 88.3194 153.545 76.66C153.118 78.6658 152.264 80.499 151.406 82.5264C159.834 81.0339 162.375 72.2473 159.066 65.1127Z" fill="#9932CC"/>
<path d="M133.63 69.7238C125.904 71.695 116.936 78.3853 121.34 87.2021C122.906 87.5472 124.808 84.7952 126.271 83.8678C122.436 89.1475 119.839 89.911 128.38 88.0821C134.928 85.9857 136.96 74.0804 133.63 69.7238Z" fill="#9932CC"/>
<path d="M132.573 112.147C130.325 106.406 124.049 99.9226 117.683 102.377C115.957 102.153 114.413 103.438 112.778 103.869C115.81 104.987 118.791 106.384 121.12 108.619C115.353 106.634 109.91 103.024 113.675 112.471C117.385 119.86 126.775 120.17 133.983 119.424C136.3 118.88 132.883 113.86 132.573 112.147Z" fill="#9932CC"/>
<path d="M52.2897 36.2465C50.1157 27.214 36.7783 27.8309 31.4813 32.3299C34.669 37.8727 40.5224 44.6363 47.6182 42.2725C53.8814 40.0036 51.0259 39.0978 47.0488 36.2983C49.4126 36.0093 54.3731 41.2675 52.2897 36.2465Z" fill="#9932CC"/>
<path d="M101.425 62.8221C99.9239 54.2339 90.0416 51.4991 82.5361 50.7313C81.393 50.9513 82.4886 54.6782 82.4067 55.7566C82.9545 64.431 89.0538 73.442 98.5478 71.0868C97.573 68.2614 96.3566 65.5612 94.7476 63.0421C97.3056 65.0349 98.9921 67.6964 100.523 70.6684C101.257 67.9336 101.865 65.4879 101.425 62.8221Z" fill="#9932CC"/>
<path d="M57.7118 61.5366C54.6406 53.9535 45.2458 53.039 38.0983 53.4747C36.6274 53.5135 36.6144 53.5351 36.9164 54.9844C38.3312 63.991 45.5693 74.8999 55.9433 70.7417C57.453 69.8531 52.2509 64.733 51.4658 63.4993C54.2308 64.7071 56.215 67.1226 58.1604 69.3355C59.2086 67.403 58.4235 63.7063 57.7118 61.5366Z" fill="#9932CC"/>
<path d="M70.9068 14.955C70.3288 13.8292 69.7292 11.3101 68.2842 12.9363C64.704 16.0032 61.1453 19.6869 59.7219 24.2636C57.1554 29.6339 60.3819 35.4399 64.8938 38.8303C64.5185 35.5089 64.7083 32.4247 65.5193 29.3837C65.709 32.084 65.9204 34.8748 66.5761 37.5578C66.8392 38.8735 68.4783 37.0359 69.2073 36.8547C77.2908 32.235 74.9659 21.6022 70.9068 14.955Z" fill="#9932CC"/>
<path d="M32.6029 80.6327C27.9701 76.138 20.9176 77.3803 15.3359 79.1057C14.2402 81.4565 21.4007 90.0447 24.2605 90.778C27.7329 92.3438 30.968 91.5976 34.0953 89.7601C34.8675 89.0656 30.7049 85.9944 30.0104 85.2265C31.9084 86.1453 33.7589 87.1418 35.3463 88.5523C35.5533 88.6515 35.6913 88.6558 35.6611 88.3582C35.3851 85.5889 34.5698 82.6988 32.6029 80.6327Z" fill="#9932CC"/>
<path d="M96.2876 106.574C87.488 106.104 76.8811 110.404 79.4519 121.007C79.3398 122.849 83.0451 116.75 84.1623 116.633C83.3168 118.186 79.1759 122.456 82.9804 122.4C87.1645 123.129 90.5376 121.775 92.9575 118.281C94.2861 116.672 98.1769 107.51 96.2876 106.574Z" fill="#9932CC"/>
<path d="M18.7435 18.3542C23.3848 23.6598 32.6934 27.7059 37.8351 20.8388C39.7158 19.7216 34.5309 18.5095 33.8451 17.6899C35.7387 17.7201 37.6841 18.7208 39.4958 19.0055C39.4095 18.7295 39.3448 18.4793 39.0946 18.3456C35.8724 8.15705 23.7515 10.6589 17.2036 16.0206C16.5004 16.7582 18.2862 17.7589 18.7435 18.3542Z" fill="#9932CC"/>
<path d="M19.6882 101.674C13.7269 97.5932 7.86916 103.373 5.21203 108.558C5.03086 108.886 5.05244 109.054 5.41908 109.192C10.9706 111.754 19.5243 111.974 21.1893 104.762C21.2152 103.473 17.8549 104.439 16.8801 104.223C18.3682 103.602 19.8995 103.326 21.6508 103.235C20.9736 102.524 20.3482 102.079 19.6882 101.674Z" fill="#9932CC"/>
<path d="M117.475 14.6702C115.435 14.2173 113.283 14.144 111.178 14.1396C111.117 14.2173 111.117 14.2734 111.135 14.3208C111.126 14.3208 111.117 14.3165 111.109 14.3208C106.058 13.6867 99.816 16.8572 99.0525 22.2577C97.2451 31.3506 100.183 23.6768 103.871 22.633C103.569 22.9867 103.306 23.2929 103.042 23.6035C102.447 24.367 99.3976 27.0629 100.562 27.6841C106.299 30.3283 111.976 27.9947 115.168 21.7832C115.729 20.5409 118.998 15.3345 117.475 14.6702ZM105.268 23.5129C105.29 23.4957 105.311 23.4784 105.333 23.4612C105.316 23.4827 105.294 23.5 105.268 23.5129Z" fill="#9932CC"/>
<path d="M132.12 28.1803C132.029 26.4764 131.809 24.7941 131.412 23.1291C132.53 24.9883 132.909 27.1148 133.612 29.2673C140.57 20.1399 132.896 11.914 123.941 8.80396C121.073 13.3073 121.202 23.4699 126.486 27.0674C127.392 27.6238 132.124 29.9186 132.12 28.1803ZM136.062 20.3771C136.058 20.3254 136.062 20.2736 136.062 20.2175C136.071 20.2693 136.062 20.3254 136.062 20.3771Z" fill="#9932CC"/>
<path d="M154.356 57.1972C154.645 56.7443 154.313 56.6624 154.041 56.5329C144.832 51.4344 131.322 50.7917 128.505 63.3785C128.108 63.7365 128.656 63.9953 128.911 63.6632C131.313 62.326 134.902 60.5833 137.503 60.5963C135.472 61.5496 133.539 62.6452 131.706 63.9436C129.558 65.3972 129.558 65.4404 131.74 66.8897C140.367 73.1098 149.969 64.6208 154.356 57.1972Z" fill="#9932CC"/>
<path d="M159.455 110.888C156.431 102.377 148.304 93.9484 139.19 101.29C141.42 101.903 143.684 102.256 145.595 103.533C144.5 103.412 139.194 101.881 139.354 103.231C139.858 105.453 140.449 107.7 142.08 109.391C146.54 113.954 153.524 112.824 159.144 111.591C159.653 111.474 159.627 111.259 159.455 110.888Z" fill="#9932CC"/>
<path d="M103.37 161.498C120.81 160.031 137.033 152.517 154.382 150.99C154.925 151.202 157.483 151.167 158.083 151.159C140.963 144.744 121.979 151.724 104.155 148.484C59.7218 138.136 65.6443 87.9268 123.092 96.7781C132.771 96.0836 144.284 93.612 149.098 84.1093C146.704 87.241 143.507 89.5703 139.871 90.7306C124.511 95.7645 108.559 89.5099 92.9359 90.5796C106.955 75.2019 139.354 57.9436 132.784 30.8073C132.844 34.2236 132.801 37.3854 132.085 40.5903C132.081 40.5774 132.077 40.5601 132.072 40.5429C131.538 41.1856 131.555 42.0483 131.179 42.7557C127.142 52.845 118.908 60.1823 110.44 66.7518C110.902 52.6078 92.7331 41.8542 99.1301 27.4815C91.4995 38.1747 102.365 49.9248 104.794 60.5446C108.844 79.0884 79.6416 81.5428 72.6149 96.006C67.512 102.066 70.7429 87.7284 68.9355 84.3336C69.0002 62.1579 64.333 28.7627 39.3793 20.0968C69.6645 40.1374 56.4134 82.6427 59.1007 112.07C59.0877 112.734 59.0921 113.51 59.2603 114.196L59.256 114.183C59.2517 115.283 59.3724 116.374 59.5709 117.457C59.5666 117.457 59.5665 117.453 59.5622 117.453C60.3214 125.92 62.8362 134.142 66.9815 141.583C41.6266 126.032 56.4392 79.9986 24.9937 70.5563C36.0967 74.9561 39.802 87.5731 42.0968 98.1757C32.9263 94.0995 18.3811 101.79 11.0999 92.7105C16.7161 105.358 37.8566 93.4352 43.283 105.94C41.8553 139.702 69.2806 166.61 103.37 161.498ZM117.191 95.6955C117.186 95.6998 117.182 95.7041 117.182 95.6955C117.186 95.6955 117.191 95.6955 117.191 95.6955ZM123.243 93.9398C123.234 93.9657 123.221 93.9744 123.212 93.9959C123.199 93.9787 123.187 93.9657 123.178 93.9528C123.2 93.9485 123.221 93.9485 123.243 93.9398ZM119.805 96.3942C119.805 96.3813 119.813 96.3727 119.813 96.3554C119.835 96.364 119.861 96.3683 119.882 96.3813C119.857 96.3813 119.831 96.3856 119.805 96.3942ZM38.2966 81.4695C38.2923 81.4738 38.288 81.4781 38.2837 81.4824C38.2794 81.4738 38.2794 81.4652 38.2794 81.4609C38.2837 81.4652 38.288 81.4695 38.2966 81.4695ZM75.0305 94.4747C75.0176 94.4402 75.0003 94.4143 74.983 94.3928C75.0693 94.3798 75.0693 94.4057 75.0305 94.4747Z" fill="#8B7D3B"/>
<path d="M232.586 182.354C204.47 183.251 175.768 155.01 149.689 178.209C180.181 164.724 211.01 200.514 239.518 181.077C237.244 181.802 234.919 182.095 232.586 182.354Z" fill="#8B7D3B"/>
<path d="M159.584 166.109C169.673 163.814 180.41 163.111 190.223 166.704C153.084 139.258 113.248 186.391 71.2821 166.674C83.4807 176.988 99.8505 182.233 115.716 179.55C131.175 178.045 144.612 169.465 159.584 166.109ZM184.473 163.659C184.477 163.655 184.477 163.65 184.486 163.655C184.482 163.655 184.477 163.655 184.473 163.659ZM155.391 160.26C155.391 160.273 155.391 160.282 155.396 160.29C155.383 160.286 155.37 160.282 155.352 160.282C155.365 160.273 155.378 160.264 155.391 160.26ZM139.513 162.473C139.513 162.469 139.509 162.464 139.509 162.464C139.526 162.464 139.539 162.46 139.556 162.464C139.539 162.464 139.526 162.473 139.513 162.473ZM123.191 167.442C123.251 167.433 123.312 167.425 123.372 167.416C123.23 167.455 123.092 167.498 122.949 167.537C123.001 167.472 123.096 167.455 123.191 167.442ZM84.3003 173.019C84.296 173.063 84.296 173.101 84.296 173.144C84.283 173.097 84.283 173.058 84.3003 173.019Z" fill="#8B7D3B"/>
</svg>
