<svg width="17" height="17" viewBox="0 0 17 17" fill="none" xmlns="http://www.w3.org/2000/svg">
<circle cx="8.5" cy="8.5" r="8.5" fill="#9A31C9"/>
<path d="M8.91979 13.3835C9.82822 12.1725 11.9001 9.23725 11.9001 7.58855C11.9001 5.58897 10.3772 3.96667 8.5001 3.96667C6.62301 3.96667 5.1001 5.58897 5.1001 7.58855C5.1001 9.23725 7.17197 12.1725 8.08041 13.3835C8.29822 13.6722 8.70197 13.6722 8.91979 13.3835ZM8.5001 6.38126C8.80068 6.38126 9.08894 6.50845 9.30149 6.73486C9.51403 6.96128 9.63343 7.26835 9.63343 7.58855C9.63343 7.90874 9.51403 8.21582 9.30149 8.44223C9.08894 8.66864 8.80068 8.79584 8.5001 8.79584C8.19952 8.79584 7.91125 8.66864 7.69871 8.44223C7.48617 8.21582 7.36676 7.90874 7.36676 7.58855C7.36676 7.26835 7.48617 6.96128 7.69871 6.73486C7.91125 6.50845 8.19952 6.38126 8.5001 6.38126Z" fill="white"/>
</svg>
