<svg width="62" height="59" viewBox="0 0 62 59" fill="none" xmlns="http://www.w3.org/2000/svg">
<path d="M53.7339 0.44397H61.4801V6.8723H56.3695L42.7415 20.5004C41.5522 18.7004 40.0094 17.1576 38.2095 15.9684L53.7339 0.44397ZM29.3384 16.5148C32.7482 16.5148 36.0183 17.8693 38.4294 20.2804C40.8405 22.6915 42.1951 25.9617 42.1951 29.3715C42.1985 32.2215 41.2524 34.9915 39.5063 37.244C37.7602 39.4965 35.3135 41.1031 32.5526 41.8103V42.2281C32.5526 46.4904 30.8594 50.5781 27.8455 53.5919C24.8317 56.6058 20.744 58.299 16.4817 58.299C12.2195 58.299 8.13179 56.6058 5.11793 53.5919C2.10406 50.5781 0.410889 46.4904 0.410889 42.2281C0.410889 37.9659 2.10406 33.8782 5.11793 30.8643C8.13179 27.8505 12.2195 26.1573 16.4817 26.1573H16.8996C18.3459 20.5004 23.4565 16.5148 29.3384 16.5148ZM29.3384 24.5502C28.0597 24.5502 26.8334 25.0582 25.9292 25.9623C25.0251 26.8665 24.5171 28.0928 24.5171 29.3715C24.5171 30.6501 25.0251 31.8764 25.9292 32.7806C26.8334 33.6848 28.0597 34.1927 29.3384 34.1927C30.6171 34.1927 31.8434 33.6848 32.7475 32.7806C33.6517 31.8764 34.1596 30.6501 34.1596 29.3715C34.1596 28.0928 33.6517 26.8665 32.7475 25.9623C31.8434 25.0582 30.6171 24.5502 29.3384 24.5502ZM13.0747 36.5712L10.7926 38.8211L19.8887 47.9172L22.1708 45.6352L13.0747 36.5712Z" fill="white"/>
</svg>
