<svg width="209" height="209" viewBox="0 0 209 209" fill="none" xmlns="http://www.w3.org/2000/svg">
<path fill-rule="evenodd" clip-rule="evenodd" d="M0 162.071C25.5428 190.851 62.8927 209 104.5 209C146.107 209 183.457 190.851 209 162.071C197.324 136.336 176.34 115.685 150.322 104.373C138.269 115.421 122.176 122.169 104.5 122.169C86.8243 122.169 70.7314 115.421 58.6777 104.373C32.66 115.685 11.6762 136.336 0 162.071ZM159.527 54.7886C159.527 24.5296 134.891 0 104.5 0C74.1095 0 49.4732 24.5296 49.4732 54.7886C49.4732 85.0475 74.1095 109.577 104.5 109.577C134.891 109.577 159.527 85.0475 159.527 54.7886Z" fill="#C0C0C0"/>
</svg>
