<svg width="24" height="25" viewBox="0 0 24 25" fill="none" xmlns="http://www.w3.org/2000/svg">
<ellipse cx="11.7778" cy="12.4603" rx="11.7778" ry="11.7778" fill="#71A151"/>
<g clip-path="url(#clip0_479_884)">
<path d="M9.84857 7.00999C9.65534 6.54322 9.14592 6.29479 8.65908 6.42779L6.45074 7.03006C6.0141 7.15052 5.71045 7.54701 5.71045 7.99872C5.71045 14.2071 10.7445 19.2411 16.9529 19.2411C17.4046 19.2411 17.8011 18.9375 17.9215 18.5008L18.5238 16.2925C18.6568 15.8057 18.4084 15.2963 17.9416 15.103L15.5325 14.0992C15.1235 13.9286 14.6492 14.0465 14.3706 14.3903L13.3568 15.6275C11.5901 14.7919 10.1597 13.3615 9.32409 11.5948L10.5613 10.5835C10.9051 10.3024 11.023 9.83063 10.8524 9.42159L9.84857 7.01249V7.00999Z" fill="white"/>
</g>
<defs>
<clipPath id="clip0_479_884">
<rect width="12.8485" height="12.8485" fill="white" transform="translate(5.71045 6.39294)"/>
</clipPath>
</defs>
</svg>
