<svg width="16" height="16" viewBox="0 0 16 16" fill="none" xmlns="http://www.w3.org/2000/svg">
<circle cx="8" cy="8" r="8" fill="#9A31C9"/>
<path d="M5.71429 5.25C5.71429 5.84674 5.9551 6.41903 6.38376 6.84099C6.81241 7.26295 7.39379 7.5 8 7.5C8.60621 7.5 9.18759 7.26295 9.61624 6.84099C10.0449 6.41903 10.2857 5.84674 10.2857 5.25C10.2857 4.65326 10.0449 4.08097 9.61624 3.65901C9.18759 3.23705 8.60621 3 8 3C7.39379 3 6.81241 3.23705 6.38376 3.65901C5.9551 4.08097 5.71429 4.65326 5.71429 5.25ZM7.40179 8.76914L7.73393 9.31406L7.13929 11.492L6.49643 8.90977C6.46071 8.76738 6.32143 8.67422 6.17679 8.71113C4.92679 9.01875 4 10.1332 4 11.4604C4 11.7592 4.24643 12 4.54821 12H6.9C6.9 12 6.9 12 6.90179 12H7H9H9.09821C9.09821 12 9.09821 12 9.1 12H11.4518C11.7554 12 12 11.7574 12 11.4604C12 10.1332 11.0732 9.01875 9.82321 8.71113C9.67857 8.67598 9.53929 8.76914 9.50357 8.90977L8.86071 11.492L8.26607 9.31406L8.59821 8.76914C8.7125 8.58106 8.575 8.34375 8.35357 8.34375H8H7.64821C7.42679 8.34375 7.28929 8.58281 7.40357 8.76914H7.40179Z" fill="white"/>
</svg>
