<svg width="55" height="83" viewBox="0 0 55 83" fill="none" xmlns="http://www.w3.org/2000/svg">
<path fill-rule="evenodd" clip-rule="evenodd" d="M30.6043 56.8163H30.5828C29.8687 57.1919 28.9343 57.5846 28.1605 57.9314C28.0483 57.9816 27.9225 58.0062 27.7965 58.005C27.8072 58.1812 27.8177 58.3564 27.8276 58.5308C27.8367 58.6913 27.7154 58.8318 27.5014 58.9095C27.2872 58.9871 27.0414 58.9794 26.8394 58.8888C25.8423 58.4421 24.8946 57.9713 23.9969 57.4765L23.7873 65.4047C23.7452 67.0026 25.2034 68.3434 27.0215 68.3837C28.8397 68.4241 30.3614 67.1494 30.3989 65.5513L30.6043 56.8163Z" fill="white"/>
<path fill-rule="evenodd" clip-rule="evenodd" d="M27.8281 56.7616C36.6702 34.1148 34.668 17.9875 21.5704 8.78174C20.6104 10.9083 19.8008 12.7013 19.1418 14.1612C20.1183 16.2272 21.2488 18.1231 22.533 19.8489C20.7042 18.7597 19.1584 17.5233 17.8953 16.1398C16.3905 18.8416 16.1454 21.1014 17.16 22.9194C18.3185 24.4705 19.8519 26.0054 21.7605 27.524C19.8734 26.4697 18.4186 25.6214 17.3961 24.9796C17.4301 25.3031 17.4713 25.6266 17.5198 25.95C24.6171 35.1749 27.0817 47.225 27.8281 56.7616Z" fill="white"/>
<path fill-rule="evenodd" clip-rule="evenodd" d="M14.2509 46.8648C16.4398 51.7666 20.7547 55.6603 27.1959 58.5463C25.8705 35.184 16.9364 20.3105 0.39361 13.926C0.39361 16.1438 0.39361 18.0139 0.39361 19.5365C2.2243 21.3352 4.12884 22.9424 6.1072 24.3576C3.88241 23.6543 1.865 22.7571 0.0550435 21.6662C-0.218062 24.537 0.525109 26.7496 2.28474 28.3035C4.06688 29.5747 6.20165 30.7603 8.68893 31.8608C6.42316 31.2014 4.66128 30.6595 3.40297 30.2346C5.80756 34.4671 9.56084 38.4461 14.663 42.1716C13.6641 42.0973 12.3263 41.5789 10.6494 40.6164C12.0725 43.5907 14.8845 46.426 19.0853 49.1227C17.2053 48.5791 15.5938 47.8264 14.2509 46.8648Z" fill="white"/>
<path fill-rule="evenodd" clip-rule="evenodd" d="M33.8881 30.5582C36.4457 25.8079 39.9457 21.405 44.7341 17.8341C44.8301 17.4815 44.9175 17.1284 44.996 16.7749C43.9021 17.364 42.3537 18.1374 40.3502 19.095C42.4287 17.6756 44.1352 16.2214 45.4695 14.7325C46.691 12.9702 46.7077 10.7047 45.5196 7.93581C44.1003 9.25247 42.4159 10.4083 40.4666 11.4034C41.9467 9.74633 43.2929 7.91225 44.5054 5.90081C44.0167 4.41234 43.4168 2.58404 42.7052 0.416016C36.2898 4.28965 31.9708 9.65854 29.7489 16.5229C32.4298 20.8309 33.6422 25.6328 33.8881 30.5582Z" fill="white"/>
<path fill-rule="evenodd" clip-rule="evenodd" d="M28.5078 56.7617L28.6568 56.4302C28.4924 56.8804 28.2082 57.2666 27.8041 57.5887C34.2452 54.7028 38.5601 50.809 40.749 45.9073C39.4061 46.8689 37.7947 47.6215 35.9147 48.1652C40.1154 45.4685 42.9274 42.6331 44.3506 39.659C42.6736 40.6214 41.3358 41.1398 40.337 41.2142C45.4391 37.4885 49.1924 33.5096 51.597 29.2772C50.3387 29.7019 48.5768 30.244 46.311 30.9031C48.7983 29.8028 50.9331 28.6172 52.7152 27.346C54.4748 25.7921 55.218 23.5796 54.9449 20.7086C53.135 21.7996 51.1175 22.6968 48.8927 23.4002C50.8711 21.9849 52.7756 20.3778 54.6063 18.5791C54.6063 17.0565 54.6063 15.1863 54.6063 12.9685C45.3125 16.5553 38.4202 22.8216 33.9294 31.767C34.0897 40.4456 31.3971 49.4124 28.5659 56.6638C28.5522 56.6987 28.5326 56.7317 28.5078 56.7617Z" fill="white"/>
<path fill-rule="evenodd" clip-rule="evenodd" d="M31.1719 59.5713L31.031 65.5628C30.9862 67.4681 29.1722 68.9873 27.0056 68.9392C24.8404 68.8912 23.1049 67.2962 23.1552 65.3919L23.3023 59.8298C16.5836 61.4351 11.8968 66.4389 12.4074 71.9924C12.9951 78.3835 20.2447 83.0839 28.5999 82.4902C36.9549 81.8967 43.2514 76.2342 42.6635 69.8427C42.1899 64.6923 37.3899 60.6396 31.1719 59.5713ZM30.5419 59.4974L30.3996 65.5513C30.362 67.1495 28.8403 68.4241 27.0222 68.3838C25.204 68.3435 23.7458 67.0027 23.7879 65.4047L23.9387 59.6999L30.5419 59.4974Z" fill="white"/>
</svg>
