<svg width="20" height="21" viewBox="0 0 20 21" fill="none" xmlns="http://www.w3.org/2000/svg">
<path d="M19.4577 0.718854C19.8523 0.992235 20.0593 1.46479 19.9851 1.93735L17.4851 18.184C17.4265 18.5628 17.196 18.8948 16.86 19.0822C16.5241 19.2697 16.1217 19.2931 15.7663 19.1447L11.0943 17.2037L8.4185 20.0976C8.07084 20.4765 7.52396 20.6015 7.04348 20.414C6.56301 20.2265 6.2505 19.7618 6.2505 19.2463V15.9813C6.2505 15.8251 6.3091 15.6767 6.41457 15.5595L12.9615 8.42038C13.1881 8.17434 13.1803 7.79551 12.9459 7.56119C12.7115 7.32686 12.3326 7.31124 12.0865 7.53385L4.1411 14.591L0.691824 12.8648C0.277755 12.6578 0.0121258 12.2438 0.000406863 11.783C-0.0113121 11.3221 0.230879 10.8925 0.629323 10.6621L18.1296 0.664178C18.5476 0.425946 19.0632 0.449379 19.4577 0.718854Z" fill="white"/>
</svg>
