<svg width="329" height="181" viewBox="0 0 329 181" fill="none" xmlns="http://www.w3.org/2000/svg">
<path d="M76.5714 147.801C46.6628 146.407 0.0111057 151.294 0.0111057 151.294L0.199219 0L328.176 0.407793L327.96 173.99C327.96 173.99 309.213 177.554 296.579 178.862C269.521 181.662 252.525 181.618 225.461 178.774C189.067 174.949 175.249 165.066 143.076 156.761C119.886 150.775 103.819 149.071 76.5714 147.801Z" fill="#F9DDF4"/>
<path d="M76.5714 147.801C46.6628 146.407 0.0111057 151.294 0.0111057 151.294L0.199219 0L328.176 0.407793L327.96 173.99C327.96 173.99 309.213 177.554 296.579 178.862C269.521 181.662 252.525 181.618 225.461 178.774C189.067 174.949 175.249 165.066 143.076 156.761C119.886 150.775 103.819 149.071 76.5714 147.801Z" fill="#C4C4C4" fill-opacity="0.2"/>
</svg>
