<svg width="189" height="83" viewBox="0 0 189 83" fill="none" xmlns="http://www.w3.org/2000/svg">
<path d="M23.7449 78.1085C24.5688 79.1696 25.5307 80.0539 26.635 80.7613C27.8126 81.6283 29.1886 82.3357 30.7587 82.8835H-0.00958252C1.48289 82.3357 2.8589 81.6283 4.11413 80.7613C5.13644 80.0539 6.07678 79.1696 6.9438 78.1085C7.8065 77.0473 8.24217 75.8482 8.24217 74.511V8.61777C8.24217 7.28058 7.81081 6.08143 6.9438 5.0203C6.07678 3.95918 5.13644 3.07491 4.11413 2.36749C2.85459 1.50479 1.47858 0.797369 -0.00958252 0.245239H30.7587C29.1843 0.797369 27.8126 1.50479 26.635 2.36749C25.535 3.07491 24.5731 3.95918 23.7449 5.0203C22.9211 6.08143 22.507 7.28058 22.507 8.61777V74.5153C22.507 75.8525 22.9211 77.0473 23.7449 78.1085Z" fill="#6B8E23"/>
<path d="M71.1936 23.3525C75.9083 23.3525 80.1527 24.0211 83.9228 25.3583C87.6971 26.6955 90.8977 28.6193 93.529 31.1341C96.1602 33.6489 98.2048 36.7762 99.6585 40.5074C101.112 44.2429 101.841 48.4658 101.841 53.1805C101.841 57.8951 101.112 62.1224 99.6585 65.8536C98.2048 69.5891 96.1602 72.7121 93.529 75.2268C90.8934 77.7416 87.6928 79.6655 83.9228 81.0026C80.1527 82.3398 75.9083 83.0084 71.1936 83.0084C63.6493 83.0084 57.399 81.3563 52.4514 78.0565C52.3737 77.9789 52.3133 77.94 52.2745 77.94C52.2357 77.94 52.1753 77.9012 52.0977 77.8236C51.6275 77.5087 50.7605 77.0558 49.5052 76.4691C48.2457 75.8782 46.9128 75.5849 45.498 75.5849C44.0832 75.5849 42.8064 76.0766 41.6676 77.0601C40.5288 78.0436 39.8387 79.9889 39.6057 82.8962H38.5446L38.6611 18.4136C38.6611 17.0764 38.2297 15.8772 37.3627 14.8161C36.4957 13.755 35.5553 12.8707 34.533 12.1633C33.3554 11.3006 32.0183 10.5932 30.5258 10.041C32.5704 9.33361 34.8091 8.50972 37.2462 7.56506C39.2909 6.70236 41.6245 5.68006 44.26 4.49816C46.8913 3.32057 49.626 1.90574 52.4514 0.253662V28.3088C57.4766 25.0003 63.7269 23.3525 71.1936 23.3525ZM79.3289 80.1701C84.9063 78.3628 88.3053 74.8257 89.526 69.5589C90.7424 64.2964 89.9789 57.1446 87.2269 48.1035C84.4749 39.0667 81.1578 32.7215 77.267 29.0636C73.3762 25.4058 68.6788 24.4482 63.1791 26.1736C56.3422 28.3735 52.7663 33.403 52.4514 41.2622V43.1472C52.529 45.3471 52.8051 47.6851 53.2753 50.161C53.7454 52.637 54.414 55.3286 55.281 58.2359C58.0331 67.2727 61.3501 73.6222 65.2409 77.2758C69.1317 80.9379 73.8248 81.8998 79.3289 80.1701Z" fill="#6B8E23"/>
<path d="M104.201 82.8833C105.693 82.3355 107.03 81.6281 108.208 80.761C109.23 80.0536 110.171 79.1693 111.038 78.1082C111.9 77.0471 112.336 75.848 112.336 74.5108V41.5038C112.336 40.1666 111.905 38.9674 111.038 37.9063C110.171 36.8451 109.23 35.9609 108.208 35.2535C107.03 34.3908 105.693 33.6833 104.201 33.1312C106.245 32.4238 108.484 31.5999 110.921 30.6553C112.961 29.7926 115.299 28.7703 117.935 27.5884C120.566 26.4108 123.297 24.9959 126.126 23.3439V74.5064C126.126 75.8436 126.54 77.0385 127.364 78.1039C128.188 79.165 129.111 80.0493 130.133 80.7567C131.311 81.6237 132.687 82.3312 134.257 82.879H104.201V82.8833ZM119.289 19.4617C117.245 19.4617 115.476 18.737 113.984 17.2791C112.491 15.8254 111.745 14.0784 111.745 12.0338C111.745 9.98922 112.491 8.24225 113.984 6.78859C115.476 5.33494 117.245 4.60596 119.289 4.60596C121.334 4.60596 123.081 5.33494 124.535 6.78859C125.988 8.24225 126.717 9.99354 126.717 12.0338C126.717 14.0784 125.988 15.8254 124.535 17.2791C123.081 18.737 121.334 19.4617 119.289 19.4617Z" fill="#6B8E23"/>
<path d="M188.607 72.9795C186.8 75.9687 183.97 78.3843 180.118 80.2305C176.266 82.0767 171.159 82.9998 164.793 82.9998C160.156 82.9998 155.95 82.3312 152.18 80.994C148.406 79.6568 145.183 77.7329 142.513 75.2182C139.839 72.7034 137.777 69.5804 136.323 65.8449C134.87 62.1137 134.141 57.8865 134.141 53.1718C134.141 48.4571 134.865 44.2342 136.323 40.4987C137.777 36.7675 139.839 33.6445 142.513 31.1254C145.183 28.6107 148.406 26.6868 152.18 25.3496C155.954 24.0125 160.156 23.3439 164.793 23.3439C167.622 23.3439 170.331 23.5423 172.928 23.9348C175.52 24.3273 177.837 24.7199 179.881 25.1124C182.241 25.6645 184.402 26.2512 186.364 26.8809L152.059 65.7845C154.574 70.8141 157.205 74.5496 159.957 76.9824C162.705 79.4195 165.849 80.6359 169.386 80.6359C173.868 80.6359 177.638 79.7517 180.705 77.9831C183.772 76.2146 185.968 74.1139 187.309 71.6768L188.607 72.9795ZM145.166 38.2039C144.42 43.7036 145.813 50.8554 149.35 59.6593C149.665 60.4444 149.98 61.2122 150.295 61.9584C150.61 62.7047 150.925 63.4337 151.24 64.1411L177.172 34.7876C175.68 33.3728 173.989 32.0356 172.104 30.7804C170.219 29.5251 168.274 28.5028 166.268 27.7135C164.262 26.9284 162.261 26.4367 160.255 26.2382C158.249 26.0441 156.308 26.2986 154.419 27.006C148.996 28.973 145.912 32.7042 145.166 38.2039ZM165.737 4.4895H157.015L147.465 18.6378L153.595 20.8765L161.376 12.3875L169.158 20.8765L175.287 18.6378L165.737 4.4895Z" fill="#6B8E23"/>
</svg>
