<svg width="22" height="21" viewBox="0 0 22 21" fill="none" xmlns="http://www.w3.org/2000/svg">
<path d="M10.9955 0C11.3788 0 11.7288 0.213281 11.8955 0.553711L14.7538 6.34922L21.1372 7.27617C21.5122 7.32949 21.8247 7.58789 21.9413 7.94473C22.058 8.30156 21.9622 8.68711 21.6955 8.94961L17.0663 13.4695L18.158 19.8516C18.2205 20.2207 18.0663 20.5939 17.7538 20.8154C17.4413 21.0369 17.033 21.0615 16.6997 20.8852L10.9913 17.8828L5.29133 20.8811C4.95383 21.0574 4.54549 21.0328 4.23716 20.8113C3.92883 20.5898 3.77049 20.2166 3.83299 19.8475L4.92466 13.4654L0.295493 8.94961C0.0246598 8.68711 -0.0670068 8.29746 0.0496599 7.94473C0.166327 7.59199 0.478827 7.33359 0.853827 7.27617L7.23716 6.34922L10.0955 0.553711C10.2663 0.213281 10.6122 0 10.9955 0ZM10.9955 3.24023L8.80799 7.67813C8.66216 7.96934 8.38299 8.17441 8.05383 8.22363L3.12466 8.93731L6.70383 12.4277C6.93299 12.6533 7.04133 12.9732 6.98716 13.2891L6.14133 18.1986L10.5247 15.8936C10.8205 15.7377 11.1747 15.7377 11.4663 15.8936L15.8497 18.1986L15.008 13.2932C14.9538 12.9773 15.058 12.6574 15.2913 12.4318L18.8705 8.94141L13.9413 8.22363C13.6163 8.17441 13.333 7.97344 13.1872 7.67813L10.9955 3.24023Z" fill="#9A31C9"/>
</svg>
