<svg width="77" height="100" viewBox="0 0 77 100" fill="none" xmlns="http://www.w3.org/2000/svg">
<g opacity="0.1" clip-path="url(#clip0_536_2370)">
<path d="M12.8333 0C5.75495 0 0 5.60547 0 12.5V87.5C0 94.3945 5.75495 100 12.8333 100H64.1667C71.245 100 77 94.3945 77 87.5V31.25H51.3333C47.7841 31.25 44.9167 28.457 44.9167 25V0H12.8333ZM51.3333 0V25H77L51.3333 0ZM43.3125 79.6875C43.3125 82.2852 41.1669 84.375 38.5 84.375C35.8331 84.375 33.6875 82.2852 33.6875 79.6875V59.7461L27.4714 65.8008C25.5865 67.6367 22.5385 67.6367 20.6737 65.8008C18.8089 63.9648 18.7888 60.9961 20.6737 59.1797L35.1112 45.1172C36.9961 43.2812 40.044 43.2812 41.9089 45.1172L56.3464 59.1797C58.2312 61.0156 58.2312 63.9844 56.3464 65.8008C54.4615 67.6172 51.4135 67.6367 49.5487 65.8008L43.3326 59.7461L43.3125 79.6875Z" fill="#9A31C9"/>
</g>
<defs>
<clipPath id="clip0_536_2370">
<rect width="77" height="100" fill="white"/>
</clipPath>
</defs>
</svg>
