<svg width="402" height="84" viewBox="0 0 402 84" fill="none" xmlns="http://www.w3.org/2000/svg">
<path d="M36.8744 83.6567C27.5826 83.0085 24.6907 82.7155 19.4928 82.0332C16.1795 81.5776 10.4619 80.6364 6.75717 79.8898L0 78.5573V64.2943L0.71445 64.4569C4.35293 65.366 13.7752 67.0879 19.3303 67.9007C37.4263 70.4996 54.9043 71.0856 74.074 69.721C110.752 67.0558 143.727 61.0452 190.868 48.44C234.695 36.7118 253.246 32.7161 282.16 28.8167C292.523 27.4199 298.891 26.7717 305.064 26.5108C315.297 26.0893 312.471 25.5033 299.866 25.407C279.464 25.3087 260.686 28.0059 229.041 35.608C199.446 42.7224 189.504 44.9641 173.162 48.2453C151.851 52.5019 136.159 54.6453 109.323 56.9532C102.598 57.5372 70.2067 57.5372 63.3512 56.9532C40.4487 55.0366 23.619 51.8196 5.58716 45.9394L0 44.0871V37.1673C0 33.3663 0.0321101 30.2476 0.0983371 30.2476C0.162557 30.2476 1.88446 30.8316 3.93148 31.5782C22.5473 38.239 43.5012 42.333 65.627 43.5994C74.2687 44.0871 95.9711 43.794 105.098 43.0796C108.835 42.7866 111.954 42.4956 112.02 42.4294C112.084 42.3973 110.264 42.2347 107.958 42.1384C90.6749 41.3577 81.2847 39.8305 58.9662 34.145C35.4777 28.1685 20.5324 25.2444 6.8234 23.8798C3.86525 23.5868 1.1379 23.2938 0.71445 23.2295L0 23.0991V0.033989H415.848V66.6986L410.586 63.9371C407.662 62.442 402.237 59.3895 398.468 57.2121C386.349 50.0977 383.912 48.7009 379.624 46.4913C366.272 39.6679 349.021 34.8273 333.036 33.4626C327.87 33.0412 312.666 33.2358 305.064 33.8198C287.877 35.1524 264.746 38.9213 239.925 44.3479C228.977 46.7502 210.686 51.657 191.194 57.4067C183.104 59.811 157.795 66.6665 149.932 68.5831C143.988 70.0461 126.931 73.8471 118.711 75.5349C103.995 78.5573 82.9103 81.6438 67.2506 83.0406C61.9544 83.5283 40.9023 83.9497 36.8744 83.6567Z" fill="#9A31C9"/>
</svg>
