<svg width="24" height="27" viewBox="0 0 24 27" fill="none" xmlns="http://www.w3.org/2000/svg">
<g clip-path="url(#clip0_479_882)">
<path d="M20.4718 5.10541C18.2688 2.89708 15.3348 1.6825 12.2169 1.6825C5.78115 1.6825 0.544237 6.9194 0.544237 13.3551C0.544237 15.411 1.08055 17.4195 2.10059 19.1914L0.444336 25.2381L6.63294 23.6133C8.33651 24.544 10.2557 25.033 12.2116 25.033H12.2169C18.6473 25.033 23.9999 19.7961 23.9999 13.3604C23.9999 10.2424 22.6749 7.31375 20.4718 5.10541ZM12.2169 23.0665C10.4712 23.0665 8.7624 22.5986 7.27441 21.7152L6.92212 21.5049L3.25208 22.4671L4.23006 18.8865L3.99871 18.5184C3.02599 16.9726 2.51597 15.1901 2.51597 13.3551C2.51597 8.00779 6.86954 3.65422 12.2221 3.65422C14.8143 3.65422 17.2487 4.66374 19.0785 6.49876C20.9083 8.33379 22.0335 10.7682 22.0282 13.3604C22.0282 18.713 17.5642 23.0665 12.2169 23.0665ZM17.5379 15.8001C17.2487 15.6528 15.8133 14.9483 15.5452 14.8536C15.277 14.7537 15.0825 14.7064 14.8879 15.0008C14.6934 15.2953 14.136 15.9473 13.9625 16.1471C13.7943 16.3416 13.6207 16.3679 13.3316 16.2207C11.6175 15.3636 10.4923 14.6906 9.36181 12.7505C9.06211 12.2352 9.66151 12.272 10.2189 11.1573C10.3135 10.9628 10.2662 10.7945 10.1926 10.6473C10.119 10.5001 9.53532 9.06464 9.29346 8.48101C9.05685 7.91315 8.81498 7.99202 8.63621 7.9815C8.46796 7.97099 8.27342 7.97099 8.07887 7.97099C7.88433 7.97099 7.56885 8.0446 7.3007 8.33379C7.03254 8.62823 6.28065 9.33279 6.28065 10.7682C6.28065 12.2036 7.32699 13.5917 7.46895 13.7863C7.61617 13.9808 9.52481 16.9253 12.4535 18.1924C14.3043 18.9916 15.0299 19.06 15.9553 18.9233C16.5179 18.8391 17.6799 18.2187 17.9217 17.5352C18.1636 16.8516 18.1636 16.268 18.09 16.1471C18.0216 16.0156 17.8271 15.942 17.5379 15.8001Z" fill="#71A151"/>
</g>
<defs>
<clipPath id="clip0_479_882">
<rect width="23.5556" height="26.9206" fill="white" transform="translate(0.444336)"/>
</clipPath>
</defs>
</svg>
